<svg width="131" height="145" viewBox="0 0 131 145" fill="none" xmlns="http://www.w3.org/2000/svg">
<path d="M62.1778 0.26628C52.5307 1.5329 43.7723 3.03396 34.9778 7.57319C13.5464 18.6348 -1.54568 43.2332 0.126407 67.6505C0.733895 76.5215 2.61108 85.1705 6.42765 93.2505C8.21156 97.0271 11.2426 100.354 12.8486 104.13C13.8429 106.469 11.5964 110.011 11.3523 112.45C10.7528 118.442 13.2617 124.176 17.3904 128.449C32.2594 143.84 59.2101 145.701 79.1378 143.08C94.9771 140.998 118.915 134.016 123.379 116.29C124.234 112.897 124.034 109.343 122.838 106.05C122.174 104.221 120.176 101.644 120.708 99.6505C121.688 95.9788 124.519 92.3842 125.918 88.7705C129.022 80.7583 130.702 71.7724 130.325 63.1705C129.086 34.8626 109.964 10.3479 82.6578 2.55566C76.3506 0.755783 68.7365 -0.594904 62.1778 0.26628Z" fill="#FCF4E1"/>
<path d="M65 113.5C92.8904 113.5 115.5 90.8904 115.5 63C115.5 35.1096 92.8904 12.5 65 12.5C37.1096 12.5 14.5 35.1096 14.5 63C14.5 90.8904 37.1096 113.5 65 113.5Z" fill="#FBF4CF" stroke="#E6E4D8" stroke-width="7"/>
<mask id="mask0" mask-type="alpha" maskUnits="userSpaceOnUse" x="18" y="16" width="94" height="94">
<circle cx="65" cy="63" r="47" fill="#C4C4C4"/>
</mask>
<g mask="url(#mask0)">
</g>
<mask id="mask1" mask-type="alpha" maskUnits="userSpaceOnUse" x="18" y="16" width="94" height="94">
<circle cx="65" cy="63" r="47" fill="#C4C4C4"/>
</mask>
<g mask="url(#mask1)">
<path d="M49.4663 53.8367C27.1386 56.0347 17.8129 67.2657 15.941 72.6065L10.0817 101.166L26.4093 123.897L96.2589 118.794L126.841 79.1296C130.739 82.0303 136.246 85.5936 127.088 76.6419C117.93 67.6902 103.699 60.9131 97.7275 58.6435C90.9437 56.1254 71.7941 51.6388 49.4663 53.8367Z" fill="#DDBE88"/>
<mask id="mask2" mask-type="alpha" maskUnits="userSpaceOnUse" x="48" y="52" width="7" height="6">
<circle cx="51.0002" cy="55" r="3" fill="#C8A97B"/>
</mask>
<g mask="url(#mask2)">
<path d="M49.4662 53.8367C27.1384 56.0347 17.8128 67.2657 15.9409 72.6065L10.0816 101.166L26.4092 123.897L96.2588 118.794L126.84 79.1296C130.739 82.0303 136.246 85.5936 127.088 76.6419C117.93 67.6902 103.699 60.9131 97.7274 58.6435C90.9436 56.1254 71.794 51.6388 49.4662 53.8367Z" fill="#C8A97B"/>
</g>
<circle cx="46.9999" cy="70" r="3" fill="#C8A97B"/>
<circle cx="28.0002" cy="71" r="3" fill="#C8A97B"/>
<path d="M42.4999 93L36.9999 80.5L53.9999 83L55.4999 91.5L42.4999 93Z" fill="#445050"/>
<path d="M68.4999 71.5L53.9999 83L55.4999 91.5H66.4999L71.9999 87L68.4999 71.5Z" fill="#5A6D6B"/>
<path d="M48.9999 69.5C45.1665 73 37.3999 80.1 36.9999 80.5L53.9999 83L68.4999 71.5L48.9999 69.5Z" fill="#7C8C8B"/>
<path d="M81.4999 67L87.9999 60" stroke="#D6413A" stroke-width="4"/>
<path d="M88.2426 51L89.3032 49.9393L88.2426 48.8787L87.1819 49.9393L88.2426 51ZM97.4349 60.1924L98.4956 61.253L99.5563 60.1924L98.4956 59.1317L97.4349 60.1924ZM89.6568 58.7782C87.6226 56.744 87.6242 53.7397 89.3032 52.0607L87.1819 49.9393C84.1746 52.9466 84.4928 57.8568 87.5354 60.8995L89.6568 58.7782ZM96.3743 59.1317C94.6953 60.8107 91.6909 60.8123 89.6568 58.7782L87.5354 60.8995C90.5781 63.9422 95.4883 64.2603 98.4956 61.253L96.3743 59.1317ZM98.4956 59.1317L89.3032 49.9393L87.1819 52.0607L96.3743 61.253L98.4956 59.1317Z" fill="#D6413A"/>
<path fill-rule="evenodd" clip-rule="evenodd" d="M81.5889 66.6579L81.5889 66.6578C80.5557 65.5046 77.9708 63.0716 75.8966 62.5658C73.8224 62.06 70.5799 65.7228 69.218 67.6174C63.1476 76.0619 66.7642 81.8638 69.3313 83.7092L69.3313 83.7093C71.8984 85.5547 78.5502 87.1344 84.6207 78.6899C85.9826 76.7953 88.4215 72.5548 87.2812 70.7499C86.1409 68.9449 83.0112 67.2698 81.5889 66.6579Z" fill="#444444"/>
<line x1="55.3719" y1="62.657" x2="58.6569" y2="64.628" stroke="white" stroke-width="2" stroke-linecap="round"/>
<line x1="60.3415" y1="59.4472" x2="61.4471" y2="61.6584" stroke="white" stroke-width="2" stroke-linecap="round"/>
<line x1="64.9999" y1="58" x2="64.9999" y2="61" stroke="white" stroke-width="2" stroke-linecap="round"/>
<line x1="70.1999" y1="59.4" x2="68.3999" y2="61.8" stroke="white" stroke-width="2" stroke-linecap="round"/>
<circle cx="93" cy="84" r="3" fill="#C8A97B"/>
<circle cx="77.5" cy="105.5" r="4.5" fill="#C8A97B"/>
<circle cx="37.9999" cy="98" r="3" fill="#C8A97B"/>
<circle cx="26.9999" cy="85" r="3" fill="#C8A97B"/>
</g>
<path d="M39.5 93.9999C45.6667 92.3333 60.9 89.6999 72.5 92.4999" stroke="#C8A97B" stroke-linecap="round"/>
</svg>
