<?xml version="1.0" encoding="UTF-8" standalone="no"?>
<!-- Created with Inkscape (http://www.inkscape.org/) -->

<svg
   xmlns:dc="http://purl.org/dc/elements/1.1/"
   xmlns:cc="http://creativecommons.org/ns#"
   xmlns:rdf="http://www.w3.org/1999/02/22-rdf-syntax-ns#"
   xmlns:svg="http://www.w3.org/2000/svg"
   xmlns="http://www.w3.org/2000/svg"
   xmlns:sodipodi="http://sodipodi.sourceforge.net/DTD/sodipodi-0.dtd"
   xmlns:inkscape="http://www.inkscape.org/namespaces/inkscape"
   version="1.1"
   id="svg2"
   width="32"
   height="32"
   viewBox="0 0 32 32"
   sodipodi:docname="paw.svg"
   inkscape:version="0.92.4 5da689c313, 2019-01-14">
  <metadata
     id="metadata8">
    <rdf:RDF>
      <cc:Work
         rdf:about="">
        <dc:format>image/svg+xml</dc:format>
        <dc:type
           rdf:resource="http://purl.org/dc/dcmitype/StillImage" />
        <dc:title />
      </cc:Work>
    </rdf:RDF>
  </metadata>
  <defs
     id="defs6" />
  <sodipodi:namedview
     pagecolor="#ffffff"
     bordercolor="#666666"
     borderopacity="1"
     objecttolerance="10"
     gridtolerance="10"
     guidetolerance="10"
     inkscape:pageopacity="0"
     inkscape:pageshadow="2"
     inkscape:window-width="2504"
     inkscape:window-height="1318"
     id="namedview4"
     showgrid="false"
     inkscape:zoom="14.75"
     inkscape:cx="-5.4110477"
     inkscape:cy="12.214698"
     inkscape:window-x="1108"
     inkscape:window-y="334"
     inkscape:window-maximized="0"
     inkscape:current-layer="svg2" />
  <path
     style="fill:#87786a;stroke-width:0.31999999;fill-opacity:1"
     d="M 12.64,31.039829 C 10.866435,30.486669 8.1949014,28.651451 7.135856,27.25874 3.9902138,23.122027 4.7588656,17.228501 8.8824413,13.867053 13.193357,10.352889 20.063646,10.847554 23.657949,14.930898 c 3.506374,3.98345 3.364095,9.597534 -0.337029,13.298658 -2.085326,2.085326 -3.959781,2.871634 -7.16092,3.003908 -1.408,0.05818 -2.992,-0.02896 -3.52,-0.193635 z"
     id="path44" />
  <path
     style="fill:#87786a;stroke-width:0.31999999;fill-opacity:1"
     d="M 18.639389,30.081629 C 23.169142,28.682531 26.193866,24.077853 25.275374,19.97936 24.221187,15.275365 20.562871,12.376842 15.68,12.376842 c -8.9861379,0 -13.0216436,10.201039 -6.3086406,15.94712 1.3732306,1.175434 4.4237076,2.346428 6.1949336,2.378065 0.553461,0.0099 1.936354,-0.269294 3.073096,-0.620398 z"
     id="path42" />
  <path
     style="fill:#87786a;stroke-width:0.31999999;fill-opacity:1"
     d="M 2.9812214,14.113592 C 1.409971,13.38206 0.64,12.10813 0.64,10.24 0.64,6.7446064 3.9723798,4.7101248 7.0202675,6.3447248 9.1131206,7.4671341 9.8932787,10.350271 8.654081,12.382613 7.3760182,14.478696 5.1949098,15.144225 2.9812214,14.113592 Z"
     id="path40" />
  <path
     style="fill:#87786a;stroke-width:0.31999999;fill-opacity:1"
     d="M 6.8756227,13.066272 C 9.2819459,11.173458 8.7561894,7.6560269 5.9273994,6.7224419 4.0595827,6.106007 1.7820711,7.5040627 1.4082856,9.496511 c -0.58006762,3.092026 3.0562872,5.466293 5.4673371,3.569761 z"
     id="path38" />
  <path
     style="fill:#87786a;stroke-width:0.31999999;fill-opacity:1"
     d="M 25.061221,14.113592 C 23.429597,13.353952 22.72,12.100819 22.72,9.9790461 c 0,-4.2911472 5.720421,-5.8274823 7.994956,-2.1472074 2.302692,3.7258333 -1.667881,8.1374583 -5.653735,6.2817533 z"
     id="path36" />
  <path
     style="fill:#87786a;stroke-width:0.31999999;fill-opacity:1"
     d="M 29.293138,12.690862 C 30.781167,11.202833 30.951954,10.253207 30.03134,8.5862323 28.982003,6.6861757 27.393444,6.0712698 25.610821,6.8751203 22.7961,8.1443827 22.687455,12.330891 25.44,13.457486 c 1.452037,0.594307 2.750563,0.335951 3.853138,-0.766624 z"
     id="path34" />
  <path
     style="fill:#87786a;stroke-width:0.31999999;fill-opacity:1"
     d="m 13.500744,8.9517968 c -0.582591,-0.3551958 -1.266591,-1.1420323 -1.52,-1.7485258 -1.356053,-3.2454918 0.628131,-6.23938028 4.136903,-6.24207481 1.383459,-0.001062 1.696576,0.13773291 2.8,1.24115671 0.533491,0.5334908 0.70363,0.9178498 0.878175,1.2906181 C 19.998941,3.9267636 20.16,4.3628707 20.16,5.28 c 0,0.8348424 -0.139746,1.2962905 -0.296738,1.7026085 -0.163678,0.4236231 -0.356424,0.7858458 -0.945615,1.3750385 -1.103424,1.1034237 -1.416541,1.2422192 -2.8,1.2411568 -0.997322,-7.68e-4 -1.938688,-0.2335107 -2.616903,-0.647007 z"
     id="path32" />
  <path
     style="fill:#87786a;stroke-width:0.31999999;fill-opacity:1"
     d="M 17.446911,8.4552726 C 18.48203,7.9640765 19.52,6.3849517 19.52,5.3013606 c 0,-1.1411929 -0.94865,-2.719056 -1.944323,-3.2339386 -3.528334,-1.82457229 -6.900025,2.719385 -4.225369,5.694441 1.11529,1.240552 2.462897,1.4686541 4.096603,0.6934096 z"
     id="path12" />
</svg>
