<?xml version="1.0" encoding="UTF-8" standalone="no"?>
<svg
   xmlns:dc="http://purl.org/dc/elements/1.1/"
   xmlns:cc="http://creativecommons.org/ns#"
   xmlns:rdf="http://www.w3.org/1999/02/22-rdf-syntax-ns#"
   xmlns:svg="http://www.w3.org/2000/svg"
   xmlns="http://www.w3.org/2000/svg"
   xmlns:sodipodi="http://sodipodi.sourceforge.net/DTD/sodipodi-0.dtd"
   xmlns:inkscape="http://www.inkscape.org/namespaces/inkscape"
   inkscape:version="1.0 (4035a4fb49, 2020-05-01)"
   sodipodi:docname="shadow.svg"
   viewBox="0 0 107.92276 153.50465"
   height="153.50465"
   width="107.92276"
   id="svg2"
   version="1.1">
  <metadata
     id="metadata8">
    <rdf:RDF>
      <cc:Work
         rdf:about="">
        <dc:format>image/svg+xml</dc:format>
        <dc:type
           rdf:resource="http://purl.org/dc/dcmitype/StillImage" />
        <dc:title></dc:title>
      </cc:Work>
    </rdf:RDF>
  </metadata>
  <defs
     id="defs6" />
  <sodipodi:namedview
     fit-margin-bottom="0"
     fit-margin-right="0"
     fit-margin-left="0"
     fit-margin-top="0"
     inkscape:document-rotation="0"
     inkscape:current-layer="svg2"
     inkscape:window-maximized="0"
     inkscape:window-y="334"
     inkscape:window-x="1108"
     inkscape:cy="-305.59143"
     inkscape:cx="-325.41046"
     inkscape:zoom="0.61245673"
     showgrid="false"
     id="namedview4"
     inkscape:window-height="1318"
     inkscape:window-width="2504"
     inkscape:pageshadow="2"
     inkscape:pageopacity="0"
     guidetolerance="10"
     gridtolerance="10"
     objecttolerance="10"
     borderopacity="1"
     bordercolor="#666666"
     pagecolor="#ffffff" />
  <path
     id="path821"
     d="M 45.789319,153.2174 C 31.781249,150.775 19.542519,143.73799 11.142209,133.29605 0.56596924,120.14933 -2.6585308,102.98631 2.2314092,85.86667 4.1385892,79.18964 7.5607692,71.6778 13.063189,62.09041 29.404299,33.61775 47.442839,2.71671 48.153899,1.97807 49.733439,0.33726 50.742499,0 54.072219,0 c 3.36689,0 4.24534,0.30365 5.91344,2.04407 0.57762,0.60266 8.96289,14.87555 20.41899,34.75593 10.69139,18.55334 19.750911,34.22601 20.132271,34.82817 1.19638,1.88903 3.42632,7.03098 4.61881,10.65031 3.80217,11.54011 3.68252,24.28545 -0.33788,35.98819 -1.90334,5.54031 -5.386831,11.83853 -9.070701,16.4 -1.89644,2.34823 -6.20037,6.56525 -8.47492,8.30378 -6.12279,4.67988 -13.22127,7.97325 -21.0166,9.75073 -2.76269,0.62995 -3.55552,0.68647 -10.71674,0.76402 -5.54151,0.06 -8.30479,-0.0159 -9.74957,-0.2678 z"
     style="fill:#87786a;fill-opacity:1;stroke-width:0.266667" />
</svg>
