<?xml version="1.0" encoding="UTF-8" standalone="no"?>
<svg
   xmlns:dc="http://purl.org/dc/elements/1.1/"
   xmlns:cc="http://creativecommons.org/ns#"
   xmlns:rdf="http://www.w3.org/1999/02/22-rdf-syntax-ns#"
   xmlns:svg="http://www.w3.org/2000/svg"
   xmlns="http://www.w3.org/2000/svg"
   xmlns:sodipodi="http://sodipodi.sourceforge.net/DTD/sodipodi-0.dtd"
   xmlns:inkscape="http://www.inkscape.org/namespaces/inkscape"
   inkscape:version="1.0 (4035a4fb49, 2020-05-01)"
   sodipodi:docname="fossile-square.svg"
   id="svg35"
   version="1.1"
   fill="none"
   viewBox="0 0 202 206"
   height="206"
   width="202">
  <metadata
     id="metadata39">
    <rdf:RDF>
      <cc:Work
         rdf:about="">
        <dc:format>image/svg+xml</dc:format>
        <dc:type
           rdf:resource="http://purl.org/dc/dcmitype/StillImage" />
        <dc:title></dc:title>
      </cc:Work>
    </rdf:RDF>
  </metadata>
  <sodipodi:namedview
     inkscape:current-layer="svg35"
     inkscape:window-maximized="0"
     inkscape:window-y="334"
     inkscape:window-x="1108"
     inkscape:cy="103"
     inkscape:cx="7.5292517"
     inkscape:zoom="3.5679612"
     showgrid="false"
     id="namedview37"
     inkscape:window-height="1318"
     inkscape:window-width="2504"
     inkscape:pageshadow="2"
     inkscape:pageopacity="0"
     guidetolerance="10"
     gridtolerance="10"
     objecttolerance="10"
     borderopacity="1"
     bordercolor="#666666"
     pagecolor="#ffffff" />
  <g
     id="g28"
     clip-path="url(#clip0)">
    <rect
       id="rect2"
       fill="white"
       height="206"
       width="202" />
    <circle
       id="circle4"
       fill="#FDEFCB"
       r="145"
       cy="98"
       cx="101" />
    <circle
       id="circle6"
       fill="#CA9C63"
       r="145"
       cy="99.2827"
       cx="101.218" />
    <ellipse
       id="ellipse8"
       fill="#CA9C63"
       ry="145"
       rx="152.631"
       cy="99.2827"
       cx="100.849" />
    <path
       id="path10"
       fill="#DAB481"
       d="M127.341 245.45C118.58 247.125 109.554 248 100.333 248C60.7724 248 24.7907 231.897 -2 205.588C52.7258 195.451 82.2331 201.116 127.341 245.45Z"
       clip-rule="evenodd"
       fill-rule="evenodd" />
    <path
       id="path12"
       fill="#DAB481"
       d="M-41.9482 122.407C-28.8694 127.22 -13.3984 127.088 14.2179 126.783C77.3798 134.649 116.045 156.509 188.718 214.783L188.76 214.884C180.58 221.088 171.721 226.444 162.315 230.821L162.218 230.783C108.904 174.961 63.8433 163.649 -29.6476 161.804C-35.523 149.529 -39.7221 136.297 -41.9482 122.407Z"
       clip-rule="evenodd"
       fill-rule="evenodd" />
    <path
       id="path14"
       fill="#DAB481"
       d="M125.64 82.0723C128.264 81.8817 130.94 82.2156 133.436 83.0486C191.743 102.509 230.016 116.334 249.722 108.327C252.952 107.015 255.136 104.115 256.585 100.944L271.641 68.0043C271.707 67.8583 271.742 67.6996 271.742 67.5391V67.5391C271.742 66.7206 270.891 66.1791 270.146 66.5175C254.183 73.7667 242.854 75.8348 222.174 74.983C219.46 74.8712 216.803 74.1527 214.362 72.9601C179.613 55.9794 157.253 49.6621 113.848 48.2827C69.6669 43.0874 39.2996 42.4881 -34.8447 51.2503C-37.7233 51.5904 -40.668 51.0078 -43.1863 49.5724V49.5724C-50.6681 45.3077 -60.177 49.0333 -62.7703 57.2456L-63.3248 59.0016C-66.1582 67.974 -60.1296 77.3102 -50.7861 78.4197L-47.7295 78.7827C7.7497 91.2925 51.3918 87.4629 125.64 82.0723Z" />
    <path
       id="path16"
       fill="#FDEFCB"
       d="M29.4999 24L-29.5001 34.5C-32.5001 26 -38.1001 8.9 -36.5001 8.5C-34.5001 8 9.49994 -36 11.4999 -36.5C13.4999 -37 82.9999 -71.4999 82.4999 -74.4999C82.0999 -76.8999 165 -58.8333 206.5 -49.4999L239 42.0001C208.595 31.7487 191.451 26.8682 160.5 21.5C108.774 16.1789 80.1346 17.2247 29.4999 24Z" />
    <path
       id="path18"
       fill="#DAB481"
       d="M180.218 129.283C210.247 146.94 222.991 148.546 241.218 142.283L243.718 157.783L222.718 181.283C206.229 178.733 196.957 176.339 180.218 164.283V129.283Z" />
    <path
       id="path20"
       fill="#515483"
       d="M191.997 101.022L183.047 135.032C182.829 135.862 182.718 136.718 182.718 137.576V159.964C182.718 162.119 182.022 164.216 180.734 165.943L163.021 189.694C161.539 191.682 159.371 193.048 156.938 193.527L128.843 199.061C128.095 199.208 127.334 199.27 126.572 199.244L56.1768 196.866C54.5617 196.811 52.9839 196.366 51.5784 195.568L21.782 178.657C18.652 176.88 16.718 173.559 16.718 169.96V127.783L10.7565 85.5934C10.4099 83.1406 10.986 80.6465 12.3732 78.5942L44.856 30.5375C46.0648 28.7491 47.8198 27.3999 49.8588 26.6914L101.735 8.66661C104.282 7.78173 107.078 7.96267 109.489 9.16838L171.871 40.3591C174.327 41.5871 176.17 43.771 176.967 46.3986L191.895 95.5723C192.433 97.3444 192.468 99.231 191.997 101.022Z" />
    <path
       id="path22"
       fill="#FAF3DC"
       d="M118.218 168.783L113.718 157.783L107.718 169.283L99.218 170.283L107.718 175.783L109.718 185.783L116.218 176.783L127.218 174.283L118.218 168.783Z" />
    <path
       id="path24"
       fill="#FAF3DC"
       d="M31.218 99.7827C33.1945 124.645 37.0101 137.733 47.595 146.975C54.1173 152.67 64.157 154.386 70.5267 148.521C72.9588 146.282 75.243 143.412 77.8191 139.861C79.7553 137.192 81.6486 133.829 80.8082 130.64C80.147 128.132 78.1632 126.477 76.2438 124.732C68.5955 117.778 65.5998 111.445 64.2086 100.547C63.806 97.3941 63.9229 94.1804 64.5775 91.0698C68.2843 73.4562 75.6516 68.0014 88.668 64.2163C93.6076 62.7799 98.854 62.5793 103.886 63.6481C115.623 66.1409 122.087 70.2472 124.309 84.172C124.638 86.2297 124.697 88.3379 124.481 90.4105C123.472 100.084 120.142 104.348 113.171 107.203C109.04 108.895 104.392 109.027 100.111 107.762C96.5931 106.723 94.5029 105.503 93.1782 103.593C92.4203 102.5 92.2292 100.939 93.0506 99.8935C94.0438 98.6288 95.9251 99.3707 97.3493 100.117C98.524 100.733 99.6321 101.074 100.995 101.213C102.462 101.363 103.938 101.065 105.32 100.55C109.644 98.9398 112.415 97.1288 114.026 93.6315C116.253 88.7942 115.236 82.9776 112.594 78.3533C110.284 74.3097 107.255 72.0672 101.805 71.1665C99.4381 70.7754 97.0087 70.8937 94.6453 71.3067C80.2577 73.8211 75.5362 80.1728 73.5852 95.4785C73.3056 97.6719 73.2773 99.9022 73.4964 102.102C75.4394 121.609 82.2001 129.946 103.811 136.004C105.729 136.542 107.726 136.783 109.718 136.783C127.193 134.658 134.502 129.616 144.718 116.283C149.702 109.286 151.397 103.374 152.718 89.7827V87.2827C148.303 50.9231 137.825 38.0687 106.031 31.0744C103.508 30.5193 100.917 30.2827 98.3333 30.2827H95.218C77.1775 30.9229 68.011 34.6208 55.2044 44.4385C53.2024 45.9733 51.3862 47.7445 49.7702 49.6815C37.4541 64.4435 31.5125 74.8081 31.218 99.7827Z" />
    <path
       id="path26"
       fill="#FAF3DC"
       d="M141.718 145.783L127.218 155.283L142.218 165.783L145.718 179.783L159.718 166.783L170.218 168.783L168.718 151.283L172.218 138.783L157.718 139.783L146.218 131.283L141.718 145.783Z" />
  </g>
  <defs
     id="defs33">
    <clipPath
       id="clip0">
      <rect
         id="rect30"
         fill="white"
         height="206"
         width="202" />
    </clipPath>
  </defs>
</svg>
