<svg width="205" height="206" viewBox="0 0 205 206" fill="none" xmlns="http://www.w3.org/2000/svg">
<g clip-path="url(#clip0)">
<rect width="204.599" height="206" fill="white"/>
<path d="M93.2242 265.23C182.724 265.23 255.278 192.676 255.278 103.176C255.278 13.6763 182.724 -58.8777 93.2242 -58.8777C3.7242 -58.8777 -68.8299 13.6763 -68.8299 103.176C-68.8299 192.676 3.7242 265.23 93.2242 265.23Z" fill="#FBF4CF" stroke="#E6E4D8" stroke-width="22.4629"/>
<mask id="mask0" mask-type="alpha" maskUnits="userSpaceOnUse" x="-58" y="-48" width="303" height="302">
<circle cx="93.2242" cy="103.176" r="150.823" fill="#C4C4C4"/>
</mask>
<g mask="url(#mask0)">
</g>
<mask id="mask1" mask-type="alpha" maskUnits="userSpaceOnUse" x="-58" y="-48" width="303" height="302">
<circle cx="93.2242" cy="103.176" r="150.823" fill="#C4C4C4"/>
</mask>
<g mask="url(#mask1)">
<path d="M43.3766 73.7713C-28.273 80.8245 -58.199 116.865 -64.2058 134.003L-83.0084 225.652L-30.6131 298.592L193.534 282.219L291.67 154.936C304.18 164.244 321.852 175.679 292.465 146.953C263.077 118.227 217.408 96.4792 198.246 89.196C176.477 81.1156 115.026 66.718 43.3766 73.7713Z" fill="#DDBE88"/>
<mask id="mask2" mask-type="alpha" maskUnits="userSpaceOnUse" x="38" y="67" width="20" height="21">
<circle cx="48.2993" cy="77.5044" r="9.62697" fill="#C8A97B"/>
</mask>
<g mask="url(#mask2)">
<path d="M43.3766 73.7713C-28.273 80.8245 -58.199 116.865 -64.2058 134.003L-83.0084 225.652L-30.6131 298.592L193.534 282.219L291.67 154.936C304.18 164.244 321.852 175.679 292.465 146.953C263.077 118.227 217.408 96.4792 198.246 89.196C176.477 81.1156 115.026 66.718 43.3766 73.7713Z" fill="#C8A97B"/>
</g>
<circle cx="35.4622" cy="125.639" r="9.62697" fill="#C8A97B"/>
<path d="M21.0218 199.446L3.37231 159.334L57.9252 167.356L62.7386 194.633L21.0218 199.446Z" fill="#445050"/>
<path d="M104.456 130.453L57.9253 167.357L62.7388 194.633H98.0377L115.687 180.192L104.456 130.453Z" fill="#5A6D6B"/>
<path d="M41.8802 124.035C29.5791 135.266 4.65591 158.05 3.37231 159.334L57.9252 167.356L104.456 130.453L41.8802 124.035Z" fill="#7C8C8B"/>
<path d="M146.172 116.012L167.03 93.5491" stroke="#D6413A" stroke-width="12.836"/>
<path d="M167.809 64.6682L171.212 61.2646L167.809 57.8609L164.405 61.2645L167.809 64.6682ZM197.307 94.1665L200.711 97.5701L204.114 94.1665L200.711 90.7628L197.307 94.1665ZM171.212 68.072C171.212 68.0719 171.212 68.0719 171.212 68.0719L164.405 61.2645C164.405 61.2646 164.405 61.2646 164.405 61.2647L171.212 68.072ZM172.347 89.6284C165.819 83.1008 165.824 73.4599 171.212 68.072L164.405 61.2647C154.755 70.915 155.776 86.6718 165.54 96.4357L172.347 89.6284ZM193.903 90.7629C188.515 96.1509 178.875 96.156 172.347 89.6284L165.54 96.4357C175.304 106.2 191.06 107.221 200.711 97.5702L193.903 90.7629ZM193.903 90.7628C193.903 90.7629 193.903 90.7629 193.903 90.7629C193.903 90.7629 193.903 90.7629 193.903 90.7629C193.903 90.7629 193.903 90.7629 193.903 90.7629C193.903 90.7629 193.903 90.7629 193.903 90.7629C193.903 90.7629 193.903 90.7629 193.903 90.7629C193.903 90.7629 193.903 90.7629 193.903 90.7629C193.903 90.7629 193.903 90.7629 193.903 90.7629C193.903 90.7629 193.903 90.7629 193.903 90.7629C193.903 90.7629 193.903 90.7629 193.903 90.7629C193.903 90.7629 193.903 90.7629 193.903 90.7629C193.903 90.7629 193.903 90.7629 193.903 90.7629C193.903 90.7629 193.903 90.7629 193.903 90.7629C193.903 90.7629 193.903 90.7629 193.903 90.7629C193.903 90.7629 193.903 90.7629 193.903 90.7629C193.903 90.7629 193.903 90.7629 193.903 90.7629C193.903 90.7629 193.903 90.7629 193.903 90.7629C193.903 90.7629 193.903 90.7629 193.903 90.7629C193.903 90.7629 193.903 90.7629 193.903 90.7629C193.903 90.7629 193.903 90.7629 193.903 90.7629C193.903 90.7629 193.903 90.7629 193.903 90.7629C193.903 90.7629 193.903 90.7629 193.903 90.7629C193.903 90.7629 193.903 90.7629 193.903 90.7629C193.903 90.7629 193.903 90.7629 193.903 90.7629C193.903 90.7629 193.903 90.7629 193.903 90.7629C193.903 90.7629 193.903 90.7629 193.903 90.7629C193.903 90.7629 193.903 90.7629 193.903 90.7629C193.903 90.7629 193.903 90.7629 193.903 90.7629C193.903 90.7629 193.903 90.7629 193.903 90.7629C193.903 90.7629 193.903 90.7629 193.903 90.7629C193.903 90.7629 193.903 90.7629 193.903 90.7629C193.903 90.7629 193.903 90.7629 193.903 90.7629C193.903 90.7629 193.903 90.7629 193.903 90.7629C193.903 90.7629 193.903 90.7629 193.903 90.7629C193.903 90.7629 193.903 90.7629 193.903 90.7629C193.903 90.7629 193.903 90.7629 193.903 90.7629C193.903 90.7629 193.903 90.7629 193.903 90.7629C193.903 90.7629 193.903 90.7629 193.903 90.7629C193.903 90.7629 193.903 90.7629 193.903 90.7629C193.903 90.7629 193.903 90.7629 193.903 90.7629C193.903 90.7629 193.903 90.7629 193.903 90.7629C193.903 90.7629 193.903 90.7629 193.903 90.7629C193.903 90.7629 193.903 90.7629 193.903 90.7629C193.903 90.7629 193.903 90.7629 193.903 90.7629C193.903 90.7629 193.903 90.7629 193.903 90.7629C193.903 90.7629 193.903 90.7629 193.903 90.7629C193.903 90.7629 193.903 90.7629 193.903 90.7629C193.903 90.7629 193.903 90.7629 193.903 90.7629C193.903 90.7629 193.903 90.7629 193.903 90.7629C193.903 90.7629 193.903 90.7629 193.903 90.7629C193.903 90.7629 193.903 90.7629 193.903 90.7629C193.903 90.7629 193.903 90.7629 193.903 90.7629C193.903 90.7629 193.903 90.7629 193.903 90.7629C193.903 90.7629 193.903 90.7629 193.903 90.7629C193.903 90.7629 193.903 90.7629 193.903 90.7629C193.903 90.7629 193.903 90.7629 193.903 90.7629C193.903 90.7629 193.903 90.7629 193.903 90.7629C193.903 90.7629 193.903 90.7629 193.903 90.7629C193.903 90.7629 193.903 90.7629 193.903 90.7629C193.903 90.7629 193.903 90.7629 193.903 90.7629C193.903 90.7629 193.903 90.7629 193.903 90.7629C193.903 90.7629 193.903 90.7629 193.903 90.7629C193.903 90.7629 193.903 90.7629 193.903 90.7629C193.903 90.7629 193.903 90.7629 193.903 90.7629C193.903 90.7629 193.903 90.7629 193.903 90.7629C193.903 90.7629 193.903 90.7629 193.903 90.7629C193.903 90.7629 193.903 90.7629 193.903 90.7629C193.903 90.7629 193.903 90.7629 193.903 90.7629C193.903 90.7629 193.903 90.7629 193.903 90.7629C193.903 90.7629 193.903 90.7629 193.903 90.7629C193.903 90.7629 193.903 90.7629 193.903 90.7629C193.903 90.7629 193.903 90.7629 193.903 90.7629C193.903 90.7629 193.903 90.7629 193.903 90.7629C193.903 90.7629 193.903 90.7629 193.903 90.7629C193.903 90.7629 193.903 90.7629 193.903 90.7629C193.903 90.7629 193.903 90.7629 193.903 90.7629C193.903 90.7629 193.903 90.7629 193.903 90.7629C193.903 90.7629 193.903 90.7629 193.903 90.7629C193.903 90.7629 193.903 90.7629 193.903 90.7629C193.903 90.7629 193.903 90.7629 193.903 90.7629C193.903 90.7629 193.903 90.7629 193.903 90.7629C193.903 90.7629 193.903 90.7629 193.903 90.7629C193.903 90.7629 193.903 90.7629 193.903 90.7629C193.903 90.7629 193.903 90.7629 193.903 90.7629C193.903 90.7629 193.903 90.7629 193.903 90.7629C193.903 90.7629 193.903 90.7629 193.903 90.7629C193.903 90.7629 193.903 90.7629 193.903 90.7629C193.903 90.7629 193.903 90.7629 193.903 90.7629C193.903 90.7629 193.903 90.7629 193.903 90.7629C193.903 90.7629 193.903 90.7629 193.903 90.7629C193.903 90.7629 193.903 90.7629 193.903 90.7629C193.903 90.7629 193.903 90.7629 193.903 90.7629C193.903 90.7629 193.903 90.7629 193.903 90.7629C193.903 90.7629 193.903 90.7629 193.903 90.7629C193.903 90.7629 193.903 90.7629 193.903 90.7629C193.903 90.7629 193.903 90.7629 193.903 90.7629C193.903 90.7629 193.903 90.7629 193.903 90.7629C193.903 90.7629 193.903 90.7629 193.903 90.7629C193.903 90.7629 193.903 90.7629 193.903 90.7629C193.903 90.7629 193.903 90.7629 193.903 90.7629C193.903 90.7629 193.903 90.7629 193.903 90.7629C193.903 90.7629 193.903 90.7629 193.903 90.7629C193.903 90.7629 193.903 90.7629 193.903 90.7629C193.903 90.7629 193.903 90.7629 193.903 90.7629C193.903 90.7629 193.903 90.7629 193.903 90.7629C193.903 90.7629 193.903 90.7629 193.903 90.7629C193.903 90.7629 193.903 90.7629 193.903 90.7629C193.903 90.7629 193.903 90.7629 193.903 90.7629C193.903 90.7629 193.903 90.7629 193.903 90.7629C193.903 90.7629 193.903 90.7629 193.903 90.7629C193.903 90.7629 193.903 90.7629 193.903 90.7629C193.903 90.7629 193.903 90.7629 193.903 90.7629C193.903 90.7629 193.903 90.7629 193.903 90.7629C193.903 90.7629 193.903 90.7629 193.903 90.7629C193.903 90.7629 193.903 90.7629 193.903 90.7629C193.903 90.7629 193.903 90.7629 193.903 90.7629C193.903 90.7629 193.903 90.7629 193.903 90.7629C193.903 90.7629 193.903 90.7629 193.903 90.7629C193.903 90.7629 193.903 90.7629 193.903 90.7629C193.903 90.7629 193.903 90.7629 193.903 90.7629C193.903 90.7629 193.903 90.7629 193.903 90.7629C193.903 90.7629 193.903 90.7629 193.903 90.7629C193.903 90.7629 193.903 90.7629 193.903 90.7629C193.903 90.7629 193.903 90.7629 193.903 90.7629C193.903 90.7629 193.903 90.7629 193.903 90.7629C193.903 90.7629 193.903 90.7629 193.903 90.7629C193.903 90.7629 193.903 90.7629 193.903 90.7629C193.903 90.7629 193.903 90.7629 193.903 90.7629C193.903 90.7629 193.903 90.7629 193.903 90.7629C193.903 90.7629 193.903 90.7629 193.903 90.7629C193.903 90.7629 193.903 90.7629 193.903 90.7629C193.903 90.7629 193.903 90.7629 193.903 90.7629C193.903 90.7629 193.903 90.7629 193.903 90.7629C193.903 90.7629 193.903 90.7629 193.903 90.7629C193.903 90.7629 193.903 90.7629 193.903 90.7629C193.903 90.7629 193.903 90.7629 193.903 90.7629C193.903 90.7629 193.903 90.7629 193.903 90.7629C193.903 90.7629 193.903 90.7629 193.903 90.7629C193.903 90.7629 193.903 90.7629 193.903 90.7629C193.903 90.7629 193.903 90.7629 193.903 90.7629C193.903 90.7629 193.903 90.7629 193.903 90.7629C193.903 90.7629 193.903 90.7629 193.903 90.7629C193.903 90.7629 193.903 90.7629 193.903 90.7629C193.903 90.7629 193.903 90.7629 193.903 90.7629C193.903 90.7629 193.903 90.7629 193.903 90.7629C193.903 90.7629 193.903 90.7629 193.903 90.7629C193.903 90.7629 193.903 90.7629 193.903 90.7629C193.903 90.7629 193.903 90.7629 193.903 90.7629C193.903 90.7629 193.903 90.7629 193.903 90.7629C193.903 90.7629 193.903 90.7629 193.903 90.7629C193.903 90.7629 193.903 90.7629 193.903 90.7629C193.903 90.7629 193.903 90.7629 193.903 90.7629C193.903 90.7629 193.903 90.7629 193.903 90.7629C193.903 90.7629 193.903 90.7629 193.903 90.7629C193.903 90.7629 193.903 90.7629 193.903 90.7629C193.903 90.7629 193.903 90.7629 193.903 90.7629C193.903 90.7629 193.903 90.7629 193.903 90.7629C193.903 90.7629 193.903 90.7629 193.903 90.7629C193.903 90.7629 193.903 90.7629 193.903 90.7629C193.903 90.7629 193.903 90.7629 193.903 90.7629C193.903 90.7629 193.903 90.7629 193.903 90.7629C193.903 90.7629 193.903 90.7629 193.903 90.7629C193.903 90.7629 193.903 90.7629 193.903 90.7629C193.903 90.7629 193.903 90.7629 193.903 90.7629C193.903 90.7629 193.903 90.7629 193.903 90.7629C193.903 90.7629 193.903 90.7629 193.903 90.7629C193.903 90.7629 193.903 90.7629 193.903 90.7629C193.903 90.7629 193.903 90.7629 193.903 90.7629C193.903 90.7629 193.903 90.7629 193.903 90.7629C193.903 90.7629 193.903 90.7629 193.903 90.7629C193.903 90.7629 193.903 90.7629 193.903 90.7629C193.903 90.7629 193.903 90.7629 193.903 90.7629C193.903 90.7629 193.903 90.7629 193.903 90.7629C193.903 90.7629 193.903 90.7629 193.903 90.7629C193.903 90.7629 193.903 90.7629 193.903 90.7629C193.903 90.7629 193.903 90.7629 193.903 90.7629C193.903 90.7629 193.903 90.7629 193.903 90.7629C193.903 90.7629 193.903 90.7629 193.903 90.7629C193.903 90.7629 193.903 90.7629 193.903 90.7629C193.903 90.7629 193.903 90.7629 193.903 90.7629C193.903 90.7629 193.903 90.7629 193.903 90.7629C193.903 90.7629 193.903 90.7629 193.903 90.7629C193.903 90.7629 193.903 90.7629 193.903 90.7629C193.903 90.7629 193.903 90.7629 193.903 90.7629C193.903 90.7629 193.903 90.7629 193.903 90.7629C193.903 90.7629 193.903 90.7629 193.903 90.7629C193.903 90.7629 193.903 90.7629 193.903 90.7629C193.903 90.7629 193.903 90.7629 193.903 90.7629C193.903 90.7629 193.903 90.7629 193.903 90.7629C193.903 90.7629 193.903 90.7629 193.903 90.7629C193.903 90.7629 193.903 90.7629 193.903 90.7629C193.903 90.7629 193.903 90.7629 193.903 90.7629C193.903 90.7629 193.903 90.7629 193.903 90.7629C193.903 90.7629 193.903 90.7629 193.903 90.7629C193.903 90.7629 193.903 90.7629 193.903 90.7629C193.903 90.7629 193.903 90.7629 193.903 90.7629C193.903 90.7629 193.903 90.7629 193.903 90.7629C193.903 90.7629 193.903 90.7629 193.903 90.7629C193.903 90.7629 193.903 90.7629 193.903 90.7629C193.903 90.7629 193.903 90.7629 193.903 90.7629C193.903 90.7629 193.903 90.7629 193.903 90.7629C193.903 90.7629 193.903 90.7629 193.903 90.7629C193.903 90.7629 193.903 90.7629 193.903 90.7629C193.903 90.7629 193.903 90.7629 193.903 90.7629C193.903 90.7629 193.903 90.7629 193.903 90.7629C193.903 90.7629 193.903 90.7629 193.903 90.7629C193.903 90.7629 193.903 90.7629 193.903 90.7629C193.903 90.7629 193.903 90.7629 193.903 90.7629C193.903 90.7629 193.903 90.7629 193.903 90.7629C193.903 90.7629 193.903 90.7629 193.903 90.7629C193.903 90.7629 193.903 90.7629 193.903 90.7629C193.903 90.7629 193.903 90.7629 193.903 90.7629C193.903 90.7629 193.903 90.7629 193.903 90.7629C193.903 90.7629 193.903 90.7629 193.903 90.7629C193.903 90.7629 193.903 90.7629 193.903 90.7629C193.903 90.7629 193.903 90.7629 193.903 90.7629C193.903 90.7629 193.903 90.7629 193.903 90.7629C193.903 90.7629 193.903 90.7629 193.903 90.7629C193.903 90.7629 193.903 90.7629 193.903 90.7629C193.903 90.7629 193.903 90.7629 193.903 90.7629C193.903 90.7629 193.903 90.7629 193.903 90.7629C193.903 90.7629 193.903 90.7629 193.903 90.7629C193.903 90.7629 193.903 90.7629 193.903 90.7629C193.903 90.7629 193.903 90.7629 193.903 90.7629C193.903 90.7629 193.903 90.7629 193.903 90.7629C193.903 90.7629 193.903 90.7629 193.903 90.7629C193.903 90.7629 193.903 90.7629 193.903 90.7629C193.903 90.7629 193.903 90.7629 193.903 90.7629C193.903 90.7629 193.903 90.7629 193.903 90.7629C193.903 90.7629 193.903 90.7629 193.903 90.7629C193.903 90.7629 193.903 90.7629 193.903 90.7629C193.903 90.7629 193.903 90.7629 193.903 90.7629C193.903 90.7629 193.903 90.7629 193.903 90.7629C193.903 90.7629 193.903 90.7629 193.903 90.7629C193.903 90.7629 193.903 90.7629 193.903 90.7629C193.903 90.7629 193.903 90.7629 193.903 90.7629C193.903 90.7629 193.903 90.7629 193.903 90.7629C193.903 90.7629 193.903 90.7629 193.903 90.7629C193.903 90.7629 193.903 90.7629 193.903 90.7629C193.903 90.7629 193.903 90.7629 193.903 90.7629C193.903 90.7629 193.903 90.7629 193.903 90.7629C193.903 90.7629 193.903 90.7629 193.903 90.7629C193.903 90.7629 193.903 90.7629 193.903 90.7629C193.903 90.7629 193.903 90.7629 193.903 90.7629C193.903 90.7629 193.903 90.7629 193.903 90.7629C193.903 90.7629 193.903 90.7629 193.903 90.7629C193.903 90.7629 193.903 90.7629 193.903 90.7629C193.903 90.7629 193.903 90.7629 193.903 90.7629C193.903 90.7629 193.903 90.7629 193.903 90.7629C193.903 90.7629 193.903 90.7629 193.903 90.7629C193.903 90.7629 193.903 90.7629 193.903 90.7629C193.903 90.7629 193.903 90.7629 193.903 90.7629C193.903 90.7629 193.903 90.7629 193.903 90.7629C193.903 90.7629 193.903 90.7629 193.903 90.7629C193.903 90.7629 193.903 90.7629 193.903 90.7629C193.903 90.7629 193.903 90.7629 193.903 90.7629C193.903 90.7629 193.903 90.7629 193.903 90.7629C193.903 90.7629 193.903 90.7629 193.903 90.7629C193.903 90.7629 193.903 90.7629 193.903 90.7629C193.903 90.7629 193.903 90.7629 193.903 90.7629C193.903 90.7629 193.903 90.7629 193.903 90.7629C193.903 90.7629 193.903 90.7629 193.903 90.7629C193.903 90.7629 193.903 90.7629 193.903 90.7629C193.903 90.7629 193.903 90.7629 193.903 90.7629C193.903 90.7629 193.903 90.7629 193.903 90.7629C193.903 90.7629 193.903 90.7629 193.903 90.7629C193.903 90.7629 193.903 90.7629 193.903 90.7629C193.903 90.7629 193.903 90.7629 193.903 90.7629C193.903 90.7629 193.903 90.7629 193.903 90.7629C193.903 90.7629 193.903 90.7629 193.903 90.7629C193.903 90.7629 193.903 90.7629 193.903 90.7629C193.903 90.7629 193.903 90.7629 193.903 90.7629C193.903 90.7629 193.903 90.7629 193.903 90.7629C193.903 90.7629 193.903 90.7629 193.903 90.7629C193.903 90.7629 193.903 90.7629 193.903 90.7629C193.903 90.7629 193.903 90.7629 193.903 90.7629C193.903 90.7629 193.903 90.7629 193.903 90.7629C193.903 90.7629 193.903 90.7629 193.903 90.7629C193.903 90.7629 193.903 90.7629 193.903 90.7629C193.903 90.7629 193.903 90.7629 193.903 90.7629C193.903 90.7629 193.903 90.7629 193.903 90.7629C193.903 90.7629 193.903 90.7629 193.903 90.7629C193.903 90.7629 193.903 90.7629 193.903 90.7629C193.903 90.7629 193.903 90.7629 193.903 90.7629C193.903 90.7629 193.903 90.7629 193.903 90.7629C193.903 90.7629 193.903 90.7629 193.903 90.7629C193.903 90.7629 193.903 90.7629 193.903 90.7629C193.903 90.7629 193.903 90.7629 193.903 90.7629C193.903 90.7629 193.903 90.7629 193.903 90.7629C193.903 90.7629 193.903 90.7629 193.903 90.7629C193.903 90.7629 193.903 90.7629 193.903 90.7629C193.903 90.7629 193.903 90.7629 193.903 90.7629C193.903 90.7629 193.903 90.7629 193.903 90.7629C193.903 90.7629 193.903 90.7629 193.903 90.7629C193.903 90.7629 193.903 90.7629 193.903 90.7629C193.903 90.7629 193.903 90.7629 193.903 90.7629C193.903 90.7629 193.903 90.7629 193.903 90.7629C193.903 90.7629 193.903 90.7629 193.903 90.7629C193.903 90.7629 193.903 90.7629 193.903 90.7629C193.903 90.7629 193.903 90.7629 193.903 90.7629C193.903 90.7629 193.903 90.7629 193.903 90.7629C193.903 90.7629 193.903 90.7629 193.903 90.7629C193.903 90.7629 193.903 90.7629 193.903 90.7629C193.903 90.7629 193.903 90.7629 193.903 90.7629C193.903 90.7629 193.903 90.7629 193.903 90.7629C193.903 90.7629 193.903 90.7629 193.903 90.7629C193.903 90.7629 193.903 90.7629 193.903 90.7629C193.903 90.7629 193.903 90.7629 193.903 90.7629C193.903 90.7629 193.903 90.7629 193.903 90.7629C193.903 90.7629 193.903 90.7629 193.903 90.7629C193.903 90.7629 193.903 90.7629 193.903 90.7629C193.903 90.7629 193.903 90.7629 193.903 90.7629C193.903 90.7629 193.903 90.7629 193.903 90.7629C193.903 90.7629 193.903 90.7629 193.903 90.7629C193.903 90.7629 193.903 90.7629 193.903 90.7629C193.903 90.7629 193.903 90.7629 193.903 90.7629C193.903 90.7629 193.903 90.7629 193.903 90.7629C193.903 90.7629 193.903 90.7629 193.903 90.7629C193.903 90.7629 193.903 90.7629 193.903 90.7629C193.903 90.7629 193.903 90.7629 193.903 90.7629C193.903 90.7629 193.903 90.7629 193.903 90.7629C193.903 90.7629 193.903 90.7629 193.903 90.7629C193.903 90.7629 193.903 90.7629 193.903 90.7629C193.903 90.7629 193.903 90.7629 193.903 90.7629C193.903 90.7629 193.903 90.7629 193.903 90.7629C193.903 90.7629 193.903 90.7629 193.903 90.7629C193.903 90.7629 193.903 90.7629 193.903 90.7629C193.903 90.7629 193.903 90.7629 193.903 90.7629C193.903 90.7629 193.903 90.7629 193.903 90.7629C193.903 90.7629 193.903 90.7629 193.903 90.7629C193.903 90.7629 193.903 90.7629 193.903 90.7629C193.903 90.7629 193.903 90.7629 193.903 90.7629C193.903 90.7629 193.903 90.7629 193.903 90.7629C193.903 90.7629 193.903 90.7629 193.903 90.7629C193.903 90.7629 193.903 90.7629 193.903 90.7629C193.903 90.7629 193.903 90.7629 193.903 90.7629C193.903 90.7629 193.903 90.7629 193.903 90.7629C193.903 90.7629 193.903 90.7629 193.903 90.7629C193.903 90.7629 193.903 90.7629 193.903 90.7629C193.903 90.7629 193.903 90.7629 193.903 90.7629C193.903 90.7629 193.903 90.7629 193.903 90.7629C193.903 90.7629 193.903 90.7629 193.903 90.7629C193.903 90.7629 193.903 90.7629 193.903 90.7629C193.903 90.7629 193.903 90.7629 193.903 90.7629C193.903 90.7629 193.903 90.7629 193.903 90.7629C193.903 90.7629 193.903 90.7629 193.903 90.7629C193.903 90.7629 193.903 90.7629 193.903 90.7629C193.903 90.7629 193.903 90.7629 193.903 90.7629C193.903 90.7629 193.903 90.7629 193.903 90.7629C193.903 90.7629 193.903 90.7629 193.903 90.7629C193.903 90.7629 193.903 90.7629 193.903 90.7629C193.903 90.7629 193.903 90.7629 193.903 90.7629C193.903 90.7629 193.903 90.7629 193.903 90.7629C193.903 90.7629 193.903 90.7629 193.903 90.7629C193.903 90.7629 193.903 90.7629 193.903 90.7629C193.903 90.7629 193.903 90.7629 193.903 90.7629C193.903 90.7629 193.903 90.7629 193.903 90.7629C193.903 90.7629 193.903 90.7629 193.903 90.7629C193.903 90.7629 193.903 90.7629 193.903 90.7629C193.903 90.7629 193.903 90.7629 193.903 90.7629C193.903 90.7629 193.903 90.7629 193.903 90.7629C193.903 90.7629 193.903 90.7629 193.903 90.7629C193.903 90.7629 193.903 90.7629 193.903 90.7629C193.903 90.7629 193.903 90.7629 193.903 90.7629C193.903 90.7629 193.903 90.7629 193.903 90.7629C193.903 90.7629 193.903 90.7629 193.903 90.7629C193.903 90.7629 193.903 90.7629 193.903 90.7629C193.903 90.7629 193.903 90.7629 193.903 90.7629C193.903 90.7629 193.903 90.7629 193.903 90.7629C193.903 90.7629 193.903 90.7629 193.903 90.7629C193.903 90.7629 193.903 90.7629 193.903 90.7629C193.903 90.7629 193.903 90.7629 193.903 90.7629C193.903 90.7629 193.903 90.7629 193.903 90.7629C193.903 90.7629 193.903 90.7629 193.903 90.7629C193.903 90.7629 193.903 90.7629 193.903 90.7629C193.903 90.7629 193.903 90.7629 193.903 90.7629C193.903 90.7629 193.903 90.7629 193.903 90.7629C193.903 90.7629 193.903 90.7629 193.903 90.7629C193.903 90.7629 193.903 90.7629 193.903 90.7629C193.903 90.7629 193.903 90.7629 193.903 90.7629C193.903 90.7629 193.903 90.7629 193.903 90.7629C193.903 90.7629 193.903 90.7629 193.903 90.7629C193.903 90.7629 193.903 90.7629 193.903 90.7629C193.903 90.7629 193.903 90.7629 193.903 90.7629C193.903 90.7629 193.903 90.7629 193.903 90.7629C193.903 90.7629 193.903 90.7629 193.903 90.7629C193.903 90.7629 193.903 90.7629 193.903 90.7629C193.903 90.7629 193.903 90.7629 193.903 90.7629C193.903 90.7629 193.903 90.7629 193.903 90.7629C193.903 90.7629 193.903 90.7629 193.903 90.7629C193.903 90.7629 193.903 90.7629 193.903 90.7629C193.903 90.7629 193.903 90.7629 193.903 90.7629C193.903 90.7629 193.903 90.7629 193.903 90.7629C193.903 90.7629 193.903 90.7629 193.903 90.7629C193.903 90.7629 193.903 90.7629 193.903 90.7629C193.903 90.7629 193.903 90.7629 193.903 90.7629C193.903 90.7629 193.903 90.7629 193.903 90.7629C193.903 90.7629 193.903 90.7629 193.903 90.7629C193.903 90.7629 193.903 90.7629 193.903 90.7629C193.903 90.7629 193.903 90.7629 193.903 90.7629C193.903 90.7629 193.903 90.7629 193.903 90.7629C193.903 90.7629 193.903 90.7629 193.903 90.7629C193.903 90.7629 193.903 90.7629 193.903 90.7629C193.903 90.7629 193.903 90.7629 193.903 90.7629C193.903 90.7629 193.903 90.7629 193.903 90.7629C193.903 90.7629 193.903 90.7629 193.903 90.7629C193.903 90.7629 193.903 90.7629 193.903 90.7629C193.903 90.7629 193.903 90.7629 193.903 90.7629C193.903 90.7629 193.903 90.7629 193.903 90.7629C193.903 90.7629 193.903 90.7629 193.903 90.7629C193.903 90.7629 193.903 90.7629 193.903 90.7629C193.903 90.7629 193.903 90.7629 193.903 90.7629C193.903 90.7629 193.903 90.7629 193.903 90.7629C193.903 90.7629 193.903 90.7629 193.903 90.7629C193.903 90.7629 193.903 90.7629 193.903 90.7629C193.903 90.7629 193.903 90.7629 193.903 90.7629C193.903 90.7629 193.903 90.7629 193.903 90.7629C193.903 90.7629 193.903 90.7629 193.903 90.7629C193.903 90.7629 193.903 90.7629 193.903 90.7629C193.903 90.7629 193.903 90.7629 193.903 90.7629C193.903 90.7629 193.903 90.7629 193.903 90.7629C193.903 90.7629 193.903 90.7629 193.903 90.7629C193.903 90.7629 193.903 90.7629 193.903 90.7629C193.903 90.7629 193.903 90.7629 193.903 90.7629C193.903 90.7629 193.903 90.7629 193.903 90.7629C193.903 90.7629 193.903 90.7629 193.903 90.7629C193.903 90.7629 193.903 90.7629 193.903 90.7629C193.903 90.7629 193.903 90.7629 193.903 90.7629C193.903 90.7629 193.903 90.7629 193.903 90.7629C193.903 90.7629 193.903 90.7629 193.903 90.7629C193.903 90.7629 193.903 90.7629 193.903 90.7629C193.903 90.7629 193.903 90.7629 193.903 90.7629C193.903 90.7629 193.903 90.7629 193.903 90.7629C193.903 90.7629 193.903 90.7629 193.903 90.7629C193.903 90.7629 193.903 90.7629 193.903 90.7629C193.903 90.7629 193.903 90.7629 193.903 90.7629C193.903 90.7629 193.903 90.7629 193.903 90.7629C193.903 90.7629 193.903 90.7629 193.903 90.7629C193.903 90.7629 193.903 90.7629 193.903 90.7629C193.903 90.7629 193.903 90.7629 193.903 90.7629C193.903 90.7629 193.903 90.7629 193.903 90.7629C193.903 90.7629 193.903 90.7629 193.903 90.7629C193.903 90.7629 193.903 90.7629 193.903 90.7629C193.903 90.7629 193.903 90.7629 193.903 90.7629C193.903 90.7629 193.903 90.7629 193.903 90.7629C193.903 90.7629 193.903 90.7629 193.903 90.7629C193.903 90.7629 193.903 90.7629 193.903 90.7629C193.903 90.7629 193.903 90.7629 193.903 90.7629C193.903 90.7629 193.903 90.7629 193.903 90.7629C193.903 90.7629 193.903 90.7629 193.903 90.7629C193.903 90.7629 193.903 90.7629 193.903 90.7629C193.903 90.7629 193.903 90.7629 193.903 90.7629C193.903 90.7629 193.903 90.7629 193.903 90.7629C193.903 90.7629 193.903 90.7629 193.903 90.7629C193.903 90.7629 193.903 90.7629 193.903 90.7629C193.903 90.7629 193.903 90.7629 193.903 90.7629C193.903 90.7629 193.903 90.7629 193.903 90.7629C193.903 90.7629 193.903 90.7629 193.903 90.7629C193.903 90.7629 193.903 90.7629 193.903 90.7629C193.903 90.7629 193.903 90.7629 193.903 90.7629C193.903 90.7629 193.903 90.7629 193.903 90.7629C193.903 90.7629 193.903 90.7629 193.903 90.7629C193.903 90.7629 193.903 90.7629 193.903 90.7629C193.903 90.7629 193.903 90.7629 193.903 90.7629C193.903 90.7629 193.903 90.7629 193.903 90.7629C193.903 90.7629 193.903 90.7629 193.903 90.7629C193.903 90.7629 193.903 90.7629 193.903 90.7629C193.903 90.7629 193.903 90.7629 193.903 90.7629C193.903 90.7629 193.903 90.7629 193.903 90.7629C193.903 90.7629 193.903 90.7629 193.903 90.7629C193.903 90.7629 193.903 90.7629 193.903 90.7629C193.903 90.7629 193.903 90.7629 193.903 90.7629C193.903 90.7629 193.903 90.7629 193.903 90.7629C193.903 90.7629 193.903 90.7629 193.903 90.7629C193.903 90.7629 193.903 90.7629 193.903 90.7629C193.903 90.7629 193.903 90.7629 193.903 90.7629C193.903 90.7629 193.903 90.7629 193.903 90.7629C193.903 90.7629 193.903 90.7629 193.903 90.7629C193.903 90.7629 193.903 90.7629 193.903 90.7629C193.903 90.7629 193.903 90.7629 193.903 90.7629C193.903 90.7629 193.903 90.7629 193.903 90.7629C193.903 90.7629 193.903 90.7629 193.903 90.7629C193.903 90.7629 193.903 90.7629 193.903 90.7629C193.903 90.7629 193.903 90.7629 193.903 90.7629C193.903 90.7629 193.903 90.7629 193.903 90.7629C193.903 90.7629 193.903 90.7629 193.903 90.7629C193.903 90.7629 193.903 90.7629 193.903 90.7629C193.903 90.7629 193.903 90.7629 193.903 90.7629C193.903 90.7629 193.903 90.7629 193.903 90.7629C193.903 90.7629 193.903 90.7629 193.903 90.7629C193.903 90.7629 193.903 90.7629 193.903 90.7629C193.903 90.7629 193.903 90.7629 193.903 90.7629C193.903 90.7629 193.903 90.7629 193.903 90.7629C193.903 90.7629 193.903 90.7629 193.903 90.7629C193.903 90.7629 193.903 90.7629 193.903 90.7629C193.903 90.7629 193.903 90.7629 193.903 90.7629C193.903 90.7629 193.903 90.7629 193.903 90.7629C193.903 90.7629 193.903 90.7629 193.903 90.7629C193.903 90.7629 193.903 90.7629 193.903 90.7629C193.903 90.7629 193.903 90.7629 193.903 90.7629C193.903 90.7629 193.903 90.7629 193.903 90.7629C193.903 90.7629 193.903 90.7629 193.903 90.7629C193.903 90.7629 193.903 90.7629 193.903 90.7629C193.903 90.7629 193.903 90.7629 193.903 90.7629C193.903 90.7629 193.903 90.7629 193.903 90.7629C193.903 90.7629 193.903 90.7629 193.903 90.7629C193.903 90.7629 193.903 90.7629 193.903 90.7629C193.903 90.7629 193.903 90.7629 193.903 90.7629C193.903 90.7629 193.903 90.7629 193.903 90.7629C193.903 90.7629 193.903 90.7629 193.903 90.7629C193.903 90.7629 193.903 90.7629 193.903 90.7629C193.903 90.7629 193.903 90.7629 193.903 90.7629C193.903 90.7629 193.903 90.7629 193.903 90.7629L200.711 97.5702C200.711 97.5702 200.711 97.5702 200.711 97.5702C200.711 97.5702 200.711 97.5702 200.711 97.5702C200.711 97.5702 200.711 97.5702 200.711 97.5702C200.711 97.5702 200.711 97.5702 200.711 97.5702C200.711 97.5702 200.711 97.5702 200.711 97.5702C200.711 97.5702 200.711 97.5702 200.711 97.5702C200.711 97.5702 200.711 97.5702 200.711 97.5702C200.711 97.5702 200.711 97.5702 200.711 97.5702C200.711 97.5702 200.711 97.5702 200.711 97.5702C200.711 97.5702 200.711 97.5702 200.711 97.5702C200.711 97.5702 200.711 97.5702 200.711 97.5702C200.711 97.5702 200.711 97.5702 200.711 97.5702C200.711 97.5702 200.711 97.5702 200.711 97.5702C200.711 97.5702 200.711 97.5702 200.711 97.5702C200.711 97.5702 200.711 97.5702 200.711 97.5702C200.711 97.5702 200.711 97.5702 200.711 97.5702C200.711 97.5702 200.711 97.5702 200.711 97.5702C200.711 97.5702 200.711 97.5702 200.711 97.5702C200.711 97.5702 200.711 97.5702 200.711 97.5702C200.711 97.5702 200.711 97.5702 200.711 97.5702C200.711 97.5702 200.711 97.5702 200.711 97.5702C200.711 97.5702 200.711 97.5702 200.711 97.5702C200.711 97.5702 200.711 97.5702 200.711 97.5702C200.711 97.5702 200.711 97.5702 200.711 97.5702C200.711 97.5702 200.711 97.5702 200.711 97.5702C200.711 97.5702 200.711 97.5702 200.711 97.5702C200.711 97.5702 200.711 97.5702 200.711 97.5702C200.711 97.5702 200.711 97.5702 200.711 97.5702C200.711 97.5702 200.711 97.5702 200.711 97.5702C200.711 97.5702 200.711 97.5702 200.711 97.5702C200.711 97.5702 200.711 97.5702 200.711 97.5702C200.711 97.5702 200.711 97.5702 200.711 97.5702C200.711 97.5702 200.711 97.5702 200.711 97.5702C200.711 97.5702 200.711 97.5702 200.711 97.5702C200.711 97.5702 200.711 97.5702 200.711 97.5702C200.711 97.5702 200.711 97.5702 200.711 97.5702C200.711 97.5702 200.711 97.5702 200.711 97.5702C200.711 97.5702 200.711 97.5702 200.711 97.5702C200.711 97.5702 200.711 97.5702 200.711 97.5702C200.711 97.5702 200.711 97.5702 200.711 97.5702C200.711 97.5702 200.711 97.5702 200.711 97.5702C200.711 97.5702 200.711 97.5702 200.711 97.5702C200.711 97.5702 200.711 97.5702 200.711 97.5702C200.711 97.5702 200.711 97.5702 200.711 97.5702C200.711 97.5702 200.711 97.5702 200.711 97.5702C200.711 97.5702 200.711 97.5702 200.711 97.5702C200.711 97.5702 200.711 97.5702 200.711 97.5702C200.711 97.5702 200.711 97.5702 200.711 97.5702C200.711 97.5702 200.711 97.5702 200.711 97.5702C200.711 97.5702 200.711 97.5702 200.711 97.5702C200.711 97.5702 200.711 97.5702 200.711 97.5702C200.711 97.5702 200.711 97.5702 200.711 97.5702C200.711 97.5702 200.711 97.5702 200.711 97.5702C200.711 97.5702 200.711 97.5702 200.711 97.5702C200.711 97.5702 200.711 97.5702 200.711 97.5702C200.711 97.5702 200.711 97.5702 200.711 97.5702C200.711 97.5702 200.711 97.5702 200.711 97.5702C200.711 97.5702 200.711 97.5702 200.711 97.5702C200.711 97.5702 200.711 97.5702 200.711 97.5702C200.711 97.5702 200.711 97.5702 200.711 97.5702C200.711 97.5702 200.711 97.5702 200.711 97.5702C200.711 97.5702 200.711 97.5702 200.711 97.5702C200.711 97.5702 200.711 97.5702 200.711 97.5702C200.711 97.5702 200.711 97.5702 200.711 97.5702C200.711 97.5702 200.711 97.5702 200.711 97.5702C200.711 97.5702 200.711 97.5702 200.711 97.5702C200.711 97.5702 200.711 97.5702 200.711 97.5702C200.711 97.5702 200.711 97.5702 200.711 97.5702C200.711 97.5702 200.711 97.5702 200.711 97.5702C200.711 97.5702 200.711 97.5702 200.711 97.5702C200.711 97.5702 200.711 97.5702 200.711 97.5702C200.711 97.5702 200.711 97.5702 200.711 97.5702C200.711 97.5702 200.711 97.5702 200.711 97.5702C200.711 97.5702 200.711 97.5702 200.711 97.5702C200.711 97.5702 200.711 97.5702 200.711 97.5702C200.711 97.5702 200.711 97.5702 200.711 97.5702C200.711 97.5702 200.711 97.5702 200.711 97.5702C200.711 97.5702 200.711 97.5702 200.711 97.5702C200.711 97.5702 200.711 97.5702 200.711 97.5702C200.711 97.5702 200.711 97.5702 200.711 97.5702C200.711 97.5702 200.711 97.5702 200.711 97.5702C200.711 97.5702 200.711 97.5702 200.711 97.5702C200.711 97.5702 200.711 97.5702 200.711 97.5702C200.711 97.5702 200.711 97.5702 200.711 97.5702C200.711 97.5702 200.711 97.5702 200.711 97.5702C200.711 97.5702 200.711 97.5702 200.711 97.5702C200.711 97.5702 200.711 97.5702 200.711 97.5702C200.711 97.5702 200.711 97.5702 200.711 97.5702C200.711 97.5702 200.711 97.5702 200.711 97.5702C200.711 97.5702 200.711 97.5702 200.711 97.5702C200.711 97.5702 200.711 97.5702 200.711 97.5702C200.711 97.5702 200.711 97.5702 200.711 97.5702C200.711 97.5702 200.711 97.5702 200.711 97.5702C200.711 97.5702 200.711 97.5702 200.711 97.5702C200.711 97.5702 200.711 97.5702 200.711 97.5702C200.711 97.5702 200.711 97.5702 200.711 97.5702C200.711 97.5702 200.711 97.5702 200.711 97.5702C200.711 97.5702 200.711 97.5702 200.711 97.5702C200.711 97.5702 200.711 97.5702 200.711 97.5702C200.711 97.5702 200.711 97.5702 200.711 97.5702C200.711 97.5702 200.711 97.5702 200.711 97.5702C200.711 97.5702 200.711 97.5702 200.711 97.5702C200.711 97.5702 200.711 97.5702 200.711 97.5702C200.711 97.5702 200.711 97.5702 200.711 97.5702C200.711 97.5702 200.711 97.5702 200.711 97.5702C200.711 97.5702 200.711 97.5702 200.711 97.5702C200.711 97.5702 200.711 97.5702 200.711 97.5702C200.711 97.5702 200.711 97.5702 200.711 97.5702C200.711 97.5702 200.711 97.5702 200.711 97.5702C200.711 97.5702 200.711 97.5702 200.711 97.5702C200.711 97.5702 200.711 97.5702 200.711 97.5702C200.711 97.5702 200.711 97.5702 200.711 97.5702C200.711 97.5702 200.711 97.5702 200.711 97.5702C200.711 97.5702 200.711 97.5702 200.711 97.5702C200.711 97.5702 200.711 97.5702 200.711 97.5702C200.711 97.5702 200.711 97.5702 200.711 97.5702C200.711 97.5702 200.711 97.5702 200.711 97.5702C200.711 97.5702 200.711 97.5702 200.711 97.5702C200.711 97.5702 200.711 97.5702 200.711 97.5702C200.711 97.5702 200.711 97.5702 200.711 97.5702C200.711 97.5702 200.711 97.5702 200.711 97.5702C200.711 97.5702 200.711 97.5702 200.711 97.5702C200.711 97.5702 200.711 97.5702 200.711 97.5702C200.711 97.5702 200.711 97.5702 200.711 97.5702C200.711 97.5702 200.711 97.5702 200.711 97.5702C200.711 97.5702 200.711 97.5702 200.711 97.5702C200.711 97.5702 200.711 97.5702 200.711 97.5702C200.711 97.5702 200.711 97.5702 200.711 97.5702C200.711 97.5702 200.711 97.5702 200.711 97.5702C200.711 97.5702 200.711 97.5702 200.711 97.5702C200.711 97.5702 200.711 97.5702 200.711 97.5702C200.711 97.5702 200.711 97.5702 200.711 97.5702C200.711 97.5702 200.711 97.5702 200.711 97.5702C200.711 97.5702 200.711 97.5702 200.711 97.5702C200.711 97.5702 200.711 97.5702 200.711 97.5702C200.711 97.5702 200.711 97.5702 200.711 97.5702C200.711 97.5702 200.711 97.5702 200.711 97.5702C200.711 97.5702 200.711 97.5702 200.711 97.5702C200.711 97.5702 200.711 97.5702 200.711 97.5702C200.711 97.5702 200.711 97.5702 200.711 97.5702C200.711 97.5702 200.711 97.5702 200.711 97.5702C200.711 97.5702 200.711 97.5702 200.711 97.5702C200.711 97.5702 200.711 97.5702 200.711 97.5702C200.711 97.5702 200.711 97.5702 200.711 97.5702C200.711 97.5702 200.711 97.5702 200.711 97.5702C200.711 97.5702 200.711 97.5702 200.711 97.5702C200.711 97.5702 200.711 97.5702 200.711 97.5702C200.711 97.5702 200.711 97.5702 200.711 97.5702C200.711 97.5702 200.711 97.5702 200.711 97.5702C200.711 97.5702 200.711 97.5702 200.711 97.5702C200.711 97.5702 200.711 97.5702 200.711 97.5702C200.711 97.5702 200.711 97.5702 200.711 97.5702C200.711 97.5702 200.711 97.5702 200.711 97.5702C200.711 97.5702 200.711 97.5702 200.711 97.5702C200.711 97.5702 200.711 97.5702 200.711 97.5702C200.711 97.5702 200.711 97.5702 200.711 97.5702C200.711 97.5702 200.711 97.5702 200.711 97.5702C200.711 97.5702 200.711 97.5702 200.711 97.5702C200.711 97.5702 200.711 97.5702 200.711 97.5702C200.711 97.5702 200.711 97.5702 200.711 97.5702C200.711 97.5702 200.711 97.5702 200.711 97.5702C200.711 97.5702 200.711 97.5702 200.711 97.5702C200.711 97.5702 200.711 97.5702 200.711 97.5702C200.711 97.5702 200.711 97.5702 200.711 97.5702C200.711 97.5702 200.711 97.5702 200.711 97.5702C200.711 97.5702 200.711 97.5702 200.711 97.5702C200.711 97.5702 200.711 97.5702 200.711 97.5702C200.711 97.5702 200.711 97.5702 200.711 97.5702C200.711 97.5702 200.711 97.5702 200.711 97.5702C200.711 97.5702 200.711 97.5702 200.711 97.5702C200.711 97.5702 200.711 97.5702 200.711 97.5702C200.711 97.5702 200.711 97.5702 200.711 97.5702C200.711 97.5702 200.711 97.5702 200.711 97.5702C200.711 97.5702 200.711 97.5702 200.711 97.5702C200.711 97.5702 200.711 97.5702 200.711 97.5702C200.711 97.5702 200.711 97.5702 200.711 97.5702C200.711 97.5702 200.711 97.5702 200.711 97.5702C200.711 97.5702 200.711 97.5702 200.711 97.5702C200.711 97.5702 200.711 97.5702 200.711 97.5702C200.711 97.5702 200.711 97.5702 200.711 97.5702C200.711 97.5702 200.711 97.5702 200.711 97.5702C200.711 97.5702 200.711 97.5702 200.711 97.5702C200.711 97.5702 200.711 97.5702 200.711 97.5702C200.711 97.5702 200.711 97.5702 200.711 97.5702C200.711 97.5702 200.711 97.5702 200.711 97.5702C200.711 97.5702 200.711 97.5702 200.711 97.5702C200.711 97.5702 200.711 97.5702 200.711 97.5702C200.711 97.5702 200.711 97.5702 200.711 97.5702C200.711 97.5702 200.711 97.5702 200.711 97.5702C200.711 97.5702 200.711 97.5702 200.711 97.5702C200.711 97.5702 200.711 97.5702 200.711 97.5702C200.711 97.5702 200.711 97.5702 200.711 97.5702C200.711 97.5702 200.711 97.5702 200.711 97.5702C200.711 97.5702 200.711 97.5702 200.711 97.5702C200.711 97.5702 200.711 97.5702 200.711 97.5702C200.711 97.5702 200.711 97.5702 200.711 97.5702C200.711 97.5702 200.711 97.5702 200.711 97.5702C200.711 97.5702 200.711 97.5702 200.711 97.5702C200.711 97.5702 200.711 97.5702 200.711 97.5702C200.711 97.5702 200.711 97.5702 200.711 97.5702C200.711 97.5702 200.711 97.5702 200.711 97.5702C200.711 97.5702 200.711 97.5702 200.711 97.5702C200.711 97.5702 200.711 97.5702 200.711 97.5702C200.711 97.5702 200.711 97.5702 200.711 97.5702C200.711 97.5702 200.711 97.5702 200.711 97.5702C200.711 97.5702 200.711 97.5702 200.711 97.5702C200.711 97.5702 200.711 97.5702 200.711 97.5702C200.711 97.5702 200.711 97.5702 200.711 97.5702C200.711 97.5702 200.711 97.5702 200.711 97.5702C200.711 97.5702 200.711 97.5702 200.711 97.5702C200.711 97.5702 200.711 97.5702 200.711 97.5702C200.711 97.5702 200.711 97.5702 200.711 97.5702C200.711 97.5702 200.711 97.5702 200.711 97.5702C200.711 97.5702 200.711 97.5702 200.711 97.5702C200.711 97.5702 200.711 97.5702 200.711 97.5702C200.711 97.5702 200.711 97.5702 200.711 97.5702C200.711 97.5702 200.711 97.5702 200.711 97.5702C200.711 97.5702 200.711 97.5702 200.711 97.5702C200.711 97.5702 200.711 97.5702 200.711 97.5702C200.711 97.5702 200.711 97.5702 200.711 97.5702C200.711 97.5702 200.711 97.5702 200.711 97.5702C200.711 97.5702 200.711 97.5702 200.711 97.5702C200.711 97.5702 200.711 97.5702 200.711 97.5702C200.711 97.5702 200.711 97.5702 200.711 97.5702C200.711 97.5702 200.711 97.5702 200.711 97.5702C200.711 97.5702 200.711 97.5702 200.711 97.5702C200.711 97.5702 200.711 97.5702 200.711 97.5702C200.711 97.5702 200.711 97.5702 200.711 97.5702C200.711 97.5702 200.711 97.5702 200.711 97.5702C200.711 97.5702 200.711 97.5702 200.711 97.5702C200.711 97.5702 200.711 97.5702 200.711 97.5702C200.711 97.5702 200.711 97.5702 200.711 97.5702C200.711 97.5702 200.711 97.5702 200.711 97.5702C200.711 97.5702 200.711 97.5702 200.711 97.5702C200.711 97.5702 200.711 97.5702 200.711 97.5702C200.711 97.5702 200.711 97.5702 200.711 97.5702C200.711 97.5702 200.711 97.5702 200.711 97.5702C200.711 97.5702 200.711 97.5702 200.711 97.5702C200.711 97.5702 200.711 97.5702 200.711 97.5702C200.711 97.5702 200.711 97.5702 200.711 97.5702C200.711 97.5702 200.711 97.5702 200.711 97.5702C200.711 97.5702 200.711 97.5702 200.711 97.5702C200.711 97.5702 200.711 97.5702 200.711 97.5702C200.711 97.5702 200.711 97.5702 200.711 97.5702C200.711 97.5702 200.711 97.5702 200.711 97.5702C200.711 97.5702 200.711 97.5702 200.711 97.5702C200.711 97.5702 200.711 97.5702 200.711 97.5702C200.711 97.5702 200.711 97.5702 200.711 97.5702C200.711 97.5702 200.711 97.5702 200.711 97.5702C200.711 97.5702 200.711 97.5702 200.711 97.5702C200.711 97.5702 200.711 97.5702 200.711 97.5702C200.711 97.5702 200.711 97.5702 200.711 97.5702C200.711 97.5702 200.711 97.5702 200.711 97.5702C200.711 97.5702 200.711 97.5702 200.711 97.5702C200.711 97.5702 200.711 97.5702 200.711 97.5702C200.711 97.5702 200.711 97.5702 200.711 97.5702C200.711 97.5702 200.711 97.5702 200.711 97.5702C200.711 97.5702 200.711 97.5702 200.711 97.5702C200.711 97.5702 200.711 97.5702 200.711 97.5702C200.711 97.5702 200.711 97.5702 200.711 97.5702C200.711 97.5702 200.711 97.5702 200.711 97.5702C200.711 97.5702 200.711 97.5702 200.711 97.5702C200.711 97.5702 200.711 97.5702 200.711 97.5702C200.711 97.5702 200.711 97.5702 200.711 97.5702C200.711 97.5702 200.711 97.5702 200.711 97.5702C200.711 97.5702 200.711 97.5702 200.711 97.5702C200.711 97.5702 200.711 97.5702 200.711 97.5702C200.711 97.5702 200.711 97.5702 200.711 97.5702C200.711 97.5702 200.711 97.5702 200.711 97.5702C200.711 97.5702 200.711 97.5702 200.711 97.5702C200.711 97.5702 200.711 97.5702 200.711 97.5702C200.711 97.5702 200.711 97.5702 200.711 97.5702C200.711 97.5702 200.711 97.5702 200.711 97.5702C200.711 97.5702 200.711 97.5702 200.711 97.5702C200.711 97.5702 200.711 97.5702 200.711 97.5702C200.711 97.5702 200.711 97.5702 200.711 97.5702C200.711 97.5702 200.711 97.5702 200.711 97.5702C200.711 97.5702 200.711 97.5702 200.711 97.5702C200.711 97.5702 200.711 97.5702 200.711 97.5702C200.711 97.5702 200.711 97.5702 200.711 97.5702C200.711 97.5702 200.711 97.5702 200.711 97.5702C200.711 97.5702 200.711 97.5702 200.711 97.5702C200.711 97.5702 200.711 97.5702 200.711 97.5702C200.711 97.5702 200.711 97.5702 200.711 97.5702C200.711 97.5702 200.711 97.5702 200.711 97.5702C200.711 97.5702 200.711 97.5702 200.711 97.5702C200.711 97.5702 200.711 97.5702 200.711 97.5702C200.711 97.5702 200.711 97.5702 200.711 97.5702C200.711 97.5702 200.711 97.5702 200.711 97.5702C200.711 97.5702 200.711 97.5702 200.711 97.5702C200.711 97.5702 200.711 97.5702 200.711 97.5702C200.711 97.5702 200.711 97.5702 200.711 97.5702C200.711 97.5702 200.711 97.5702 200.711 97.5702C200.711 97.5702 200.711 97.5702 200.711 97.5702C200.711 97.5702 200.711 97.5702 200.711 97.5702C200.711 97.5702 200.711 97.5702 200.711 97.5702C200.711 97.5702 200.711 97.5702 200.711 97.5702C200.711 97.5702 200.711 97.5702 200.711 97.5702C200.711 97.5702 200.711 97.5702 200.711 97.5702C200.711 97.5702 200.711 97.5702 200.711 97.5702C200.711 97.5702 200.711 97.5702 200.711 97.5702C200.711 97.5702 200.711 97.5702 200.711 97.5702C200.711 97.5702 200.711 97.5702 200.711 97.5702C200.711 97.5702 200.711 97.5702 200.711 97.5702C200.711 97.5702 200.711 97.5702 200.711 97.5702C200.711 97.5702 200.711 97.5702 200.711 97.5702C200.711 97.5702 200.711 97.5702 200.711 97.5702C200.711 97.5702 200.711 97.5702 200.711 97.5702C200.711 97.5702 200.711 97.5702 200.711 97.5702C200.711 97.5702 200.711 97.5702 200.711 97.5702C200.711 97.5702 200.711 97.5702 200.711 97.5702C200.711 97.5702 200.711 97.5702 200.711 97.5702C200.711 97.5702 200.711 97.5702 200.711 97.5702C200.711 97.5702 200.711 97.5702 200.711 97.5702C200.711 97.5702 200.711 97.5702 200.711 97.5702C200.711 97.5702 200.711 97.5702 200.711 97.5702C200.711 97.5702 200.711 97.5702 200.711 97.5702C200.711 97.5702 200.711 97.5702 200.711 97.5702C200.711 97.5702 200.711 97.5702 200.711 97.5702C200.711 97.5702 200.711 97.5702 200.711 97.5702C200.711 97.5702 200.711 97.5702 200.711 97.5702C200.711 97.5702 200.711 97.5702 200.711 97.5702C200.711 97.5702 200.711 97.5702 200.711 97.5702C200.711 97.5702 200.711 97.5702 200.711 97.5702C200.711 97.5702 200.711 97.5702 200.711 97.5702C200.711 97.5702 200.711 97.5702 200.711 97.5702C200.711 97.5702 200.711 97.5702 200.711 97.5702C200.711 97.5702 200.711 97.5702 200.711 97.5702C200.711 97.5702 200.711 97.5702 200.711 97.5702C200.711 97.5702 200.711 97.5702 200.711 97.5702C200.711 97.5702 200.711 97.5702 200.711 97.5702C200.711 97.5702 200.711 97.5702 200.711 97.5702C200.711 97.5702 200.711 97.5702 200.711 97.5702C200.711 97.5702 200.711 97.5702 200.711 97.5702C200.711 97.5702 200.711 97.5702 200.711 97.5702C200.711 97.5702 200.711 97.5702 200.711 97.5702C200.711 97.5702 200.711 97.5702 200.711 97.5702C200.711 97.5702 200.711 97.5702 200.711 97.5702C200.711 97.5702 200.711 97.5702 200.711 97.5702C200.711 97.5702 200.711 97.5702 200.711 97.5702C200.711 97.5702 200.711 97.5702 200.711 97.5702C200.711 97.5702 200.711 97.5702 200.711 97.5702C200.711 97.5702 200.711 97.5702 200.711 97.5702C200.711 97.5702 200.711 97.5702 200.711 97.5702C200.711 97.5702 200.711 97.5702 200.711 97.5702C200.711 97.5702 200.711 97.5702 200.711 97.5702C200.711 97.5702 200.711 97.5702 200.711 97.5702C200.711 97.5702 200.711 97.5702 200.711 97.5702C200.711 97.5702 200.711 97.5702 200.711 97.5702C200.711 97.5702 200.711 97.5702 200.711 97.5702C200.711 97.5702 200.711 97.5702 200.711 97.5702C200.711 97.5702 200.711 97.5702 200.711 97.5702C200.711 97.5702 200.711 97.5702 200.711 97.5702C200.711 97.5702 200.711 97.5702 200.711 97.5702C200.711 97.5702 200.711 97.5702 200.711 97.5702C200.711 97.5702 200.711 97.5702 200.711 97.5702C200.711 97.5702 200.711 97.5702 200.711 97.5702C200.711 97.5702 200.711 97.5702 200.711 97.5702C200.711 97.5702 200.711 97.5702 200.711 97.5702C200.711 97.5702 200.711 97.5702 200.711 97.5702C200.711 97.5702 200.711 97.5702 200.711 97.5702C200.711 97.5702 200.711 97.5702 200.711 97.5702C200.711 97.5702 200.711 97.5702 200.711 97.5702C200.711 97.5702 200.711 97.5702 200.711 97.5702C200.711 97.5702 200.711 97.5702 200.711 97.5702C200.711 97.5702 200.711 97.5702 200.711 97.5702C200.711 97.5702 200.711 97.5702 200.711 97.5702C200.711 97.5702 200.711 97.5702 200.711 97.5702C200.711 97.5702 200.711 97.5702 200.711 97.5702C200.711 97.5702 200.711 97.5702 200.711 97.5702C200.711 97.5702 200.711 97.5702 200.711 97.5702C200.711 97.5702 200.711 97.5702 200.711 97.5702C200.711 97.5702 200.711 97.5702 200.711 97.5702C200.711 97.5702 200.711 97.5702 200.711 97.5702C200.711 97.5702 200.711 97.5702 200.711 97.5702C200.711 97.5702 200.711 97.5702 200.711 97.5702C200.711 97.5702 200.711 97.5702 200.711 97.5702C200.711 97.5702 200.711 97.5702 200.711 97.5702C200.711 97.5702 200.711 97.5702 200.711 97.5702C200.711 97.5702 200.711 97.5702 200.711 97.5702C200.711 97.5702 200.711 97.5702 200.711 97.5702C200.711 97.5702 200.711 97.5702 200.711 97.5702C200.711 97.5702 200.711 97.5702 200.711 97.5702C200.711 97.5702 200.711 97.5702 200.711 97.5702C200.711 97.5702 200.711 97.5702 200.711 97.5702C200.711 97.5702 200.711 97.5702 200.711 97.5702C200.711 97.5702 200.711 97.5702 200.711 97.5702C200.711 97.5702 200.711 97.5702 200.711 97.5702C200.711 97.5702 200.711 97.5702 200.711 97.5702C200.711 97.5702 200.711 97.5702 200.711 97.5702C200.711 97.5702 200.711 97.5702 200.711 97.5702C200.711 97.5702 200.711 97.5702 200.711 97.5702C200.711 97.5702 200.711 97.5702 200.711 97.5702C200.711 97.5702 200.711 97.5702 200.711 97.5702C200.711 97.5702 200.711 97.5702 200.711 97.5702C200.711 97.5702 200.711 97.5702 200.711 97.5702C200.711 97.5702 200.711 97.5702 200.711 97.5702C200.711 97.5702 200.711 97.5702 200.711 97.5702C200.711 97.5702 200.711 97.5702 200.711 97.5702C200.711 97.5702 200.711 97.5702 200.711 97.5702C200.711 97.5702 200.711 97.5702 200.711 97.5702C200.711 97.5702 200.711 97.5702 200.711 97.5702C200.711 97.5702 200.711 97.5702 200.711 97.5702C200.711 97.5702 200.711 97.5702 200.711 97.5702C200.711 97.5702 200.711 97.5702 200.711 97.5702C200.711 97.5702 200.711 97.5702 200.711 97.5702C200.711 97.5702 200.711 97.5702 200.711 97.5702C200.711 97.5702 200.711 97.5702 200.711 97.5702C200.711 97.5702 200.711 97.5702 200.711 97.5702C200.711 97.5702 200.711 97.5702 200.711 97.5702C200.711 97.5702 200.711 97.5702 200.711 97.5702C200.711 97.5702 200.711 97.5702 200.711 97.5702C200.711 97.5702 200.711 97.5702 200.711 97.5702C200.711 97.5702 200.711 97.5702 200.711 97.5702C200.711 97.5702 200.711 97.5702 200.711 97.5702C200.711 97.5702 200.711 97.5702 200.711 97.5702C200.711 97.5702 200.711 97.5702 200.711 97.5702C200.711 97.5702 200.711 97.5702 200.711 97.5702C200.711 97.5702 200.711 97.5702 200.711 97.5702C200.711 97.5702 200.711 97.5702 200.711 97.5702C200.711 97.5702 200.711 97.5702 200.711 97.5702C200.711 97.5702 200.711 97.5702 200.711 97.5702C200.711 97.5702 200.711 97.5702 200.711 97.5702C200.711 97.5702 200.711 97.5702 200.711 97.5702C200.711 97.5702 200.711 97.5702 200.711 97.5702C200.711 97.5702 200.711 97.5702 200.711 97.5702C200.711 97.5702 200.711 97.5702 200.711 97.5702C200.711 97.5702 200.711 97.5702 200.711 97.5702C200.711 97.5702 200.711 97.5702 200.711 97.5702C200.711 97.5702 200.711 97.5702 200.711 97.5702C200.711 97.5702 200.711 97.5702 200.711 97.5702C200.711 97.5702 200.711 97.5702 200.711 97.5702C200.711 97.5702 200.711 97.5702 200.711 97.5702C200.711 97.5702 200.711 97.5702 200.711 97.5702C200.711 97.5702 200.711 97.5702 200.711 97.5702C200.711 97.5702 200.711 97.5702 200.711 97.5702C200.711 97.5702 200.711 97.5702 200.711 97.5702C200.711 97.5702 200.711 97.5702 200.711 97.5702C200.711 97.5702 200.711 97.5702 200.711 97.5702C200.711 97.5702 200.711 97.5702 200.711 97.5702C200.711 97.5702 200.711 97.5702 200.711 97.5702C200.711 97.5702 200.711 97.5702 200.711 97.5702C200.711 97.5702 200.711 97.5702 200.711 97.5702C200.711 97.5702 200.711 97.5702 200.711 97.5702C200.711 97.5702 200.711 97.5702 200.711 97.5702C200.711 97.5702 200.711 97.5702 200.711 97.5702C200.711 97.5702 200.711 97.5702 200.711 97.5702C200.711 97.5702 200.711 97.5702 200.711 97.5702C200.711 97.5702 200.711 97.5702 200.711 97.5702C200.711 97.5702 200.711 97.5702 200.711 97.5702C200.711 97.5702 200.711 97.5702 200.711 97.5702C200.711 97.5702 200.711 97.5702 200.711 97.5702C200.711 97.5702 200.711 97.5702 200.711 97.5702C200.711 97.5702 200.711 97.5702 200.711 97.5702C200.711 97.5702 200.711 97.5702 200.711 97.5702C200.711 97.5702 200.711 97.5702 200.711 97.5702C200.711 97.5702 200.711 97.5702 200.711 97.5702C200.711 97.5702 200.711 97.5702 200.711 97.5702C200.711 97.5702 200.711 97.5702 200.711 97.5702C200.711 97.5702 200.711 97.5702 200.711 97.5702C200.711 97.5702 200.711 97.5702 200.711 97.5702C200.711 97.5702 200.711 97.5702 200.711 97.5702C200.711 97.5702 200.711 97.5702 200.711 97.5702C200.711 97.5702 200.711 97.5702 200.711 97.5702C200.711 97.5702 200.711 97.5702 200.711 97.5702C200.711 97.5702 200.711 97.5702 200.711 97.5702C200.711 97.5702 200.711 97.5702 200.711 97.5702C200.711 97.5702 200.711 97.5702 200.711 97.5702C200.711 97.5702 200.711 97.5702 200.711 97.5702C200.711 97.5702 200.711 97.5702 200.711 97.5702C200.711 97.5702 200.711 97.5702 200.711 97.5702C200.711 97.5702 200.711 97.5702 200.711 97.5702C200.711 97.5702 200.711 97.5702 200.711 97.5702C200.711 97.5702 200.711 97.5702 200.711 97.5702C200.711 97.5702 200.711 97.5702 200.711 97.5702C200.711 97.5702 200.711 97.5702 200.711 97.5702C200.711 97.5702 200.711 97.5702 200.711 97.5702C200.711 97.5702 200.711 97.5702 200.711 97.5702C200.711 97.5702 200.711 97.5702 200.711 97.5702C200.711 97.5702 200.711 97.5702 200.711 97.5702C200.711 97.5702 200.711 97.5702 200.711 97.5702C200.711 97.5702 200.711 97.5702 200.711 97.5702C200.711 97.5702 200.711 97.5702 200.711 97.5702C200.711 97.5702 200.711 97.5702 200.711 97.5702C200.711 97.5702 200.711 97.5702 200.711 97.5702C200.711 97.5702 200.711 97.5702 200.711 97.5702C200.711 97.5702 200.711 97.5702 200.711 97.5702C200.711 97.5702 200.711 97.5702 200.711 97.5702C200.711 97.5702 200.711 97.5702 200.711 97.5702C200.711 97.5702 200.711 97.5702 200.711 97.5702C200.711 97.5702 200.711 97.5702 200.711 97.5702C200.711 97.5702 200.711 97.5702 200.711 97.5702C200.711 97.5702 200.711 97.5702 200.711 97.5702C200.711 97.5702 200.711 97.5702 200.711 97.5702C200.711 97.5702 200.711 97.5702 200.711 97.5702C200.711 97.5702 200.711 97.5702 200.711 97.5702C200.711 97.5702 200.711 97.5701 200.711 97.5701C200.711 97.5701 200.711 97.5701 200.711 97.5701C200.711 97.5701 200.711 97.5701 200.711 97.5701C200.711 97.5701 200.711 97.5701 200.711 97.5701C200.711 97.5701 200.711 97.5701 200.711 97.5701C200.711 97.5701 200.711 97.5701 200.711 97.5701C200.711 97.5701 200.711 97.5701 200.711 97.5701C200.711 97.5701 200.711 97.5701 200.711 97.5701C200.711 97.5701 200.711 97.5701 200.711 97.5701C200.711 97.5701 200.711 97.5701 200.711 97.5701C200.711 97.5701 200.711 97.5701 200.711 97.5701C200.711 97.5701 200.711 97.5701 200.711 97.5701C200.711 97.5701 200.711 97.5701 200.711 97.5701C200.711 97.5701 200.711 97.5701 200.711 97.5701C200.711 97.5701 200.711 97.5701 200.711 97.5701C200.711 97.5701 200.711 97.5701 200.711 97.5701L193.903 90.7628ZM200.711 90.7628L171.212 61.2646L164.405 68.0719L193.903 97.5701L200.711 90.7628Z" fill="#D6413A"/>
<path fill-rule="evenodd" clip-rule="evenodd" d="M146.457 114.914L146.457 114.914C143.142 111.213 134.847 103.406 128.191 101.783C121.535 100.16 111.13 111.914 106.759 117.993C87.2794 145.091 98.8845 163.71 107.122 169.632L107.122 169.632C115.36 175.554 136.706 180.623 156.186 153.525C160.556 147.445 168.383 133.837 164.723 128.045C161.064 122.253 151.022 116.878 146.457 114.914Z" fill="#444444"/>
<line x1="62.328" y1="102.076" x2="72.8696" y2="108.401" stroke="white" stroke-width="6.41798" stroke-linecap="round"/>
<line x1="78.2753" y1="91.7754" x2="81.8231" y2="98.871" stroke="white" stroke-width="6.41798" stroke-linecap="round"/>
<line x1="93.2241" y1="87.1316" x2="93.2241" y2="96.7586" stroke="white" stroke-width="6.41798" stroke-linecap="round"/>
<line x1="109.911" y1="91.6242" x2="104.135" y2="99.3258" stroke="white" stroke-width="6.41798" stroke-linecap="round"/>
<circle cx="183.076" cy="170.565" r="9.62697" fill="#C8A97B"/>
<circle cx="20.595" cy="215.491" r="9.62697" fill="#C8A97B"/>
<path d="M11.395 202.655C31.1838 197.307 80.0674 188.856 117.292 197.842" stroke="#C8A97B" stroke-width="3.20899" stroke-linecap="round"/>
</g>
</g>
<defs>
<clipPath id="clip0">
<rect width="204.599" height="206" fill="white"/>
</clipPath>
</defs>
</svg>
