<?xml version="1.0" encoding="UTF-8" standalone="no"?>
<svg
   xmlns:dc="http://purl.org/dc/elements/1.1/"
   xmlns:cc="http://creativecommons.org/ns#"
   xmlns:rdf="http://www.w3.org/1999/02/22-rdf-syntax-ns#"
   xmlns:svg="http://www.w3.org/2000/svg"
   xmlns="http://www.w3.org/2000/svg"
   xmlns:sodipodi="http://sodipodi.sourceforge.net/DTD/sodipodi-0.dtd"
   xmlns:inkscape="http://www.inkscape.org/namespaces/inkscape"
   inkscape:version="1.0 (4035a4fb49, 2020-05-01)"
   sodipodi:docname="map.svg"
   id="svg28"
   version="1.1"
   fill="none"
   viewBox="0 0 603 521"
   height="521"
   width="603">
  <metadata
     id="metadata34">
    <rdf:RDF>
      <cc:Work
         rdf:about="">
        <dc:format>image/svg+xml</dc:format>
        <dc:type
           rdf:resource="http://purl.org/dc/dcmitype/StillImage" />
        <dc:title></dc:title>
      </cc:Work>
    </rdf:RDF>
  </metadata>
  <defs
     id="defs32" />
  <sodipodi:namedview
     inkscape:current-layer="svg28"
     inkscape:window-maximized="0"
     inkscape:window-y="334"
     inkscape:window-x="1108"
     inkscape:cy="260.5"
     inkscape:cx="142.71905"
     inkscape:zoom="1.4107486"
     showgrid="false"
     id="namedview30"
     inkscape:window-height="1318"
     inkscape:window-width="2504"
     inkscape:pageshadow="2"
     inkscape:pageopacity="0"
     guidetolerance="10"
     gridtolerance="10"
     objecttolerance="10"
     borderopacity="1"
     bordercolor="#666666"
     pagecolor="#ffffff" />
  <path
     id="path2"
     fill="#97D5BB"
     d="M326.131 28.0424C311.245 30.1036 297.911 24.3408 285.763 16.3977C273.081 12.9883 261.264 -3.07638 248.966 1.6478C227.277 9.97937 207.578 20.2526 184.014 23.0222C167.439 24.9705 154.284 19.7533 138.988 14.6898C128.581 11.2445 116.629 7.83807 105.555 7.70302C95.6769 7.58255 87.4096 19.5761 81.2826 25.6617C74.0266 32.8686 66.7922 40.488 58.5625 46.6221C56.2811 48.3226 53.7393 50.0086 50.7994 50.2449C45.8946 50.639 41.8843 48.1263 36.8258 49.9861C26.7515 53.6899 22.2647 65.8429 17.7803 74.5693C13.4355 83.024 7.33495 91.6695 5.98042 101.274C2.55848 125.539 10.5415 149.501 10.8971 173.678C11.1686 192.144 13.6363 213.796 6.18744 231.177C3.59367 237.229 -0.998446 242.526 1.52957 249.394C5.10902 259.12 11.6004 267.559 15.1409 277.342C22.3534 297.271 12.899 319.422 10.7935 339.343C8.22927 363.605 35.8214 373.586 46.7109 392.287C58.5091 412.55 54.4028 437.183 70.466 455.272C86.8806 473.757 110.793 475.632 134.02 476.543C144.258 476.944 150.399 476.821 158.448 483.116C170.773 492.755 183.129 495.908 198.661 496.365C218.644 496.953 240.768 497.557 260.3 492.535C271.826 489.571 283.566 482.818 295.751 483.219C300.959 483.391 304.469 487.488 309.57 487.774C319.003 488.303 328.398 488.85 337.827 489.585C348.528 490.419 357.041 489.686 367.379 487.877C379.342 485.784 392.528 487.084 404.28 489.74C432.722 496.171 456.613 518.482 486.051 520.171C496.192 520.753 504.835 517.786 511.307 509.717C518.749 500.439 517.098 491.298 517.621 480.321C518.028 471.774 524.199 466.614 530.818 462.052C541.193 454.9 552.884 449.41 562.44 441.091C575.25 429.939 568.149 408.366 568.029 393.685C567.94 382.653 567.768 371.511 568.702 360.51C569.748 348.202 573.74 337.842 577.656 326.301C580.624 317.552 580.861 309.001 581.641 299.906C582.381 291.265 583.813 282.723 583.866 274.029C583.98 255.518 570.157 236.75 574.964 218.549C576.408 213.084 579.232 207.048 583.038 202.868C589.62 195.639 599.876 188.21 601.877 177.974C603.364 170.363 592.186 163.591 589.714 156.91C586.309 147.707 591.072 137.455 593.182 128.497C595.492 118.691 596.673 108.681 598.823 98.8419C601.123 88.3144 602.805 78.1642 602.291 67.3237C601.704 54.966 597.821 47.5562 586.971 41.1879C575.914 34.6978 563.585 29.7058 551.675 24.9889C534.456 18.1694 522.24 23.7053 506.132 30.5783C481.059 41.2761 456.102 39.4707 429.743 37.0993C416.887 35.9427 403.892 35.9898 391.289 32.9073C379.682 30.0681 368.155 24.9928 356.252 23.5398C345.499 22.2272 336.47 26.6108 326.131 28.0424Z" />
  <path
     id="path4"
     fill="#F9E8AA"
     d="M94.0434 116.65L86.5 102L485.257 100.454L525.5 104L523.375 124.503C531.726 144.372 530.185 151.602 522.372 161.313C524.317 182.439 528.724 192.284 538.923 208.43C539.949 221.312 530.546 236.808 520.366 258.982C522.451 261.757 526.154 269.005 525.883 271.252C520.878 274.331 514.783 282.852 516.353 284.504C525.593 311.202 525.528 317.228 522.372 322.786C525.477 334.873 522.982 341.637 520.366 353.706C532.446 394.038 525.202 404.735 500.967 414.196C495.402 424.214 492.209 429.233 486.761 433.216H431.59H407.516L407.491 433.227C399.136 437.065 394.838 439.039 380.933 432.234C369.31 441.862 361.662 442.562 345.824 434.198C330.3 434.954 319.541 431.99 305.7 417.51H239.996C233.14 419.063 229.463 423.792 222.943 433.216H156.738C126.538 433.239 116.539 425.267 107.586 400.823C93.5905 386.261 90.7324 378.386 97.0529 364.995C91.7529 351.33 91.9611 345.08 97.0529 336.038C88.8992 320.844 92.3332 309.537 102.57 287.939C95.3834 270.025 93.6224 260.033 94.0434 242.295L80 230.025V213.829C84.6089 207.777 86.2059 204.201 88.0248 197.632C87.7306 189.497 88.946 186.069 94.0434 182.417V171.129C98.2875 166.466 99.8601 161.247 102.068 150.025C95.1253 136.727 94.6959 129.512 94.0434 116.65Z" />
  <path
     id="path6"
     fill="#707586"
     d="M96.9187 102.297C100.821 107.091 103.004 107.767 106.89 106.334L486.311 102.801H514.124C516.847 104.992 518.718 105.61 522.521 105.829C525.562 106.268 526.289 105.166 526.194 101.287C529.48 95.1562 528.195 93.234 523.046 91.1946C519.411 89.3309 520.308 88.041 523.046 85.6436V76.5602C521.203 73.1873 519.17 71.9465 514.124 71.0093C511.799 70.7852 510.687 71.8235 508.876 74.5417C507.994 79.8706 506.195 78.9684 502.054 74.5417H496.806C492.974 70.8855 490.896 70.8481 487.885 74.5417L477.389 84.6344C477.115 91.6629 476.638 94.8073 474.24 93.2131C471.817 93.8327 471.271 92.6969 471.092 89.1761C471.481 86.6824 470.859 85.6647 468.468 84.6344H463.745L456.398 89.1761L447.476 88.6714C441.669 96.6261 437.407 93.9986 429.634 88.1668H423.336C412.476 92.0892 409.175 92.7274 404.444 93.2131C400.144 88.4998 395.815 87.9775 386.601 88.6714L371.907 88.1668C366.99 84.2342 364.662 83.8139 360.886 84.6344C356.44 84.607 355.939 86.0904 355.639 89.1761H346.717C342.853 92.491 338.958 93.3319 330.974 94.2224C325.359 93.1484 323.625 91.6485 321.003 88.6714C311.984 88.1461 309.737 86.9067 308.932 83.6251C300.933 83.7591 298.856 82.5877 297.912 79.0834H285.842C279.007 78.8171 276.645 80.2968 275.871 86.6529C275.954 91.6872 275.262 93.4601 271.673 93.2131H255.929C252.379 84.8191 251.954 79.5642 251.731 70H241.235L233.888 75.0463V83.6251L231.264 88.6714C227.88 87.5147 225.752 89.0544 221.818 93.2131H214.471C207.092 86.5925 202.958 85.0628 195.578 93.2131H185.083C172.313 91.4842 167.163 91.5622 165.666 95.7363H161.467C156.081 89.5772 152.198 87.9461 143.624 88.6714L141.001 90.69C137.204 85.0942 134.484 86.8307 128.93 95.7363H119.484V83.6251H97.968L95.344 86.6529L90.621 83.6251C89.3009 77.1189 86.7978 75.292 79.6007 75.0463C68.9031 77.9687 67.6739 80.5357 73.3033 86.6529V90.69C76.7211 95.3442 79.4858 97.8985 86.9478 102.297H96.9187Z" />
  <path
     id="path8"
     fill="#5CC350"
     d="M295 127.554V111H258.758L250.803 116.058C238.743 115.516 235.003 116.833 236.217 123.416C238.981 130.406 241.981 129.437 248.593 123.416C255.299 131.354 258.163 132.821 261.41 128.934L295 127.554Z" />
  <path
     id="path10"
     fill="#407443"
     d="M121.893 119.505V100.91C128.618 96.796 132.998 95.8566 141.629 96.0168L492.742 99.4421C493.134 104.091 494.589 105.388 498.975 105.803V115.101L506.766 120.483V126.845L511.441 130.27V145.929L506.766 146.908V153.269L498.975 168.438V179.204L512.999 193.884C513.038 201.588 511.969 206.637 506.766 217.861C502.611 227.158 498.975 228.431 498.975 229.605C498.242 239.68 498.71 245.35 502.611 255.54C509.626 259.211 509.458 262.809 505.208 270.709C497.108 274.725 497.686 277.526 502.611 282.942V302.026C502.611 303.201 500.187 304.799 498.975 305.452V313.771C504.51 319.963 505.5 323.771 498.975 331.876V340.195C498.051 345.101 498.593 347.274 502.611 349.492V367.597C498.583 378.846 494.743 383.221 489.107 388.639C473.496 388.409 464.889 388.309 464.176 391.085H442.361L421.585 388.639C413.53 387.777 409.928 388.056 406.522 391.085H399.251C393.99 390.62 392.18 391.771 389.902 395H363.932L361.854 391.085L359.257 393.043L354.063 388.639H186.817C174.036 392.195 166.875 391.971 154.095 388.639H139.032C128.328 389.175 125.179 386.027 120.853 378.852V367.108L116.179 363.683V350.471L120.853 346.067V339.705C115.027 333.186 115.012 326.707 116.179 316.217L120.853 312.302C114.142 298.471 115.774 291.389 120.853 279.028C110.398 268.016 110.565 262.456 111.504 252.604C122.972 248.65 125.704 244.448 113.062 227.556C104.983 219.067 105.513 215.302 111.504 210.032V195.352C122.459 180.754 124.988 173.54 115.14 164.524L116.699 145.44C108.308 130.716 110.717 125.598 121.893 119.505Z" />
  <path
     id="path12"
     fill="#419E46"
     d="M466.78 101H490.165C494.741 106.401 496.513 109.84 495.362 118.223V135.446L499 139.17L497.441 177.805L495.362 185.719L484.449 194.563H476.135C467.101 204.127 463.48 203.432 457.946 198.287H418.971C400.604 198.514 395.062 196.541 394.546 188.977C389.933 190.828 386.69 190.465 378.956 185.719C367.031 190.398 361.571 190.214 360.768 185.719C357.603 181.323 354.067 182.205 346.737 185.719C342.791 192.328 338.837 191.52 330.107 185.719C324.803 180.454 323.382 180.813 322.832 185.719H271.385C263.558 176.476 261.565 176.708 259.952 181.529H238.126L230.331 183.857C225.507 192.105 220.519 191.509 209.544 185.719C205.576 190.111 203.316 191.793 199.151 192.701C193.971 191.578 189.395 189.809 186.679 185.719H154.979V181.529C139.989 194.354 134.885 191.854 128.475 190.373C120.073 185.597 119.605 181.465 120.161 173.616V160.117V145.687C124.136 141.328 125.422 126.418 123.279 122.412C118.041 104.101 125.489 101.127 146.144 101H466.78Z" />
  <path
     id="path14"
     fill="#5CC350"
     d="M475.496 141.08C482.135 159.553 480.833 171.793 475.496 194.758C459.611 203.492 453.477 205.294 454.831 194.758V152.035C451.595 144.026 450.852 139.306 450.506 130.674L438.012 123.006H410.139C404.393 138.115 400.383 137.918 391.397 121.362H385.63V134.508H349.588C343.408 130.665 340.909 125.861 338.535 111.503C321.639 114.026 316.52 113.292 318.352 106.574C324.678 99.9381 329.841 98.3865 347.185 106.574H388.994C397.301 101.46 400.869 100.546 402.931 106.574C429.96 106.829 450.721 109.417 460.598 102.192C473.213 107.596 474.25 119.313 475.496 141.08Z" />
  <path
     id="path16"
     fill="#EDF1C0"
     d="M214.452 241.929C214.452 262.324 198.009 278.857 177.726 278.857C157.443 278.857 141 262.324 141 241.929C141 221.533 157.443 205 177.726 205C198.009 205 214.452 221.533 214.452 241.929Z" />
  <path
     id="path18"
     fill="#EDF1C0"
     d="M209.763 260L183.348 301.317C182.279 302.989 180.438 304 178.461 304C176.535 304 174.734 303.04 173.653 301.438L145.688 260H209.763Z" />
  <path
     id="path20"
     fill="#F26935"
     d="M209.661 242.549C209.661 260.642 195.363 275.309 177.726 275.309C160.088 275.309 145.79 260.642 145.79 242.549C145.79 224.457 160.088 209.79 177.726 209.79C195.363 209.79 209.661 224.457 209.661 242.549Z" />
  <path
     id="path22"
     fill="#F26935"
     d="M205.584 258.581L182.615 295.233C181.685 296.716 180.084 297.613 178.365 297.613C176.69 297.613 175.124 296.762 174.184 295.34L149.867 258.581H205.584Z" />
  <circle
     id="circle24"
     fill="#FFF4BE"
     r="11.9758"
     cy="242.524"
     cx="176.927" />
  <path
     id="path26"
     fill="#5CC350"
     d="M178.33 117.489C189.623 110.304 193.302 112.3 197.905 120.275L214 113.774L203.56 108.202L200.515 104.023C189.388 100.314 184.835 99.6828 183.115 104.023L147.01 105.88C136.234 104.527 131.213 104.907 129.61 113.774V145.815L127 148.601V171.354L130.915 175.998C129.962 182.593 132.108 183.102 138.745 180.641C142.72 175.84 142.234 172.587 138.745 166.246V148.601C145.006 142.529 145.748 139.675 142.66 135.599V123.526H147.01L149.62 117.489H159.19L164.41 113.774H175.72L178.33 117.489Z" />
</svg>
