<?xml version="1.0" encoding="UTF-8" standalone="no"?>
<svg
   xmlns:dc="http://purl.org/dc/elements/1.1/"
   xmlns:cc="http://creativecommons.org/ns#"
   xmlns:rdf="http://www.w3.org/1999/02/22-rdf-syntax-ns#"
   xmlns:svg="http://www.w3.org/2000/svg"
   xmlns="http://www.w3.org/2000/svg"
   xmlns:sodipodi="http://sodipodi.sourceforge.net/DTD/sodipodi-0.dtd"
   xmlns:inkscape="http://www.inkscape.org/namespaces/inkscape"
   inkscape:version="1.0 (4035a4fb49, 2020-05-01)"
   sodipodi:docname="circlebase.svg"
   viewBox="0 0 137.92 169.60001"
   height="169.60001"
   width="137.92"
   id="svg2"
   version="1.1">
  <metadata
     id="metadata8">
    <rdf:RDF>
      <cc:Work
         rdf:about="">
        <dc:format>image/svg+xml</dc:format>
        <dc:type
           rdf:resource="http://purl.org/dc/dcmitype/StillImage" />
        <dc:title></dc:title>
      </cc:Work>
    </rdf:RDF>
  </metadata>
  <defs
     id="defs6" />
  <sodipodi:namedview
     inkscape:current-layer="g10"
     inkscape:window-maximized="0"
     inkscape:window-y="334"
     inkscape:window-x="1108"
     inkscape:cy="84.800003"
     inkscape:cx="19.695235"
     inkscape:zoom="4.3337263"
     showgrid="false"
     id="namedview4"
     inkscape:window-height="1318"
     inkscape:window-width="2504"
     inkscape:pageshadow="2"
     inkscape:pageopacity="0"
     guidetolerance="10"
     gridtolerance="10"
     objecttolerance="10"
     borderopacity="1"
     bordercolor="#666666"
     pagecolor="#ffffff" />
  <g
     id="g10"
     inkscape:label="Image"
     inkscape:groupmode="layer">
    <path
       id="path457869"
       d="m 65.92,19.975809 c -9.64704,1.266624 -18.40544,2.76768 -27.2,7.306913 -21.43136,11.0616 -36.5234496,35.660002 -34.85136,60.077283 0.607488,8.871041 2.484672,17.520005 6.301248,25.600005 1.783904,3.77664 4.814976,7.10304 6.420992,10.88 0.99424,2.33824 -1.252224,5.88032 -1.49632,8.32 -0.599488,5.992 1.909408,11.72512 6.038048,15.99872 14.868992,15.39072 41.819712,17.25152 61.747392,14.63104 15.83936,-2.08256 39.77696,-9.064 44.2416,-26.78976 0.8544,-3.39328 0.65472,-6.94784 -0.54112,-10.24 -0.66464,-1.82944 -2.66176,-4.40608 -2.12992,-6.4 0.97952,-3.67168 3.81024,-7.26624 5.20992,-10.88 3.10368,-8.01216 4.78368,-16.998085 4.40704,-25.600005 C 132.82784,54.572163 113.70624,30.05741 86.4,22.265185 80.0928,20.465313 72.47872,19.114625 65.92,19.975809 Z"
       style="fill:#e9ddc0;stroke:none;stroke-width:0.32" />
  </g>
</svg>
