<?xml version="1.0" encoding="UTF-8" standalone="no"?>
<svg
   xmlns:dc="http://purl.org/dc/elements/1.1/"
   xmlns:cc="http://creativecommons.org/ns#"
   xmlns:rdf="http://www.w3.org/1999/02/22-rdf-syntax-ns#"
   xmlns:svg="http://www.w3.org/2000/svg"
   xmlns="http://www.w3.org/2000/svg"
   xmlns:sodipodi="http://sodipodi.sourceforge.net/DTD/sodipodi-0.dtd"
   xmlns:inkscape="http://www.inkscape.org/namespaces/inkscape"
   inkscape:version="1.0 (4035a4fb49, 2020-05-01)"
   sodipodi:docname="close.svg"
   id="svg6"
   version="1.1"
   fill="none"
   viewBox="0 0 18.106432 18.10594"
   height="18.10594"
   width="18.106432">
  <metadata
     id="metadata12">
    <rdf:RDF>
      <cc:Work
         rdf:about="">
        <dc:format>image/svg+xml</dc:format>
        <dc:type
           rdf:resource="http://purl.org/dc/dcmitype/StillImage" />
        <dc:title></dc:title>
      </cc:Work>
    </rdf:RDF>
  </metadata>
  <defs
     id="defs10" />
  <sodipodi:namedview
     inkscape:current-layer="svg6"
     inkscape:window-maximized="0"
     inkscape:window-y="986"
     inkscape:window-x="28"
     inkscape:cy="8.6826769"
     inkscape:cx="7.2339702"
     inkscape:zoom="9.1875"
     fit-margin-bottom="0"
     fit-margin-right="0"
     fit-margin-left="0"
     fit-margin-top="0"
     lock-margins="false"
     showgrid="false"
     id="namedview8"
     inkscape:window-height="906"
     inkscape:window-width="1024"
     inkscape:pageshadow="2"
     inkscape:pageopacity="0"
     guidetolerance="10"
     gridtolerance="10"
     objecttolerance="10"
     borderopacity="1"
     bordercolor="#666666"
     pagecolor="#ffffff" />
  <path
     id="path2"
     fill="#87786a"
     d="m 0.669657,0.6696655 c 0.89288,-0.89288 2.34052,-0.89288 3.2334,0 l 13.5332,13.5332005 c 0.8929,0.892899 0.8929,2.340499 0,3.233399 -0.8929,0.892901 -2.3405,0.892901 -3.2334,0 L 0.669657,3.9030555 c -0.892876,-0.89288 -0.892876,-2.34052 0,-3.23339 z"
     clip-rule="evenodd"
     fill-rule="evenodd" />
  <path
     id="path4"
     fill="#87786a"
     d="m 0.670147,17.436265 c -0.892882,-0.8929 -0.892882,-2.3405 0,-3.2334 L 14.203357,0.6696555 c 0.8929,-0.892874 2.3405,-0.892874 3.2334,0 0.8929,0.89288 0.8929,2.34052 0,3.2334 L 3.903537,17.436265 c -0.89288,0.8929 -2.34052,0.8929 -3.23339,0 z"
     clip-rule="evenodd"
     fill-rule="evenodd" />
</svg>
