<?xml version="1.0" encoding="UTF-8" standalone="no"?>
<!-- Created with Inkscape (http://www.inkscape.org/) -->

<svg
   xmlns:dc="http://purl.org/dc/elements/1.1/"
   xmlns:cc="http://creativecommons.org/ns#"
   xmlns:rdf="http://www.w3.org/1999/02/22-rdf-syntax-ns#"
   xmlns:svg="http://www.w3.org/2000/svg"
   xmlns="http://www.w3.org/2000/svg"
   xmlns:sodipodi="http://sodipodi.sourceforge.net/DTD/sodipodi-0.dtd"
   xmlns:inkscape="http://www.inkscape.org/namespaces/inkscape"
   version="1.1"
   id="svg2"
   width="32.883537"
   height="31.8643"
   viewBox="0 0 32.883537 31.8643"
   sodipodi:docname="star.svg"
   inkscape:version="0.92.5 (2060ec1f9f, 2020-04-08)">
  <metadata
     id="metadata8">
    <rdf:RDF>
      <cc:Work
         rdf:about="">
        <dc:format>image/svg+xml</dc:format>
        <dc:type
           rdf:resource="http://purl.org/dc/dcmitype/StillImage" />
        <dc:title></dc:title>
      </cc:Work>
    </rdf:RDF>
  </metadata>
  <defs
     id="defs6" />
  <sodipodi:namedview
     pagecolor="#ffffff"
     bordercolor="#666666"
     borderopacity="1"
     objecttolerance="10"
     gridtolerance="10"
     guidetolerance="10"
     inkscape:pageopacity="0"
     inkscape:pageshadow="2"
     inkscape:window-width="2504"
     inkscape:window-height="1318"
     id="namedview4"
     showgrid="false"
     fit-margin-top="0"
     fit-margin-left="0"
     fit-margin-right="0"
     fit-margin-bottom="0"
     inkscape:zoom="6.3577588"
     inkscape:cx="26.155402"
     inkscape:cy="15.927209"
     inkscape:window-x="1108"
     inkscape:window-y="334"
     inkscape:window-maximized="0"
     inkscape:current-layer="svg2" />
  <path
     style="fill:#87786f;fill-opacity:0.99568344;stroke-width:0.31999999"
     d="m 20.536075,29.633183 c -1.920896,-1.303828 -3.652862,-2.46717 -3.848813,-2.585206 -0.19595,-0.118035 -1.92395,0.86079 -3.839999,2.175167 -2.9578638,2.029044 -3.6847209,2.39009 -4.8152792,2.391863 -1.0953894,0.0016 -1.4784873,-0.172538 -2.1599999,-0.98247 -1.0786617,-1.281915 -1.0455023,-1.997293 0.2880995,-6.215447 0.6120813,-1.936 1.1080006,-3.736 1.1020431,-4 -0.00596,-0.264 -1.4358872,-1.58933 -3.1776222,-2.945179 C 0.24457951,14.482732 -0.28981736,13.771564 0.11243337,12.185928 0.6457101,10.083799 1.5817212,9.711751 6.6346943,9.593445 L 11.061494,9.489799 12.439405,5.593445 c 1.838485,-5.19873259 3.059322,-6.34351629 5.519804,-5.17594129 0.969526,0.4600701 1.262768,0.88419519 2.065836,2.98788349 0.514756,1.348437 1.191955,3.2643442 1.504886,4.2575718 0.529844,1.681697 0.648198,1.818974 1.721286,1.996478 0.633776,0.104835 2.617271,0.192195 4.407767,0.194132 3.032832,0.0033 3.322774,0.06017 4.239998,0.831968 0.843549,0.709798 0.984554,1.044945 0.984554,2.34013 0,1.239169 -0.15864,1.657889 -0.88,2.322696 -0.642789,0.592397 -5.618873,4.408512 -6.395197,4.904421 -0.04136,0.02642 0.426641,1.753486 1.04,3.837925 0.613358,2.084439 1.115197,4.26257 1.115197,4.840291 0,1.400529 -1.125433,2.657655 -2.587461,2.890237 -1.032152,0.164195 -1.498432,-0.05568 -4.64,-2.188054 z"
     id="path821"
     inkscape:connector-curvature="0" />
  <path
     style="fill:#87786f;fill-opacity:0.99568344;stroke-width:0.31999999"
     d="m 12.45048,28.581616 c 1.998181,-1.317511 3.81949,-2.397511 4.047351,-2.4 0.227862,-0.0025 1.946375,1.075474 3.818917,2.395474 3.7168,2.620061 4.953712,2.973075 6.166788,1.76 0.849318,-0.849318 0.824877,-1.138051 -0.48,-5.67053 -0.616,-2.139671 -1.12,-4.100067 -1.12,-4.356436 0,-0.25637 1.570507,-1.638164 3.490014,-3.070655 3.610149,-2.694184 3.869986,-2.994909 3.869986,-4.478954 0,-1.729441 -0.825886,-2.04502 -5.764397,-2.202629 -3.053432,-0.09745 -4.571057,-0.270235 -4.800371,-0.546541 C 21.494339,9.789122 20.774418,7.913556 20.078944,5.8434207 19.38347,3.773286 18.573673,1.8134886 18.279395,1.4883152 17.708939,0.85796801 16.089692,0.70461251 15.283537,1.2045834 c -0.264,0.1637309 -1.2,2.2135257 -2.08,4.5550997 l -1.6,4.2574079 -4.9058824,0.32 c -5.4472089,0.355309 -5.8141165,0.520728 -5.8141165,2.621271 0,0.968686 0.3136792,1.306743 3.6799998,3.966004 2.0239999,1.59888 3.6799998,2.99409 3.6799998,3.100466 0,0.106376 -0.5790259,2.092818 -1.2867241,4.414316 -1.3595644,4.459847 -1.3739359,5.436048 -0.091016,6.182384 1.1178578,0.650307 1.9849503,0.333584 5.5846824,-2.039916 z"
     id="path817"
     inkscape:connector-curvature="0" />
</svg>
