<?xml version="1.0" encoding="UTF-8" standalone="no"?>
<!-- Created with Inkscape (http://www.inkscape.org/) -->

<svg
   xmlns:dc="http://purl.org/dc/elements/1.1/"
   xmlns:cc="http://creativecommons.org/ns#"
   xmlns:rdf="http://www.w3.org/1999/02/22-rdf-syntax-ns#"
   xmlns:svg="http://www.w3.org/2000/svg"
   xmlns="http://www.w3.org/2000/svg"
   xmlns:sodipodi="http://sodipodi.sourceforge.net/DTD/sodipodi-0.dtd"
   xmlns:inkscape="http://www.inkscape.org/namespaces/inkscape"
   version="1.1"
   id="svg2"
   width="52.16"
   height="52.16"
   viewBox="0 0 52.16 52.16"
   sodipodi:docname="timer.svg"
   inkscape:version="0.92.4 5da689c313, 2019-01-14">
  <metadata
     id="metadata8">
    <rdf:RDF>
      <cc:Work
         rdf:about="">
        <dc:format>image/svg+xml</dc:format>
        <dc:type
           rdf:resource="http://purl.org/dc/dcmitype/StillImage" />
        <dc:title></dc:title>
      </cc:Work>
    </rdf:RDF>
  </metadata>
  <defs
     id="defs6" />
  <sodipodi:namedview
     pagecolor="#ffffff"
     bordercolor="#666666"
     borderopacity="1"
     objecttolerance="10"
     gridtolerance="10"
     guidetolerance="10"
     inkscape:pageopacity="0"
     inkscape:pageshadow="2"
     inkscape:window-width="2504"
     inkscape:window-height="1318"
     id="namedview4"
     showgrid="false"
     inkscape:pagecheckerboard="true"
     inkscape:zoom="11.313709"
     inkscape:cx="22.702025"
     inkscape:cy="27.238038"
     inkscape:window-x="1108"
     inkscape:window-y="334"
     inkscape:window-maximized="0"
     inkscape:current-layer="g946" />
  <g
     id="g946">
    <path
       id="path881"
       d="M 24.960938 9.6074219 C 23.28609 9.6116676 19.831163 10.366205 17.759766 11.181641 C 15.813641 11.947762 12.153009 14.469724 10.861328 15.933594 C 9.1425824 17.881457 7.5503553 21.09312 7.0996094 23.519531 C 6.9034398 24.575531 6.6513438 27.024938 6.5390625 28.960938 C 6.0122667 38.044182 9.3892842 44.515185 16.640625 48.318359 C 18.930701 49.519457 19.917232 49.829279 22.880859 50.28125 C 27.149427 50.932229 29.501816 50.995675 31.744141 50.519531 C 36.603972 49.487569 42.108998 44.793954 44 40.070312 C 44.643136 38.463791 44.873186 37.134411 45.103516 33.673828 C 45.479365 28.026819 45.068659 24.206644 43.822266 21.759766 C 41.618202 17.43283 37.317808 12.797028 34.195312 11.378906 C 32.250237 10.495524 27.58641 9.6007619 24.960938 9.6074219 z M 25.03125 15.044922 C 26.879858 15.051022 30.303115 15.704198 32.746094 16.515625 C 34.985438 17.259415 38.292907 20.471545 39.880859 23.443359 L 40.34375 24.3125 L 40.804688 25.572266 L 41.105469 27.017578 L 41.226562 28.345703 L 41.236328 30.386719 C 41.241128 31.328607 41.151292 32.094052 41.125 32.712891 C 41.07897 33.796053 40.9275 34.466523 40.810547 35.011719 C 40.677544 35.631738 40.561036 36.089622 40.193359 36.800781 C 38.699477 39.690224 37.216124 41.267422 35.037109 42.287109 C 33.352789 43.075294 32.566025 43.229816 29.574219 43.359375 C 27.294004 43.458115 25.468512 43.365044 24.320312 43.091797 C 20.7089 42.23244 18.427537 40.747923 16.414062 37.945312 C 14.945166 35.900717 14.409036 33.838693 14.404297 30.21875 C 14.399597 26.656395 14.821484 24.259642 15.878906 21.845703 C 17.511367 18.119033 21.662821 15.033842 25.03125 15.044922 z "
       style="fill:#87786a;stroke-width:0.31999999;fill-opacity:1" />
    <path
       id="path873"
       d="M 26.724609 38.560547 C 25.735875 38.560547 25.346968 39.199833 25.730469 40.199219 C 25.848686 40.507287 26.236081 40.646761 26.798828 40.582031 C 27.542755 40.496463 27.679688 40.329413 27.679688 39.519531 C 27.679688 38.667176 27.573073 38.560547 26.724609 38.560547 z M 26.451172 39.099609 C 26.492291 39.086233 26.536684 39.085795 26.583984 39.101562 C 26.773184 39.164628 26.927734 39.352331 26.927734 39.519531 C 26.927734 39.686731 26.773184 39.876387 26.583984 39.939453 C 26.394784 40.002521 26.240234 39.812865 26.240234 39.519531 C 26.240234 39.299531 26.327816 39.13974 26.451172 39.099609 z "
       style="fill:#87786a;stroke-width:0.31999999;fill-opacity:1" />
    <path
       id="path869"
       d="M 32.664062 37.867188 C 32.351802 37.848666 32.017634 37.931275 31.824219 38.091797 C 31.338663 38.494773 31.195149 39.728351 31.587891 40.121094 C 31.713305 40.246528 32.182317 40.305986 32.628906 40.253906 C 33.281642 40.177785 33.460093 39.960539 33.539062 39.146484 C 33.616339 38.349889 33.492766 38.090051 32.962891 37.921875 C 32.869426 37.89221 32.768149 37.873362 32.664062 37.867188 z M 32.480469 38.720703 C 32.744469 38.720703 32.960938 38.863062 32.960938 39.039062 C 32.960938 39.215062 32.744469 39.359375 32.480469 39.359375 C 32.216469 39.359375 32 39.215063 32 39.039062 C 32 38.863062 32.216469 38.720703 32.480469 38.720703 z "
       style="fill:#87786a;stroke-width:0.31999999;fill-opacity:1" />
    <path
       id="path865"
       d="M 22.007812 36.539062 C 21.20013 36.615307 20.708066 37.285305 20.960938 38.082031 C 21.129114 38.611905 21.390904 38.735483 22.1875 38.658203 C 23.077501 38.571867 23.199219 38.44334 23.199219 37.599609 C 23.199219 36.805267 23.057664 36.622553 22.373047 36.542969 C 22.246063 36.528208 22.123196 36.52817 22.007812 36.539062 z M 22.152344 37.425781 C 22.284208 37.403519 22.404038 37.480563 22.423828 37.671875 C 22.437028 37.799475 22.275653 37.96085 22.064453 38.03125 C 21.853253 38.10165 21.738194 37.986591 21.808594 37.775391 C 21.877348 37.569128 22.02048 37.448044 22.152344 37.425781 z "
       style="fill:#87786a;stroke-width:0.31999999;fill-opacity:1" />
    <path
       id="path861"
       d="M 36.830078 34.308594 C 36.623173 34.294697 36.383393 34.328953 36.115234 34.414062 C 35.518303 34.603521 35.264085 36.117601 35.748047 36.601562 C 35.873458 36.726997 36.34052 36.786455 36.787109 36.734375 C 37.437153 36.658567 37.619426 36.440519 37.697266 35.640625 C 37.776794 34.823345 37.450795 34.350284 36.830078 34.308594 z M 36.640625 35.199219 C 36.904625 35.199219 37.119141 35.343531 37.119141 35.519531 C 37.119141 35.695531 36.904625 35.839844 36.640625 35.839844 C 36.376625 35.839844 36.160156 35.695531 36.160156 35.519531 C 36.160156 35.343531 36.376625 35.199219 36.640625 35.199219 z "
       style="fill:#87786a;stroke-width:0.31999999;fill-opacity:1" />
    <path
       id="path857"
       d="M 18.951172 32.378906 C 18.83677 32.367933 18.715172 32.370149 18.589844 32.384766 C 17.75249 32.482427 17.382702 33.213702 17.722656 34.099609 C 18.005063 34.835552 19.756015 34.685331 20.003906 33.904297 C 20.251295 33.124842 19.751986 32.455719 18.951172 32.378906 z M 18.898438 32.960938 C 19.064051 32.960938 19.199219 33.175453 19.199219 33.439453 C 19.199219 33.934304 18.82327 34.075222 18.462891 33.714844 C 18.207233 33.459187 18.494924 32.960938 18.898438 32.960938 z "
       style="fill:#87786a;stroke-width:0.31999999;fill-opacity:1" />
    <path
       id="path853"
       d="M 37.771484 29.494141 C 37.490849 29.479306 37.201379 29.560921 36.945312 29.773438 C 36.311947 30.299081 36.358817 31.256773 37.039062 31.658203 C 37.781885 32.096562 38.412499 31.964091 38.84375 31.279297 C 39.367438 30.447722 38.613391 29.538645 37.771484 29.494141 z M 37.759766 30.400391 C 37.935766 30.400391 38.080078 30.544703 38.080078 30.720703 C 38.080078 30.896703 37.935766 31.039062 37.759766 31.039062 C 37.583766 31.039062 37.439453 30.896703 37.439453 30.720703 C 37.439453 30.544703 37.583766 30.400391 37.759766 30.400391 z "
       style="fill:#87786a;stroke-width:0.31999999;fill-opacity:1" />
    <path
       id="path849"
       d="m 27.009117,30.90242 c -0.526787,-0.368976 -0.76824,-1.20708 -1.246945,-4.328257 -0.384446,-2.506606 -0.484024,-3.980311 -0.282561,-4.181774 0.201463,-0.201463 1.000529,0.45894 2.267425,1.873956 3.245928,3.625431 3.815252,4.92558 2.794819,6.382453 -0.589716,0.841937 -2.49728,0.978885 -3.532738,0.253622 z"
       style="fill:#87786a;stroke-width:0.31999999;fill-opacity:1" />
    <path
       id="path847"
       d="M 26.015625 23.748047 C 26.000996 23.762691 25.999553 23.796285 26.015625 23.851562 C 26.116111 24.197167 26.372174 25.631062 26.583984 27.039062 C 26.795794 28.447063 27.1883 29.852156 27.455078 30.160156 C 28.114712 30.921716 29.647728 30.88752 30.068359 30.101562 C 30.295512 29.677122 30.29737 29.211146 30.072266 28.619141 C 29.697117 27.632385 26.235056 23.528379 26.015625 23.748047 z "
       style="fill:#87786a;stroke-width:0.31999999;fill-opacity:1" />
    <path
       id="path845"
       d="M 17.943359 26.667969 C 17.631099 26.649447 17.298885 26.732057 17.105469 26.892578 C 16.619913 27.295554 16.474446 28.529132 16.867188 28.921875 C 16.992601 29.047308 17.461617 29.106768 17.908203 29.054688 C 18.56094 28.978567 18.739389 28.76132 18.818359 27.947266 C 18.895635 27.15067 18.772064 26.888879 18.242188 26.720703 C 18.148723 26.691039 18.047446 26.674143 17.943359 26.667969 z M 17.759766 27.519531 C 18.023766 27.519531 18.240234 27.654699 18.240234 27.820312 C 18.240234 28.223825 17.740033 28.513471 17.484375 28.257812 C 17.123996 27.897434 17.264915 27.519531 17.759766 27.519531 z "
       style="fill:#87786a;stroke-width:0.31999999;fill-opacity:1" />
    <path
       id="path841"
       d="M 36.773438 23.878906 C 36.687972 23.883102 36.615547 23.895091 36.560547 23.916016 C 36.134448 24.078134 36.006608 25.658954 36.388672 26.041016 C 36.514083 26.166449 36.981145 26.225908 37.427734 26.173828 C 38.575974 26.039922 38.780861 24.440351 37.701172 24.039062 C 37.395308 23.925386 37.029835 23.866318 36.773438 23.878906 z M 37.046875 24.681641 C 37.164217 24.66006 37.318637 24.711216 37.472656 24.865234 C 37.702466 25.095051 37.708794 25.273125 37.490234 25.408203 C 37.311059 25.518939 37.067005 25.454252 36.949219 25.263672 C 36.759177 24.956175 36.851306 24.717608 37.046875 24.681641 z "
       style="fill:#87786a;stroke-width:0.31999999;fill-opacity:1" />
    <path
       id="path837"
       d="M 19.644531 21.798828 C 19.502082 21.789853 19.328093 21.799308 19.111328 21.820312 C 18.06848 21.921362 17.66907 22.564697 18.042969 23.539062 C 18.247682 24.072538 20.019524 24.167756 20.332031 23.662109 C 20.446981 23.476106 20.450452 22.962181 20.339844 22.521484 C 20.21243 22.013822 20.07188 21.825753 19.644531 21.798828 z M 19.199219 22.400391 C 19.375219 22.400391 19.519531 22.616859 19.519531 22.880859 C 19.519531 23.144859 19.375219 23.359375 19.199219 23.359375 C 19.023219 23.359375 18.880859 23.144859 18.880859 22.880859 C 18.880859 22.616859 19.023219 22.400391 19.199219 22.400391 z "
       style="fill:#87786a;stroke-width:0.31999999;fill-opacity:1" />
    <path
       id="path833"
       d="M 33.119141 19.359375 C 32.298165 19.359375 32.145017 19.493875 32.054688 20.285156 C 31.994695 20.810702 32.133253 21.327213 32.375 21.480469 C 32.609096 21.628871 32.943141 21.75 33.119141 21.75 C 33.855269 21.75 34.285397 21.159851 34.185547 20.285156 C 34.095217 19.493875 33.940117 19.359375 33.119141 19.359375 z M 33.119141 20.111328 C 33.286341 20.111328 33.475997 20.265878 33.539062 20.455078 C 33.602131 20.644278 33.412475 20.800781 33.119141 20.800781 C 32.825807 20.800781 32.638102 20.644278 32.701172 20.455078 C 32.764238 20.265878 32.951941 20.111328 33.119141 20.111328 z "
       style="fill:#87786a;stroke-width:0.31999999;fill-opacity:1" />
    <path
       id="path829"
       d="M 22.962891 17.964844 C 22.54535 17.991606 22.366366 18.159233 22.240234 18.556641 C 22.119611 18.936691 22.200632 19.43965 22.425781 19.710938 C 22.645256 19.975389 23.197279 20.148603 23.652344 20.095703 C 24.336961 20.01612 24.480469 19.833406 24.480469 19.039062 C 24.480469 18.195333 24.356798 18.068759 23.466797 17.982422 C 23.267648 17.963103 23.102071 17.955923 22.962891 17.964844 z M 23.25 18.619141 C 23.291119 18.605764 23.337466 18.605326 23.384766 18.621094 C 23.573966 18.684161 23.728516 18.871862 23.728516 19.039062 C 23.728516 19.206263 23.573966 19.395917 23.384766 19.458984 C 23.195566 19.52205 23.039062 19.332396 23.039062 19.039062 C 23.039062 18.819063 23.126644 18.659272 23.25 18.619141 z "
       style="fill:#87786a;stroke-width:0.31999999;fill-opacity:1" />
    <path
       id="path825"
       d="M 28.644531 17.759766 C 27.655798 17.759766 27.26689 18.401004 27.650391 19.400391 C 27.768608 19.708459 28.156003 19.84598 28.71875 19.78125 C 29.462677 19.69568 29.599609 19.530584 29.599609 18.720703 C 29.599609 17.868348 29.492995 17.759766 28.644531 17.759766 z M 28.640625 18.240234 C 28.904625 18.240234 29.119141 18.375402 29.119141 18.541016 C 29.119141 18.944529 28.620892 19.234174 28.365234 18.978516 C 28.004855 18.618137 28.145774 18.240234 28.640625 18.240234 z "
       style="fill:#87786a;stroke-width:0.31999999;fill-opacity:1" />
    <path
       id="path821"
       d="M 9.8439955,12.56 C 7.1508509,9.7880662 7.5616669,8.0719011 11.601496,5.2181206 14.346966,3.2786899 16.131862,2.5271246 18.471337,2.32544 20.404385,2.1587932 20.491548,2.1846791 21.44915,3.2097949 22.881706,4.7433514 24.004867,7.9702112 23.411356,8.8472454 23.29511,9.0190221 22.408,9.3345642 21.44,9.5484499 19.064806,10.073264 14.710157,11.890861 13.359118,12.921349 11.882391,14.047704 11.223617,13.979983 9.8439955,12.56 Z"
       style="fill:#87786a;stroke-width:0.31999999;fill-opacity:1" />
    <path
       id="path817"
       d="M 13.402206,12.025434 C 15.238185,10.789911 19.428876,9.0844746 21.405612,8.7683818 22.595769,8.5780682 22.72,8.4701277 22.72,7.6263533 22.72,6.3895197 21.67213,4.3892864 20.568928,3.5202643 19.820551,2.9307481 19.432731,2.852734 18.116126,3.0268578 16.312178,3.2654339 14.000401,4.3630995 11.693257,6.0765302 9.1988698,7.9290189 8.8428662,8.4342128 9.0654147,9.8056192 9.2378685,10.868326 10.926227,13.12 11.550617,13.12 c 0.123788,0 0.957003,-0.492555 1.851589,-1.094566 z"
       style="fill:#87786a;stroke-width:0.31999999;fill-opacity:1" />
  </g>
</svg>
