<?xml version="1.0" encoding="UTF-8" standalone="no"?>
<svg
   xmlns:dc="http://purl.org/dc/elements/1.1/"
   xmlns:cc="http://creativecommons.org/ns#"
   xmlns:rdf="http://www.w3.org/1999/02/22-rdf-syntax-ns#"
   xmlns:svg="http://www.w3.org/2000/svg"
   xmlns="http://www.w3.org/2000/svg"
   xmlns:sodipodi="http://sodipodi.sourceforge.net/DTD/sodipodi-0.dtd"
   xmlns:inkscape="http://www.inkscape.org/namespaces/inkscape"
   inkscape:version="1.0 (4035a4fb49, 2020-05-01)"
   sodipodi:docname="diy.svg"
   id="svg43"
   version="1.1"
   fill="none"
   viewBox="0 0 378 378"
   height="378"
   width="378">
  <metadata
     id="metadata47">
    <rdf:RDF>
      <cc:Work
         rdf:about="">
        <dc:format>image/svg+xml</dc:format>
        <dc:type
           rdf:resource="http://purl.org/dc/dcmitype/StillImage" />
        <dc:title></dc:title>
      </cc:Work>
    </rdf:RDF>
  </metadata>
  <sodipodi:namedview
     inkscape:current-layer="svg43"
     inkscape:window-maximized="0"
     inkscape:window-y="316"
     inkscape:window-x="2367"
     inkscape:cy="189"
     inkscape:cx="194.29957"
     inkscape:zoom="1.9444444"
     showgrid="false"
     id="namedview45"
     inkscape:window-height="1336"
     inkscape:window-width="1245"
     inkscape:pageshadow="2"
     inkscape:pageopacity="0"
     guidetolerance="10"
     gridtolerance="10"
     objecttolerance="10"
     borderopacity="1"
     bordercolor="#666666"
     pagecolor="#ffffff" />
  <g
     id="g36"
     clip-path="url(#clip0)">
    <rect
       id="rect2"
       fill="#FDEFCB"
       height="378"
       width="378" />
    <path
       id="path4"
       fill="#D8EEE2"
       d="M166.5 140C178.024 111.307 223.6 115.452 274 128.5C311.378 137.898 326.582 134.612 349.5 122.5L380 102V393.5H-13.5L-16 260C-10.8202 243.351 7.18616 240.437 50.5 240C71.4559 241.618 97.9909 233.286 101.5 222C114.701 206.357 95.6412 190.602 166.5 140Z" />
    <path
       id="path6"
       fill="#B6E3E0"
       d="M84.5 251C47.1556 249.039 27.4674 251.344 -6 260H-14V377H399V101C364.494 125.908 345.018 138.596 308.5 143.5C277.585 145.743 259.555 143.213 225.5 128.5L125 189.5C116.064 229.912 108.596 246.71 84.5 251Z" />
    <path
       id="path8"
       fill="#87C8C4"
       d="M206.5 169C218.024 140.307 239.6 140.452 290 153.5C327.378 162.898 342.582 159.612 365.5 147.5L396 127V418.5H0V285C5.17979 268.351 23.1862 265.437 66.5 265C114.094 262.796 129.608 239.186 149.5 181.5C161.952 171.305 187.544 183.274 206.5 169Z" />
    <path
       id="path10"
       fill="#64B3AF"
       d="M127.5 333C84.1866 340.204 66.0334 351.847 40 380.5H71.5C94.0913 364.379 106.779 355.363 137.5 348.5C215.889 338.612 255.223 323.887 319.5 281.5C341.63 265.858 356.077 260.729 388 262.5V234C344.562 221.864 332.59 233.862 311.528 254.971L311 255.5C277.592 289.223 165.203 332.149 127.5 333Z" />
    <path
       id="path12"
       fill="#64B3AF"
       d="M380 290C320.797 349.945 277.196 368.153 184.5 378.5L226.5 384C267.758 386.825 289.408 375.114 328.5 358.5C357.024 348.2 368.871 337.892 384.5 313.5L380 290Z" />
    <path
       id="path14"
       fill="#64B3AF"
       d="M144 252.5C101.56 308.726 66.8922 320.881 -2 330V352.5C90.048 327.215 113.367 308.648 151.5 275C216.841 207.857 253.338 188.623 318 214.5C361.302 223.809 378.246 221.077 399.5 206.5L403 171C392.738 195.284 384.608 206.488 344 200C257.509 183.099 214.618 198.608 144 252.5Z" />
    <path
       id="path16"
       fill="#E5E9FD"
       d="M236.979 129.372L259.733 236.216C259.819 236.62 259.842 237.035 259.801 237.447L258.933 246.127C258.887 246.589 258.758 247.047 258.554 247.466C249.646 265.812 241.784 272.691 222.863 278.326C188.164 284.645 174.328 282.443 159.518 269.408C159.087 269.029 158.745 268.554 158.517 268.028L127.363 196.326C114.029 164.459 113.822 146.617 134.024 116.084C134.549 115.29 134.731 114.299 134.5 113.374C134.126 111.877 132.78 110.826 131.236 110.826H131.02C129.437 110.826 128.036 109.803 127.553 108.295L125.196 100.929C124.694 99.3593 125.205 97.6383 126.496 96.6141C146.428 80.8037 160.044 75.4194 185.629 74.8665C187.276 74.8309 188.766 75.8331 189.378 77.3631L193.626 87.9837C194.09 89.1444 193.985 90.4554 193.342 91.5273L190.944 95.5249C190.267 96.6526 190.188 98.0408 190.732 99.2381L191.56 101.059C192.067 102.175 193.063 102.997 194.251 103.293C217.166 109.006 228.597 113.6 236.597 128.329C236.773 128.655 236.902 129.01 236.979 129.372Z" />
    <path
       id="path18"
       fill="#BCD3EB"
       d="M177.257 105.011L149.757 110.011C147.828 110.547 146.759 111.067 145.783 111.942C145.071 112.581 144.757 113.536 144.757 114.492V118.762C144.757 119.576 144.505 120.371 144.049 121.044C134.113 135.716 131.028 147.497 134.192 177.891C134.234 178.295 134.34 178.7 134.502 179.073L170.26 261.366C170.584 262.111 171.131 262.746 171.826 263.167C188.875 273.495 201.002 274.18 225.204 267.66C225.566 267.563 225.928 267.407 226.248 267.211C246.617 254.743 251.26 247.169 250.772 233.379C250.763 233.136 250.73 232.891 250.676 232.654L229.324 138.804C229.28 138.609 229.22 138.414 229.146 138.227C223.823 124.844 216.441 119.12 194.557 113.224C194.036 113.084 193.482 113.06 192.945 113.108C190.242 113.353 188.462 112.578 185.604 108.512C185.372 108.182 185.206 107.81 185.059 107.435C184.114 105.023 182.265 104.484 177.257 105.011Z" />
    <path
       id="path20"
       fill="#BB8C44"
       d="M128 76.8261C151.865 81.5655 162.88 78.0087 174.5 60.8259C153.329 58.133 142.626 61.6601 128 76.8261Z" />
    <path
       id="path22"
       fill="#806438"
       d="M174.522 60.8259L181.522 86.8259C162.454 99.4532 152.494 101.793 135.522 100.826C132.855 93.1593 127.622 77.6259 128.022 76.8259C152.046 79.9552 162.169 76.4655 174.522 60.8259Z" />
    <rect
       id="rect24"
       fill="white"
       transform="rotate(-16.567 141 145.835)"
       rx="14"
       height="112.657"
       width="73.6817"
       y="145.835"
       x="141" />
    <rect
       id="rect26"
       fill="#DF8F6F"
       transform="rotate(-16.567 149 150.896)"
       rx="9"
       height="97.8553"
       width="59.8643"
       y="150.896"
       x="149" />
    <path
       id="path28"
       fill="#4D3C34"
       d="M201 174.826C188.41 177.802 182.715 181.001 174 188.326C179.66 207.628 185.611 211.221 200 207.826L201 209.826L202 206.826C212.434 196.126 213.678 189.364 201 174.826Z" />
    <path
       id="path30"
       fill="#FAD127"
       d="M172.101 185.734C181.576 177.157 188.129 174.013 201.5 170.826C199.938 165.581 198.557 163.341 195 160.826C189.999 159.153 186.915 159.414 180.5 163.826L178.5 159.326L177 157.826L176.5 159.826L173.5 160.326L177.5 165.826C170.886 166.328 168.443 168.441 167 176.326C167.455 181.515 168.667 183.481 172.101 185.734Z" />
    <path
       id="path32"
       fill="#D18769"
       d="M203.992 190.436C203.889 185.535 202.985 183.249 200.524 180.556C200.241 180.246 199.757 180.243 199.46 180.54C199.196 180.804 199.167 181.221 199.38 181.528C200.998 183.86 201.786 186.192 202.894 190.576C202.956 190.825 203.18 191 203.436 191C203.747 191 203.998 190.746 203.992 190.436Z" />
    <ellipse
       id="ellipse34"
       fill="#DF8F6F"
       ry="1.5"
       rx="1"
       cy="194.5"
       cx="204" />
  </g>
  <defs
     id="defs41">
    <clipPath
       id="clip0">
      <rect
         id="rect38"
         fill="white"
         height="378"
         width="378" />
    </clipPath>
  </defs>
</svg>
