<?xml version="1.0" encoding="UTF-8" standalone="no"?>
<svg
   xmlns:dc="http://purl.org/dc/elements/1.1/"
   xmlns:cc="http://creativecommons.org/ns#"
   xmlns:rdf="http://www.w3.org/1999/02/22-rdf-syntax-ns#"
   xmlns:svg="http://www.w3.org/2000/svg"
   xmlns="http://www.w3.org/2000/svg"
   xmlns:sodipodi="http://sodipodi.sourceforge.net/DTD/sodipodi-0.dtd"
   xmlns:inkscape="http://www.inkscape.org/namespaces/inkscape"
   inkscape:version="1.0 (4035a4fb49, 2020-05-01)"
   sodipodi:docname="fossile-temp.svg"
   id="svg29"
   version="1.1"
   fill="none"
   viewBox="0 0 291 292"
   height="292"
   width="291">
  <metadata
     id="metadata35">
    <rdf:RDF>
      <cc:Work
         rdf:about="">
        <dc:format>image/svg+xml</dc:format>
        <dc:type
           rdf:resource="http://purl.org/dc/dcmitype/StillImage" />
        <dc:title></dc:title>
      </cc:Work>
    </rdf:RDF>
  </metadata>
  <defs
     id="defs33" />
  <sodipodi:namedview
     inkscape:current-layer="svg29"
     inkscape:window-maximized="0"
     inkscape:window-y="334"
     inkscape:window-x="1108"
     inkscape:cy="146"
     inkscape:cx="56.509524"
     inkscape:zoom="2.5171233"
     inkscape:pagecheckerboard="true"
     showgrid="false"
     id="namedview31"
     inkscape:window-height="1318"
     inkscape:window-width="2504"
     inkscape:pageshadow="2"
     inkscape:pageopacity="0"
     guidetolerance="10"
     gridtolerance="10"
     objecttolerance="10"
     borderopacity="1"
     bordercolor="#666666"
     pagecolor="#ffffff" />
  <circle
     id="circle2"
     fill="#FDEFCB"
     r="145"
     cy="145.717"
     cx="145.782" />
  <mask
     height="290"
     width="290"
     y="2"
     x="1"
     maskUnits="userSpaceOnUse"
     mask-type="alpha"
     id="mask0">
    <circle
       id="circle4"
       fill="#CA9C63"
       r="145"
       cy="147"
       cx="146" />
  </mask>
  <g
     id="g27"
     mask="url(#mask0)">
    <ellipse
       id="ellipse7"
       fill="#CA9C63"
       ry="145"
       rx="152.631"
       cy="147"
       cx="145.631" />
    <path
       id="path9"
       fill="#DAB481"
       d="M172.123 289.653C163.65 291.195 154.919 292 146 292C107.736 292 72.9329 277.178 47.02 252.963C99.9527 243.632 128.493 248.846 172.123 289.653Z"
       clip-rule="evenodd"
       fill-rule="evenodd" />
    <path
       id="path11"
       fill="#DAB481"
       d="M2.83374 170.124C15.9126 174.937 31.3836 174.805 58.9999 174.5C122.162 182.366 160.827 204.226 233.5 262.5L233.542 262.602C225.362 268.806 216.503 274.161 207.097 278.538L207 278.5C153.686 222.678 108.625 211.366 15.1344 209.522C9.25894 197.246 5.0599 184.015 2.83374 170.124Z"
       clip-rule="evenodd"
       fill-rule="evenodd" />
    <path
       id="path13"
       fill="#DAB481"
       d="M170.421 129.79C173.046 129.599 175.722 129.933 178.217 130.766C236.525 150.227 274.797 164.051 294.504 156.045C297.734 154.732 299.918 151.832 301.367 148.661L316.423 115.722C316.489 115.576 316.524 115.417 316.524 115.256C316.524 114.438 315.673 113.896 314.928 114.235C298.965 121.484 287.636 123.552 266.956 122.7C264.242 122.589 261.585 121.87 259.144 120.677C224.395 103.697 202.035 97.3793 158.63 96C114.449 90.8047 84.0816 90.2054 9.93731 98.9675C7.05867 99.3077 4.11402 98.7251 1.59573 97.2897C-5.88613 93.025 -15.395 96.7506 -17.9883 104.963L-18.5428 106.719C-21.3762 115.691 -15.3476 125.027 -6.00413 126.137L-2.94753 126.5C52.5317 139.01 96.1738 135.18 170.421 129.79Z" />
    <path
       id="path15"
       fill="#FDEFCB"
       d="M74.2819 71.7173L15.2819 82.2173C12.2819 73.7173 6.68192 56.6173 8.28192 56.2173C10.2819 55.7173 54.2819 11.7173 56.2819 11.2173C58.2819 10.7173 127.782 -23.7826 127.282 -26.7826C126.882 -29.1826 209.782 -11.116 251.282 -1.78264L283.782 89.7174C253.377 79.466 236.232 74.5854 205.282 69.2173C153.556 63.8962 124.917 64.942 74.2819 71.7173Z" />
    <path
       id="path17"
       fill="#DAB481"
       d="M225 177C255.029 194.657 267.773 196.263 286 190L288.5 205.5L267.5 229C251.011 226.45 241.739 224.056 225 212V177Z" />
    <path
       id="path19"
       fill="#515483"
       d="M236.779 148.739L227.829 182.749C227.611 183.579 227.5 184.435 227.5 185.294V207.682C227.5 209.836 226.804 211.933 225.516 213.66L207.803 237.411C206.321 239.399 204.153 240.765 201.72 241.245L173.625 246.778C172.877 246.926 172.116 246.987 171.354 246.961L100.959 244.583C99.3437 244.529 97.7658 244.083 96.3604 243.286L66.5639 226.374C63.434 224.598 61.5 221.276 61.5 217.677V175.5L55.5385 133.311C55.1919 130.858 55.768 128.364 57.1552 126.312L89.638 78.2547C90.8468 76.4664 92.6018 75.1172 94.6408 74.4087L146.517 56.3839C149.064 55.499 151.86 55.68 154.271 56.8857L216.653 88.0764C219.109 89.3044 220.952 91.4883 221.749 94.1158L236.677 143.29C237.215 145.062 237.25 146.948 236.779 148.739Z" />
    <path
       id="path21"
       fill="#FAF3DC"
       d="M163 216.5L158.5 205.5L152.5 217L144 218L152.5 223.5L154.5 233.5L161 224.5L172 222L163 216.5Z" />
    <path
       id="path23"
       fill="#FAF3DC"
       d="M76 147.5C77.9765 172.363 81.7921 185.45 92.377 194.692C98.8992 200.387 108.939 202.103 115.309 196.238C117.741 193.999 120.025 191.129 122.601 187.578C124.537 184.909 126.431 181.546 125.59 178.357C124.929 175.849 122.945 174.194 121.026 172.449C113.377 165.495 110.382 159.162 108.991 148.265C108.588 145.111 108.705 141.898 109.359 138.787C113.066 121.173 120.434 115.719 133.45 111.934C138.39 110.497 143.636 110.297 148.668 111.365C160.405 113.858 166.869 117.964 169.091 131.889C169.42 133.947 169.479 136.055 169.263 138.128C168.254 147.801 164.924 152.065 157.953 154.921C153.822 156.613 149.174 156.744 144.893 155.48C141.375 154.44 139.285 153.22 137.96 151.31C137.202 150.217 137.011 148.657 137.833 147.611C138.826 146.346 140.707 147.088 142.131 147.835C143.306 148.451 144.414 148.791 145.777 148.93C147.244 149.081 148.72 148.782 150.102 148.267C154.426 146.657 157.197 144.846 158.808 141.349C161.035 136.511 160.018 130.695 157.376 126.071C155.066 122.027 152.037 119.784 146.587 118.884C144.22 118.493 141.791 118.611 139.427 119.024C125.04 121.538 120.318 127.89 118.367 143.196C118.088 145.389 118.059 147.619 118.278 149.82C120.221 169.327 126.982 177.663 148.593 183.721C150.511 184.259 152.508 184.5 154.5 184.5C171.975 182.375 179.284 177.334 189.5 164C194.484 157.003 196.179 151.091 197.5 137.5V135C193.085 98.6404 182.607 85.786 150.813 78.7917C148.29 78.2366 145.699 78 143.115 78H140C121.959 78.6402 112.793 82.3381 99.9864 92.1558C97.9844 93.6906 96.1682 95.4618 94.5522 97.3988C82.2361 112.161 76.2945 122.525 76 147.5Z" />
    <path
       id="path25"
       fill="#FAF3DC"
       d="M186.5 193.5L172 203L187 213.5L190.5 227.5L204.5 214.5L215 216.5L213.5 199L217 186.5L202.5 187.5L191 179L186.5 193.5Z" />
  </g>
</svg>
