<?xml version="1.0" encoding="UTF-8" standalone="no"?>
<svg
   xmlns:dc="http://purl.org/dc/elements/1.1/"
   xmlns:cc="http://creativecommons.org/ns#"
   xmlns:rdf="http://www.w3.org/1999/02/22-rdf-syntax-ns#"
   xmlns:svg="http://www.w3.org/2000/svg"
   xmlns="http://www.w3.org/2000/svg"
   xmlns:sodipodi="http://sodipodi.sourceforge.net/DTD/sodipodi-0.dtd"
   xmlns:inkscape="http://www.inkscape.org/namespaces/inkscape"
   inkscape:version="1.0 (4035a4fb49, 2020-05-01)"
   sodipodi:docname="glow.svg"
   id="svg58"
   version="1.1"
   fill="none"
   viewBox="0 0 378 378"
   height="378"
   width="378">
  <metadata
     id="metadata62">
    <rdf:RDF>
      <cc:Work
         rdf:about="">
        <dc:format>image/svg+xml</dc:format>
        <dc:type
           rdf:resource="http://purl.org/dc/dcmitype/StillImage" />
        <dc:title></dc:title>
      </cc:Work>
    </rdf:RDF>
  </metadata>
  <sodipodi:namedview
     inkscape:current-layer="svg58"
     inkscape:window-maximized="0"
     inkscape:window-y="316"
     inkscape:window-x="2367"
     inkscape:cy="-63.619406"
     inkscape:cx="372.47092"
     inkscape:zoom="0.68746493"
     showgrid="false"
     id="namedview60"
     inkscape:window-height="1336"
     inkscape:window-width="1245"
     inkscape:pageshadow="2"
     inkscape:pageopacity="0"
     guidetolerance="10"
     gridtolerance="10"
     objecttolerance="10"
     borderopacity="1"
     bordercolor="#666666"
     pagecolor="#ffffff" />
  <g
     id="g46"
     clip-path="url(#clip0)">
    <rect
       id="rect2"
       fill="#FDEFCB"
       height="378"
       width="378" />
    <path
       id="path4"
       fill="#BAC93A"
       d="M21 115L0 124V407H383V124L377 109.5L358 124L349 115L338.5 124L323 100L312.5 124L305.5 113L290.5 124L276 100L256.5 124L250.5 113L233 124L225.5 100L206 126.5L200.5 115L185.5 126.5L179 105L165 124L158.5 117L151.5 124L146 115L134 124L122.5 109.5L114 124L106 115L94.5 124L90 100L64 126.5V113L49 126.5L47 100L26 126.5L21 115Z" />
    <path
       id="path6"
       fill="url(#paint0_linear)"
       d="M69 192.668L86.8481 295L291.5 275.5L304 218.752L231.616 141L69 192.668Z" />
    <path
       id="path8"
       fill="#3D3310"
       d="M223.5 259.5L259.5 244L188 255.5L131 234L157.5 266.5L87 294L185 290L221 320.5L217.5 287.5L292 275.5L223.5 259.5Z" />
    <path
       id="path10"
       fill="#C7D35C"
       d="M180 137L188.5 180L216.5 149L180 137Z" />
    <path
       id="path12"
       fill="#C7D35C"
       d="M300.5 179.5L283.5 157L263 179.5H300.5Z" />
    <path
       id="path14"
       fill="#C7D35C"
       d="M39.5 284.5L22.5 262L2 284.5H39.5Z" />
    <path
       id="path16"
       fill="#C7D35C"
       d="M353.5 357.5L336.5 335L316 357.5H353.5Z" />
    <path
       id="path18"
       fill="#C7D35C"
       d="M79.5 318L54 325L72.5 343.5L79.5 318Z" />
    <path
       id="path20"
       fill="#C7D35C"
       d="M338.5 177L313 184L331.5 202.5L338.5 177Z" />
    <path
       id="path22"
       fill="#C7D35C"
       d="M172 334.5L152 313.5L185 308L172 334.5Z" />
    <path
       id="path24"
       fill="#C7D35C"
       d="M300 287H333L313.5 316L300 287Z" />
    <path
       id="path26"
       fill="#C7D35C"
       d="M31 139H64L44.5 168L31 139Z" />
    <path
       id="path28"
       fill="#C7D35C"
       d="M238 357H271L251.5 386L238 357Z" />
    <path
       id="path30"
       fill="#C7D35C"
       d="M19 215L8 174L-15 206L19 215Z" />
    <path
       id="path32"
       fill="#C7D35C"
       d="M390 248L379 207L356 239L390 248Z" />
    <path
       id="path34"
       fill="#C7D35C"
       d="M102.5 180L83 202.5H122.5L102.5 180Z" />
    <path
       id="path36"
       fill="#C7D35C"
       d="M90 235L79 249.5H101L90 235Z" />
    <path
       id="path38"
       fill="#C7D35C"
       d="M56.5 368.5L39.5 346L19 368.5H56.5Z" />
    <path
       id="path40"
       fill="#DCAB57"
       d="M166.944 120.635L171.805 119.662C174.204 119.183 176.644 118.941 179.09 118.941H183.019C184.409 118.941 185.79 118.717 187.109 118.278C189.604 117.446 191.787 115.873 193.365 113.768L193.758 113.244C195.71 110.642 196.765 107.477 196.765 104.225V101.471V99.2462C196.765 96.8793 197.316 94.5449 198.374 92.4279C199.85 89.4773 202.242 87.0849 205.193 85.6096C207.31 84.5511 209.644 84 212.011 84H219.744C221.238 84 222.723 84.2409 224.14 84.7135L229.681 86.5604C232.05 87.3499 233.647 89.5662 233.647 92.0626C233.647 94.2594 234.888 96.2676 236.853 97.2501L238.925 98.286C240.549 99.0981 241.908 100.356 242.842 101.914L244.873 105.299C246.344 107.75 246.461 110.784 245.182 113.342C244.028 115.65 241.873 117.296 239.342 117.802L237.712 118.128C235.147 118.641 232.963 120.309 231.793 122.649C230.526 125.183 230.609 128.184 232.015 130.644L237.529 140.294L245.391 157.59C246.617 160.287 247.559 163.105 248.202 165.998L250.115 174.607C250.781 177.605 251.118 180.667 251.118 183.739V185.805C251.118 191.604 249.64 197.307 246.823 202.377C243.307 208.706 237.868 213.753 231.294 216.787L224.693 219.834C219.082 222.424 212.976 223.765 206.797 223.765H191.539C187.282 223.765 183.049 223.128 178.98 221.876L163.26 217.039C161.012 216.348 158.825 215.471 156.721 214.419L146.034 209.076C139.835 205.976 134.461 201.314 130.487 195.637C125.65 188.727 123 180.417 123 171.983C123 168.984 123.328 165.993 123.979 163.066L124.185 162.14C125.947 154.211 129.933 146.95 135.676 141.206L142.412 134.471L147.526 130.087C153.082 125.325 159.768 122.07 166.944 120.635Z" />
    <path
       id="path42"
       fill="#E35531"
       d="M219.747 138.028L186.043 117.967C185.543 117.669 185.402 117.01 185.735 116.534L189.127 111.689C189.346 111.375 189.725 111.215 190.103 111.275L202.446 113.234C202.54 113.249 202.632 113.277 202.719 113.318L224.426 123.656L229.58 126.601C229.702 126.67 229.808 126.764 229.89 126.877L254.48 160.383C254.777 160.789 254.727 161.352 254.363 161.699L251.414 164.508C250.992 164.909 250.318 164.867 249.95 164.416L237.12 148.707C236.525 147.978 235.346 148.399 235.346 149.339V168.412C235.346 168.964 234.898 169.412 234.346 169.412H231.687C231.262 169.412 230.884 169.143 230.744 168.742L220.179 138.557C220.101 138.336 219.948 138.149 219.747 138.028Z" />
    <path
       id="path44"
       fill="#4C3B33"
       d="M189 138.353L177.353 150H156L165.706 167.47L154.059 186.882L175.412 183L190.941 198.529L194.824 177.176L214.235 167.47L192.882 155.823L189 138.353Z" />
  </g>
  <defs
     id="defs56">
    <linearGradient
       gradientUnits="userSpaceOnUse"
       y2="156"
       x2="193.5"
       y1="305"
       x1="197"
       id="paint0_linear">
      <stop
         id="stop48"
         stop-color="#EDE130" />
      <stop
         id="stop50"
         stop-opacity="0"
         stop-color="#EDE130"
         offset="1" />
    </linearGradient>
    <clipPath
       id="clip0">
      <rect
         id="rect53"
         fill="white"
         height="378"
         width="378" />
    </clipPath>
  </defs>
</svg>
