<?xml version="1.0" encoding="UTF-8" standalone="no"?>
<!-- Created with Inkscape (http://www.inkscape.org/) -->

<svg
   xmlns:dc="http://purl.org/dc/elements/1.1/"
   xmlns:cc="http://creativecommons.org/ns#"
   xmlns:rdf="http://www.w3.org/1999/02/22-rdf-syntax-ns#"
   xmlns:svg="http://www.w3.org/2000/svg"
   xmlns="http://www.w3.org/2000/svg"
   xmlns:sodipodi="http://sodipodi.sourceforge.net/DTD/sodipodi-0.dtd"
   xmlns:inkscape="http://www.inkscape.org/namespaces/inkscape"
   version="1.1"
   id="svg2"
   width="108.8"
   height="96"
   viewBox="0 0 108.8 96"
   sodipodi:docname="birthday-dark.png">
  <metadata
     id="metadata8">
    <rdf:RDF>
      <cc:Work
         rdf:about="">
        <dc:format>image/svg+xml</dc:format>
        <dc:type
           rdf:resource="http://purl.org/dc/dcmitype/StillImage" />
      </cc:Work>
    </rdf:RDF>
  </metadata>
  <defs
     id="defs6" />
  <sodipodi:namedview
     pagecolor="#ffffff"
     bordercolor="#666666"
     borderopacity="1"
     objecttolerance="10"
     gridtolerance="10"
     guidetolerance="10"
     inkscape:pageopacity="0"
     inkscape:pageshadow="2"
     inkscape:window-width="640"
     inkscape:window-height="480"
     id="namedview4"
     showgrid="false" />
  <path
     style="fill:#000000;stroke-width:0.31999999"
     d="M 26.200236,76.524127 24.96,75.275293 V 69.637648 64 H 54.4 83.84 l -0.0047,5.36 c -0.0052,5.922182 0.285445,6.3195 -1.455064,7.492428 L 80.865354,77.76 H 54.15503 27.444706 Z"
     id="path849"
     inkscape:connector-curvature="0"
     sodipodi:nodetypes="cccccccccccc" />
  <path
     style="fill:#000000;stroke-width:0.31999999"
     d="m 81.527978,76.478658 c 0.576384,-0.351421 1.188384,-1.008259 1.36,-1.459635 C 83.05959,74.567645 83.2,72.047712 83.2,69.419168 V 64.64 H 54.4 25.6 v 4.981037 c 0,2.907958 0.141682,5.245773 0.340423,5.617123 0.187233,0.34985 0.799233,0.915843 1.36,1.257766 0.987544,0.602151 1.838959,0.62168 27.099577,0.62168 25.502496,0 26.103206,-0.01414 27.127978,-0.63895 z"
     id="path847" />
  <path
     style="fill:#000000;stroke-width:0.31999999"
     d="m 24.93906,58.8 c -0.01152,-0.22 -0.0064,-2.776 0.01131,-5.68 0.03597,-5.888502 0.184539,-6.37489 2.272372,-7.439504 1.017979,-0.519078 2.977959,-0.559536 27.128891,-0.56 28.837501,-6.4e-4 27.503616,-0.09634 28.843318,2.071344 0.581008,0.940093 0.645043,1.587926 0.645043,6.52593 L 83.84,59.2 H 54.4 c -23.327499,0 -29.444348,-0.08305 -29.46094,-0.4 z"
     id="path845" />
  <path
     style="fill:#000000;stroke-width:0.31999999"
     d="M 83.2,53.435299 V 48.310602 L 82.104698,47.115299 81.009392,45.92 55.624698,45.824138 c -13.961584,-0.05272 -26.022826,-0.004 -26.80276,0.108316 -0.999878,0.143962 -1.684043,0.488906 -2.32,1.169703 L 25.6,48.067683 V 53.313843 58.56 h 28.8 28.8 z"
     id="path843" />
  <path
     style="fill:#000000;stroke-width:0.31999999"
     d="m 36.43545,44.188938 c -0.702826,-0.568496 -0.763005,-0.872068 -0.863924,-4.358061 -0.147273,-5.087328 0.02022,-5.839805 1.431021,-6.429277 1.265229,-0.528646 2.181226,-0.355782 3.237453,0.61096 0.67791,0.620477 0.72,0.90912 0.72,4.937766 0,4.116218 -0.02982,4.308602 -0.785456,5.064218 -0.966963,0.966966 -2.661533,1.046003 -3.739094,0.174394 z"
     id="path841" />
  <path
     style="fill:#000000;stroke-width:0.31999999"
     d="M 39.381037,43.828742 C 39.946966,43.525866 40,43.120074 40,39.092742 c 0,-4.810288 -0.123411,-5.175977 -1.744,-5.167843 -1.864822,0.0094 -1.936,0.192032 -1.936,4.96857 0,3.943737 0.05895,4.400406 0.621162,4.811894 0.734707,0.537744 1.585264,0.580752 2.439875,0.123379 z"
     id="path839" />
  <path
     style="fill:#000000;stroke-width:0.31999999"
     d="m 51.84,44.16 c -0.580512,-0.580512 -0.64,-1.066666 -0.64,-5.230403 0,-4.028618 0.0711,-4.654752 0.580998,-5.116202 0.956996,-0.866067 2.332983,-0.95672 3.499002,-0.230518 1.515063,0.587041 0.778908,3.459784 1.040004,5.23664 0.08584,4.382154 -0.03323,4.620144 -0.740624,5.284704 -0.967857,0.909251 -2.857719,0.93744 -3.73938,0.05578 z"
     id="path837" />
  <path
     style="fill:#000000;stroke-width:0.31999999"
     d="m 55.016173,43.6 c 0.650217,-0.529958 0.682163,-0.791363 0.595453,-4.872762 L 55.52,34.414477 54.64,34.105466 c -0.565805,-0.198682 -1.194195,-0.198682 -1.76,0 l -0.915955,0.362943 -0.05364,4.223028 c -0.0463,3.644954 -0.0099,4.365075 0.449597,4.872761 0.677206,0.748304 1.764016,0.762954 2.656173,0.0358 z"
     id="path835" />
  <path
     style="fill:#000000;stroke-width:0.31999999"
     d="m 67.591203,44.301856 c -0.682902,-0.478323 -0.567385,-0.69544 -0.567385,-5.45633 0.198961,-2.036299 -0.482782,-4.447121 1.14744,-5.437616 1.34799,-0.563225 2.979488,-0.156832 3.5112,0.836679 C 71.857104,34.570925 72,36.780941 72,39.155738 c 0,4.283456 -0.0067,4.323088 -0.843155,4.981036 -0.999629,0.786308 -2.574611,0.859226 -3.565642,0.165082 z"
     id="path833" />
  <path
     style="fill:#000000;stroke-width:0.31999999"
     d="M 70.648797,43.661856 C 71.319821,43.191853 71.36,42.935661 71.36,39.127053 71.36,34.584941 71.096224,33.92 69.294403,33.92 67.639629,33.92 67.52,34.268429 67.52,39.088099 c 0,3.852983 0.06963,4.440656 0.56,4.726269 0.812048,0.472976 1.755786,0.416944 2.568797,-0.152512 z"
     id="path831" />
  <path
     style="fill:#000000;stroke-width:0.31999999"
     d="M 36.369597,31.734803 C 36.078317,31.412945 35.84,30.904838 35.84,30.605678 35.84,29.724286 37.730038,26.24 38.208144,26.24 c 0.512275,0 1.273222,1.488142 1.835021,3.588653 0.321472,1.201945 0.317203,1.57713 -0.02259,1.986573 -0.600099,0.723078 -2.971072,0.670851 -3.650963,-0.08042 z"
     id="path829" />
  <path
     style="fill:#000000;stroke-width:0.31999999"
     d="m 39.295494,31.277723 c 0.236679,-0.285177 0.15721,-0.903898 -0.272998,-2.125515 -0.333773,-0.947781 -0.680512,-1.796891 -0.770534,-1.886912 -0.09002,-0.09002 -0.530484,0.665748 -0.978807,1.679486 -0.632233,1.429597 -0.732073,1.943239 -0.44496,2.28919 0.461079,0.555568 2.019594,0.583204 2.467299,0.04375 z"
     id="path827" />
  <path
     style="fill:#000000;stroke-width:0.31999999"
     d="m 52.08,31.974368 c -0.308,-0.179393 -0.56,-0.665591 -0.56,-1.080439 0,-0.994145 1.794646,-4.973929 2.242944,-4.973929 0.192342,0 0.561997,0.54 0.821456,1.2 0.259459,0.66 0.593802,1.420726 0.742982,1.690503 0.627412,1.134601 0.710452,2.465949 0.18649,2.989909 -0.581088,0.581089 -2.562531,0.681466 -3.433872,0.173956 z"
     id="path825" />
  <path
     style="fill:#000000;stroke-width:0.31999999"
     d="m 54.974384,30.860083 c 0.05191,-0.362954 -0.214333,-1.370954 -0.591651,-2.24 L 53.696704,27.04 52.928352,28.761038 c -1.13871,2.550607 -0.998317,2.950015 0.991648,2.821136 0.700346,-0.04536 0.98553,-0.240665 1.054384,-0.722091 z"
     id="path823" />
  <path
     style="fill:#000000;stroke-width:0.31999999"
     d="M 67.591203,31.821855 C 67.200042,31.547875 66.88,31.11228 66.88,30.853866 66.88,30.195715 69.067846,25.92 69.404618,25.92 c 0.363568,0 1.641312,2.988583 1.863728,4.359183 0.103718,0.639139 0.012,1.271222 -0.2261,1.558109 -0.522787,0.629921 -2.542563,0.620887 -3.451043,-0.01544 z"
     id="path821" />
  <path
     style="fill:#000000;stroke-width:0.31999999"
     d="m 70.606486,31.194253 c 0.102519,-0.267161 0.02986,-0.879161 -0.161475,-1.36 C 70.25368,29.353414 69.936979,28.528 69.741226,28 l -0.355914,-0.96 -0.758195,1.44 c -0.844215,1.603372 -0.991987,2.743999 -0.387117,2.98807 0.862982,0.348221 2.186554,0.195076 2.366486,-0.273817 z"
     id="path817" />
</svg>
