<?xml version="1.0" encoding="UTF-8" standalone="no"?>
<svg
   xmlns:dc="http://purl.org/dc/elements/1.1/"
   xmlns:cc="http://creativecommons.org/ns#"
   xmlns:rdf="http://www.w3.org/1999/02/22-rdf-syntax-ns#"
   xmlns:svg="http://www.w3.org/2000/svg"
   xmlns="http://www.w3.org/2000/svg"
   xmlns:sodipodi="http://sodipodi.sourceforge.net/DTD/sodipodi-0.dtd"
   xmlns:inkscape="http://www.inkscape.org/namespaces/inkscape"
   width="200"
   height="281"
   viewBox="0 0 200 281"
   fill="none"
   version="1.1"
   id="svg33"
   sodipodi:docname="checkboard.svg"
   inkscape:version="0.92.5 (2060ec1f9f, 2020-04-08)">
  <metadata
     id="metadata37">
    <rdf:RDF>
      <cc:Work
         rdf:about="">
        <dc:format>image/svg+xml</dc:format>
        <dc:type
           rdf:resource="http://purl.org/dc/dcmitype/StillImage" />
        <dc:title></dc:title>
      </cc:Work>
    </rdf:RDF>
  </metadata>
  <sodipodi:namedview
     pagecolor="#ffffff"
     bordercolor="#666666"
     borderopacity="1"
     objecttolerance="10"
     gridtolerance="10"
     guidetolerance="10"
     inkscape:pageopacity="0"
     inkscape:pageshadow="2"
     inkscape:window-width="2504"
     inkscape:window-height="1318"
     id="namedview35"
     showgrid="false"
     inkscape:zoom="3.3594306"
     inkscape:cx="78.259601"
     inkscape:cy="131.23827"
     inkscape:window-x="1108"
     inkscape:window-y="334"
     inkscape:window-maximized="0"
     inkscape:current-layer="g26" />
  <g
     clip-path="url(#clip0)"
     id="g26"
     style="fill:#000000;fill-opacity:1"
     transform="translate(-0.05262103)">
    <path
       d="M 7.90698,272.326 0,264.419 V 153.488 42.5582 l 7.90698,-7.907 c 6.66522,-6.6652 9.56162,-7.907 18.44292,-7.907 9.1556,0 10.6333,-0.6855 11.2791,-5.2326 0.6812,-4.7965 2.1363,-5.2892 17.4636,-5.913 L 71.8131,14.9182 72.5345,7.45909 73.2558,0 h 24.4186 24.4186 l 0.722,7.46636 0.722,7.46634 19.045,0.6732 19.046,0.6732 v 18.6046 18.6047 l -61.254,0.6204 c -59.7314,0.605 -61.2847,0.5038 -62.4807,-4.0698 -1.4639,-5.5979 -8.2206,-6.1237 -13.3086,-1.0357 -3.2086,3.2086 -3.6545,15.816 -3.6545,103.3227 0,87.506 0.4459,100.113 3.6545,103.322 3.1643,3.164 13.2789,3.654 75.4153,3.654 62.136,0 72.251,-0.49 75.415,-3.654 3.209,-3.209 3.655,-15.816 3.655,-103.322 0,-87.5067 -0.446,-100.1141 -3.655,-103.3227 -2.01,-2.0099 -12.4107,-3.891295 -14.2377,-3.891295 -2.326,0 -3.98675,-3.302712 -0.95506,-9.065505 L 158.90672,26.586337 174.651,26.7442 c 7.74261,0.07763 11.021,1.4861 17.442,7.907 L 200,42.5582 V 153.488 264.419 l -7.907,7.907 -7.907,7.907 H 100 15.8139 Z"
       id="path2"
       style="fill:#fffeff;fill-opacity:1"
       inkscape:connector-curvature="0"
       sodipodi:nodetypes="cccccscccccccccccccscsscssscsscsccccccccc" />
    <path
       d="m 183.384,272.268 c 3.524,-1.823 7.658,-6.058 9.186,-9.412 3.955,-8.68 3.955,-210.0543 0,-218.7344 -4.878,-10.7074 -22.803,-17.0545 -22.803,-8.0746 0,2.5582 1.226,4.6512 2.724,4.6512 1.498,0 4.638,1.732 6.977,3.8488 3.999,3.6189 4.253,10.034 4.253,107.375 0,93.069 -0.389,103.956 -3.849,107.779 -3.578,3.954 -9.163,4.253 -79.468,4.253 -67.1009,0 -76.0983,-0.434 -79.8721,-3.849 -3.9988,-3.619 -4.2529,-10.034 -4.2529,-107.375 0,-93.0685 0.3888,-103.9556 3.8488,-107.7789 2.1168,-2.3391 5.7796,-4.2529 8.1395,-4.2529 2.7404,0 4.2908,-1.6806 4.2908,-4.6512 0,-9.4632 -20.0774,-3.0118 -25.12869,8.0746 -4.20982,9.2395 -3.77874,211.9164 0.46703,219.5764 6.30896,11.383 8.87696,11.714 91.63756,11.802 62.599,0.066 78.669,-0.553 83.85,-3.232 z"
       id="path4"
       style="fill:#fffeff;fill-opacity:1"
       inkscape:connector-curvature="0" />
    <path
       d="M 156.977,34.883 V 20.9295 l -19.046,-0.6732 -19.045,-0.6732 -0.722,-7.4663 -0.722,-7.46641 H 97.6745 77.9071 l -0.7214,7.45911 -0.7214,7.4591 -16.7205,0.6804 -16.7205,0.6805 -0.7205,11.3324 c -1.2098,19.0283 -5.045,17.8955 58.2212,17.1974 l 56.453,-0.6229 z"
       id="path6"
       style="fill:#fffeff;fill-opacity:1"
       inkscape:connector-curvature="0" />
    <path
       d="m 145.922,191.734 c -6.46,-0.083 -13.043,1.223 -16.082,3.974 -5.646,5.11 -5.914,25.361 -0.412,31.441 5.109,5.645 25.361,5.899 31.44,0.397 5.646,-5.109 5.9,-25.346 0.398,-31.426 -2.555,-2.823 -8.885,-4.303 -15.344,-4.386 z m -0.568,11.753 c 7.752,0 8.133,0.395 8.133,8.147 0,7.752 -0.381,8.134 -8.133,8.134 -7.752,0 -8.148,-0.382 -8.148,-8.134 0,-7.752 0.396,-8.147 8.148,-8.147 z"
       id="path8"
       style="fill:#fffeff;fill-opacity:1"
       inkscape:connector-curvature="0" />
    <path
       d="m 42.7242,214.013 c -0.7488,-1.951 -0.7488,-5.144 0,-7.095 1.1554,-3.011 6.9103,-3.451 38.0395,-2.907 l 36.6783,0.641 v 5.814 5.814 l -36.6783,0.64 c -31.1292,0.544 -36.8841,0.104 -38.0395,-2.907 z"
       id="path10"
       style="fill:#fffeff;fill-opacity:1"
       inkscape:connector-curvature="0" />
    <path
       d="m 111.628,210.464 c 0,-1.435 -12.0158,-2.325 -31.3956,-2.325 -19.3799,0 -31.3954,0.89 -31.3954,2.325 0,1.436 12.0155,2.326 31.3954,2.326 19.3798,0 31.3956,-0.89 31.3956,-2.326 z"
       id="path12"
       style="fill:#fffeff;fill-opacity:1"
       inkscape:connector-curvature="0" />
    <path
       d="m 145.922,133.595 c -6.46,-0.084 -13.043,1.223 -16.082,3.974 -5.646,5.109 -5.914,25.36 -0.412,31.44 5.109,5.646 25.361,5.9 31.44,0.398 5.646,-5.11 5.9,-25.347 0.398,-31.426 -2.555,-2.823 -8.885,-4.303 -15.344,-4.386 z m -0.568,11.752 c 7.752,0 8.133,0.396 8.133,8.148 0,7.752 -0.381,8.133 -8.133,8.133 -7.752,0 -8.148,-0.381 -8.148,-8.133 0,-7.752 0.396,-8.148 8.148,-8.148 z"
       id="path14"
       style="fill:#fffeff;fill-opacity:1"
       inkscape:connector-curvature="0" />
    <path
       d="m 42.7242,155.874 c -0.7488,-1.951 -0.7488,-5.144 0,-7.096 1.1554,-3.011 6.9103,-3.45 38.0395,-2.907 l 36.6783,0.641 v 5.814 5.814 l -36.6783,0.641 c -31.1292,0.544 -36.8841,0.104 -38.0395,-2.907 z"
       id="path16"
       style="fill:#fffeff;fill-opacity:1"
       inkscape:connector-curvature="0" />
    <path
       d="m 111.628,152.325 c 0,-1.436 -12.0158,-2.326 -31.3956,-2.326 -19.3799,0 -31.3954,0.89 -31.3954,2.326 0,1.435 12.0155,2.325 31.3954,2.325 19.3798,0 31.3956,-0.89 31.3956,-2.325 z"
       id="path18"
       style="fill:#fffeff;fill-opacity:1"
       inkscape:connector-curvature="0" />
    <path
       d="m 145.922,75.4549 c -6.46,-0.0831 -13.043,1.2234 -16.082,3.9744 -5.646,5.1094 -5.914,25.3607 -0.412,31.4397 5.109,5.646 25.361,5.9 31.44,0.398 5.646,-5.11 5.9,-25.3464 0.398,-31.4261 -2.555,-2.8229 -8.885,-4.3029 -15.344,-4.386 z m -0.568,11.7528 c 7.752,0 8.133,0.3956 8.133,8.1475 0,7.7518 -0.381,8.1328 -8.133,8.1328 -7.752,0 -8.148,-0.381 -8.148,-8.1328 0,-7.752 0.396,-8.1475 8.148,-8.1475 z"
       id="path20"
       style="fill:#fffeff;fill-opacity:1"
       inkscape:connector-curvature="0" />
    <path
       d="m 42.7242,97.7344 c -0.7488,-1.9512 -0.7488,-5.1442 0,-7.0954 1.1554,-3.0109 6.9103,-3.4507 38.0395,-2.9069 l 36.6783,0.6407 v 5.8139 5.8143 l -36.6783,0.64 c -31.1292,0.544 -36.8841,0.104 -38.0395,-2.9066 z"
       id="path22"
       style="fill:#fffeff;fill-opacity:1"
       inkscape:connector-curvature="0" />
    <path
       d="m 111.628,94.1854 c 0,-1.4355 -12.0158,-2.3255 -31.3956,-2.3255 -19.3799,0 -31.3954,0.89 -31.3954,2.3255 0,1.4356 12.0155,2.3256 31.3954,2.3256 19.3798,0 31.3956,-0.89 31.3956,-2.3256 z"
       id="path24"
       style="fill:#fffeff;fill-opacity:1"
       inkscape:connector-curvature="0" />
  </g>
  <defs
     id="defs31">
    <clipPath
       id="clip0">
      <rect
         width="200"
         height="280.233"
         fill="white"
         id="rect28" />
    </clipPath>
  </defs>
</svg>
