<?xml version="1.0" encoding="UTF-8" standalone="no"?>
<svg
   xmlns:dc="http://purl.org/dc/elements/1.1/"
   xmlns:cc="http://creativecommons.org/ns#"
   xmlns:rdf="http://www.w3.org/1999/02/22-rdf-syntax-ns#"
   xmlns:svg="http://www.w3.org/2000/svg"
   xmlns="http://www.w3.org/2000/svg"
   xmlns:sodipodi="http://sodipodi.sourceforge.net/DTD/sodipodi-0.dtd"
   xmlns:inkscape="http://www.inkscape.org/namespaces/inkscape"
   version="1.1"
   id="svg2"
   width="73.527893"
   height="95.900528"
   viewBox="0 0 73.527893 95.900525"
   sodipodi:docname="clipboard.svg"
   inkscape:version="1.0 (4035a4fb49, 2020-05-01)">
  <metadata
     id="metadata8">
    <rdf:RDF>
      <cc:Work
         rdf:about="">
        <dc:format>image/svg+xml</dc:format>
        <dc:type
           rdf:resource="http://purl.org/dc/dcmitype/StillImage" />
        <dc:title></dc:title>
      </cc:Work>
    </rdf:RDF>
  </metadata>
  <defs
     id="defs6" />
  <sodipodi:namedview
     lock-margins="false"
     pagecolor="#ffffff"
     bordercolor="#666666"
     borderopacity="1"
     objecttolerance="10"
     gridtolerance="10"
     guidetolerance="10"
     inkscape:pageopacity="0"
     inkscape:pageshadow="2"
     inkscape:window-width="2504"
     inkscape:window-height="1336"
     id="namedview4"
     showgrid="false"
     inkscape:pagecheckerboard="true"
     fit-margin-top="0"
     fit-margin-left="0"
     fit-margin-right="0"
     fit-margin-bottom="0"
     inkscape:zoom="1.1568627"
     inkscape:cx="-517.40716"
     inkscape:cy="-52.213252"
     inkscape:window-x="1108"
     inkscape:window-y="316"
     inkscape:window-maximized="0"
     inkscape:current-layer="svg2"
     inkscape:document-rotation="0" />
  <path
     style="fill:#ffffff;fill-opacity:1;stroke-width:0.32"
     d="M 52.939804,1.2153691e-4 C 48.81026,0.00172154 43.374172,0.01740154 36.17074,0.03900154 l -29.3268734,0.08766 -1.714688,0.95015996 c -2.140616,1.185648 -3.688488,2.967128 -4.52859155,5.212496 -0.640536,1.711992 -0.6474,2.231704 -0.562496,42.2653125 l 0.085776,40.532334 0.95015955,1.71469 c 1.16064,2.09547 2.949064,3.67594 5.105624,4.51125 1.577448,0.61102 2.472233,0.62718 31.0645294,0.56157 l 29.439848,-0.0675 1.71468,-0.95015 c 2.140624,-1.18565 3.688496,-2.96714 4.5286,-5.21251 0.640536,-1.711986 0.647392,-2.23169 0.562496,-42.265304 L 73.404028,6.8466415 72.45434,5.1319535 C 71.267812,2.9897615 69.486444,1.4435775 67.23574,0.60148954 65.95438,0.12206554 65.328444,-0.00368646 52.939804,8.1536907e-5 Z M 33.40418,12.926842 h 12.96 12.96 l 1.391248,0.7964 c 4.113928,2.355216 4.113928,8.531976 0,10.887192 l -1.391248,0.796408 -12.48,0.05952 c -6.864,0.0328 -12.874096,-0.06208 -13.355624,-0.210936 -1.622784,-0.50172 -2.984336,-1.568872 -3.767344,-2.952656 -1.686936,-2.981288 -0.64024,-6.901264 2.291248,-8.579536 z m -17.390624,0.956712 c 2.11696,0.01104 4.225504,1.0434 5.384536,3.09188 1.652768,2.921128 0.683576,6.83204 -2.09672,8.461408 -1.467632,0.860088 -3.693088,1.21008 -5.012816,0.787968 -4.036312,-1.291008 -5.8062804,-5.730128 -3.710624,-9.306096 1.193288,-2.036192 3.318664,-3.046216 5.435624,-3.03516 z m 0,19.200008 c 2.11696,0.01104 4.225504,1.043392 5.384536,3.091872 1.652768,2.921128 0.683576,6.83204 -2.09672,8.461408 -1.467632,0.860088 -3.693088,1.21008 -5.012816,0.787968 -4.036312,-1.291008 -5.8062804,-5.730128 -3.710624,-9.306096 1.193288,-2.036192 3.318664,-3.046216 5.435624,-3.035152 z m 17.390624,0.0032 h 12.96 12.96 l 1.391248,0.7964 c 4.113928,2.355216 4.113928,8.531976 0,10.887192 l -1.391248,0.796408 -12.48,0.05952 c -6.864,0.03272 -12.874096,-0.06208 -13.355624,-0.210936 -1.622784,-0.501728 -2.984336,-1.568864 -3.767344,-2.952656 -1.686936,-2.981288 -0.64024,-6.901264 2.291248,-8.579536 z M 16.013556,52.283474 c 2.11696,0.01104 4.225504,1.043392 5.384536,3.091872 1.652768,2.921128 0.683576,6.83204 -2.09672,8.461408 -1.467632,0.860088 -3.693088,1.21008 -5.012816,0.787968 -4.036312,-1.291008 -5.8062804,-5.730128 -3.710624,-9.306096 1.193288,-2.036192 3.318664,-3.046216 5.435624,-3.035152 z m 17.390624,0.0032 h 12.96 12.96 l 1.391248,0.7964 c 4.113928,2.355216 4.113928,8.531976 0,10.887192 l -1.391248,0.796408 -12.48,0.05952 c -6.864,0.03272 -12.874096,-0.06208 -13.355624,-0.210936 -1.622784,-0.501728 -2.984336,-1.568864 -3.767344,-2.952656 -1.686936,-2.981288 -0.64024,-6.901264 2.291248,-8.579536 z"
     id="path831"
     inkscape:connector-curvature="0" />
</svg>
