<?xml version="1.0" encoding="UTF-8" standalone="no"?>
<!-- Created with Inkscape (http://www.inkscape.org/) -->

<svg
   xmlns:dc="http://purl.org/dc/elements/1.1/"
   xmlns:cc="http://creativecommons.org/ns#"
   xmlns:rdf="http://www.w3.org/1999/02/22-rdf-syntax-ns#"
   xmlns:svg="http://www.w3.org/2000/svg"
   xmlns="http://www.w3.org/2000/svg"
   xmlns:sodipodi="http://sodipodi.sourceforge.net/DTD/sodipodi-0.dtd"
   xmlns:inkscape="http://www.inkscape.org/namespaces/inkscape"
   version="1.1"
   id="svg2"
   width="306.36621"
   height="399.58548"
   viewBox="0 0 306.36621 399.58548"
   sodipodi:docname="clipboard.svg"
   inkscape:version="0.92.5 (2060ec1f9f, 2020-04-08)">
  <metadata
     id="metadata8">
    <rdf:RDF>
      <cc:Work
         rdf:about="">
        <dc:format>image/svg+xml</dc:format>
        <dc:type
           rdf:resource="http://purl.org/dc/dcmitype/StillImage" />
        <dc:title />
      </cc:Work>
    </rdf:RDF>
  </metadata>
  <defs
     id="defs6" />
  <sodipodi:namedview
     pagecolor="#ffffff"
     bordercolor="#666666"
     borderopacity="1"
     objecttolerance="10"
     gridtolerance="10"
     guidetolerance="10"
     inkscape:pageopacity="0"
     inkscape:pageshadow="2"
     inkscape:window-width="2504"
     inkscape:window-height="1318"
     id="namedview4"
     showgrid="false"
     inkscape:pagecheckerboard="true"
     fit-margin-top="0"
     fit-margin-left="0"
     fit-margin-right="0"
     fit-margin-bottom="0"
     inkscape:zoom="1.1568627"
     inkscape:cx="34.673036"
     inkscape:cy="99.629182"
     inkscape:window-x="1108"
     inkscape:window-y="334"
     inkscape:window-maximized="0"
     inkscape:current-layer="svg2" />
  <path
     style="fill:#ffffff;stroke-width:1.33333337;fill-opacity:1"
     d="M 220.58252,3.3894179e-4 C 203.37607,0.00556594 180.72571,0.07234034 150.71143,0.16244831 L 28.516121,0.52768268 21.371589,4.4866671 C 12.452353,9.4268751 6.0028688,16.849704 2.5024486,26.205417 -0.16646084,33.338716 -0.19503834,35.504167 0.15869856,202.31089 l 0.3574218,168.88476 3.95898444,7.14454 c 4.836021,8.73113 12.2877902,15.31638 21.2734382,18.79687 6.572704,2.54587 10.300962,2.61326 129.435537,2.33984 l 122.66602,-0.28125 7.14453,-3.95898 c 8.91924,-4.9402 15.36871,-12.36305 18.86914,-21.71875 2.66891,-7.13331 2.69748,-9.29875 2.34375,-176.10547 L 305.8501,28.527683 301.89307,21.383151 C 296.94923,12.457359 289.52684,6.0149264 280.14893,2.5061983 274.8099,0.50861418 272.20186,-0.01534218 220.58252,3.3894179e-4 Z M 139.18408,53.861667 h 54 54 l 5.79688,3.318359 c 17.14136,9.813388 17.14136,35.549897 0,45.363284 l -5.79688,3.31836 -52,0.24805 c -28.6,0.13649 -53.64205,-0.2586 -55.64843,-0.87891 -6.76161,-2.09051 -12.43474,-6.536953 -15.69727,-12.302737 -7.02891,-12.42202 -2.66767,-28.755245 9.54688,-35.748047 z m -72.460928,3.986328 c 8.820673,0.04609 17.606247,4.34747 22.435547,12.882813 6.886556,12.171354 2.848247,28.466844 -8.736328,35.255862 -6.115128,3.5837 -15.387859,5.042 -20.886719,3.2832 C 42.717691,103.89067 35.342802,85.394361 44.074714,70.494479 49.046745,62.01035 57.902479,57.801905 66.723152,57.847995 Z m 0,80.000005 c 8.820673,0.0461 17.606247,4.34747 22.435547,12.88281 6.886556,12.17136 2.848247,28.46685 -8.736328,35.25586 -6.115128,3.58371 -15.387859,5.042 -20.886719,3.2832 -16.817961,-5.3792 -24.19285,-23.87551 -15.460938,-38.77539 4.972031,-8.48412 13.827765,-12.69257 22.648438,-12.64648 z m 72.460928,0.0137 h 54 54 l 5.79688,3.31836 c 17.14136,9.81339 17.14136,35.54989 0,45.36328 l -5.79688,3.31836 -52,0.24805 c -28.6,0.1365 -53.64205,-0.2586 -55.64843,-0.87891 -6.76161,-2.09052 -12.43474,-6.53694 -15.69727,-12.30273 -7.02891,-12.42203 -2.66767,-28.75525 9.54688,-35.74805 z M 66.723152,217.848 c 8.820673,0.0461 17.606247,4.34747 22.435547,12.88281 6.886556,12.17136 2.848247,28.46685 -8.736328,35.25586 -6.115128,3.58371 -15.387859,5.042 -20.886719,3.2832 -16.817961,-5.3792 -24.19285,-23.87551 -15.460938,-38.77539 4.972031,-8.48412 13.827765,-12.69257 22.648438,-12.64648 z m 72.460928,0.0137 h 54 54 l 5.79688,3.31836 c 17.14136,9.81339 17.14136,35.54989 0,45.36328 l -5.79688,3.31836 -52,0.24805 c -28.6,0.1365 -53.64205,-0.2586 -55.64843,-0.87891 -6.76161,-2.09052 -12.43474,-6.53694 -15.69727,-12.30273 -7.02891,-12.42203 -2.66767,-28.75525 9.54688,-35.74805 z"
     id="path831"
     inkscape:connector-curvature="0" />
</svg>
