<?xml version="1.0" encoding="UTF-8" standalone="no"?>
<svg
   xmlns:dc="http://purl.org/dc/elements/1.1/"
   xmlns:cc="http://creativecommons.org/ns#"
   xmlns:rdf="http://www.w3.org/1999/02/22-rdf-syntax-ns#"
   xmlns:svg="http://www.w3.org/2000/svg"
   xmlns="http://www.w3.org/2000/svg"
   xmlns:sodipodi="http://sodipodi.sourceforge.net/DTD/sodipodi-0.dtd"
   xmlns:inkscape="http://www.inkscape.org/namespaces/inkscape"
   width="98.913002"
   height="54.7826"
   viewBox="0 0 98.913002 54.7826"
   fill="none"
   version="1.1"
   id="svg16"
   sodipodi:docname="mobile-signal.svg"
   inkscape:version="1.0 (4035a4fb49, 2020-05-01)">
  <metadata
     id="metadata22">
    <rdf:RDF>
      <cc:Work
         rdf:about="">
        <dc:format>image/svg+xml</dc:format>
        <dc:type
           rdf:resource="http://purl.org/dc/dcmitype/StillImage" />
        <dc:title></dc:title>
      </cc:Work>
    </rdf:RDF>
  </metadata>
  <defs
     id="defs20" />
  <sodipodi:namedview
     inkscape:document-rotation="0"
     pagecolor="#ffffff"
     bordercolor="#666666"
     borderopacity="1"
     objecttolerance="10"
     gridtolerance="10"
     guidetolerance="10"
     inkscape:pageopacity="0"
     inkscape:pageshadow="2"
     inkscape:window-width="2504"
     inkscape:window-height="1318"
     id="namedview18"
     showgrid="false"
     inkscape:pagecheckerboard="true"
     lock-margins="true"
     fit-margin-top="0"
     fit-margin-left="0"
     fit-margin-right="0"
     fit-margin-bottom="0"
     inkscape:zoom="4.724759"
     inkscape:cx="-19.346468"
     inkscape:cy="41.23538"
     inkscape:window-x="1108"
     inkscape:window-y="334"
     inkscape:window-maximized="0"
     inkscape:current-layer="svg16" />
  <path
     style="fill:#eee4cb;fill-opacity:1"
     d="m 98.913,35 c 0,-1.9984 -0.3739,-3.9772 -1.1004,-5.8235 -0.7265,-1.8462 -1.7914,-3.5238 -3.1338,-4.9368 -1.3424,-1.4131 -2.9361,-2.534 -4.69,-3.2988 -1.754,-0.7647 -3.6338,-1.1583 -5.5323,-1.1583 -1.8984,0 -3.7783,0.3936 -5.5323,1.1583 -1.7539,0.7648 -3.3476,1.8857 -4.69,3.2988 -1.3424,1.413 -2.4073,3.0906 -3.1338,4.9368 C 70.3739,31.0228 70,33.0016 70,35 h 5.5605 c 0,-1.2297 0.2301,-2.4474 0.6772,-3.5835 0.447,-1.1362 1.1023,-2.1685 1.9284,-3.038 0.8261,-0.8696 1.8068,-1.5593 2.8861,-2.0299 1.0793,-0.4706 2.2361,-0.7128 3.4043,-0.7128 1.1683,0 2.3251,0.2422 3.4044,0.7128 1.0793,0.4706 2.06,1.1603 2.8861,2.0299 0.826,0.8695 1.4813,1.9018 1.9284,3.038 0.447,1.1361 0.6771,2.3538 0.6771,3.5835 z"
     fill="#dfd9d0"
     id="path4" />
  <path
     style="fill:#eee4cb;fill-opacity:1"
     d="m 63.913,35 c 0,-1.9984 -0.3739,-3.9772 -1.1004,-5.8235 -0.7265,-1.8462 -1.7914,-3.5238 -3.1338,-4.9368 -1.3424,-1.4131 -2.9361,-2.534 -4.69,-3.2988 -1.754,-0.7647 -3.6338,-1.1583 -5.5323,-1.1583 -1.8984,0 -3.7783,0.3936 -5.5323,1.1583 -1.7539,0.7648 -3.3476,1.8857 -4.69,3.2988 -1.3424,1.413 -2.4073,3.0906 -3.1338,4.9368 C 35.3739,31.0228 35,33.0016 35,35 h 5.5605 c 0,-1.2297 0.2301,-2.4474 0.6772,-3.5835 0.447,-1.1362 1.1023,-2.1685 1.9284,-3.038 0.8261,-0.8696 1.8068,-1.5593 2.8861,-2.0299 1.0793,-0.4706 2.2361,-0.7128 3.4043,-0.7128 1.1683,0 2.3251,0.2422 3.4044,0.7128 1.0793,0.4706 2.06,1.1603 2.8861,2.0299 0.826,0.8695 1.4813,1.9018 1.9284,3.038 0.447,1.1361 0.6771,2.3538 0.6771,3.5835 z"
     fill="#dfd9d0"
     id="path6" />
  <path
     style="fill:#eee4cb;fill-opacity:1"
     d="m 98.913,54.7826 c 0,-1.9984 -0.3739,-3.9772 -1.1004,-5.8234 -0.7265,-1.8463 -1.7914,-3.5238 -3.1338,-4.9369 -1.3424,-1.4131 -2.9361,-2.534 -4.69,-3.2987 -1.754,-0.7648 -3.6338,-1.1584 -5.5323,-1.1584 -1.8984,0 -3.7783,0.3936 -5.5323,1.1584 -1.7539,0.7647 -3.3476,1.8856 -4.69,3.2987 -1.3424,1.4131 -2.4073,3.0906 -3.1338,4.9369 C 70.3739,50.8054 70,52.7842 70,54.7826 h 5.5605 c 0,-1.2297 0.2301,-2.4474 0.6772,-3.5835 0.447,-1.1361 1.1023,-2.1684 1.9284,-3.038 0.8261,-0.8695 1.8068,-1.5593 2.8861,-2.0299 1.0793,-0.4706 2.2361,-0.7128 3.4043,-0.7128 1.1683,0 2.3251,0.2422 3.4044,0.7128 1.0793,0.4706 2.06,1.1604 2.8861,2.0299 0.826,0.8696 1.4813,1.9019 1.9284,3.038 0.447,1.1361 0.6771,2.3538 0.6771,3.5835 z"
     fill="#dfd9d0"
     id="path8" />
  <path
     style="fill:#eee4cb;fill-opacity:1"
     d="m 63.913,54.7826 c 0,-1.9984 -0.3739,-3.9772 -1.1004,-5.8234 -0.7265,-1.8463 -1.7914,-3.5238 -3.1338,-4.9369 -1.3424,-1.4131 -2.9361,-2.534 -4.69,-3.2987 -1.754,-0.7648 -3.6338,-1.1584 -5.5323,-1.1584 -1.8984,0 -3.7783,0.3936 -5.5323,1.1584 -1.7539,0.7647 -3.3476,1.8856 -4.69,3.2987 -1.3424,1.4131 -2.4073,3.0906 -3.1338,4.9369 C 35.3739,50.8054 35,52.7842 35,54.7826 h 5.5605 c 0,-1.2297 0.2301,-2.4474 0.6772,-3.5835 0.447,-1.1361 1.1023,-2.1684 1.9284,-3.038 0.8261,-0.8695 1.8068,-1.5593 2.8861,-2.0299 1.0793,-0.4706 2.2361,-0.7128 3.4043,-0.7128 1.1683,0 2.3251,0.2422 3.4044,0.7128 1.0793,0.4706 2.06,1.1604 2.8861,2.0299 0.826,0.8696 1.4813,1.9019 1.9284,3.038 0.447,1.1361 0.6771,2.3538 0.6771,3.5835 z"
     fill="#dfd9d0"
     id="path10" />
  <path
     style="fill:#eee4cb;fill-opacity:1"
     d="m 28.913,54.7826 c 0,-1.9984 -0.3739,-3.9772 -1.1004,-5.8234 -0.7265,-1.8463 -1.7914,-3.5238 -3.1338,-4.9369 -1.3424,-1.4131 -2.9361,-2.534 -4.69,-3.2987 -1.754,-0.7648 -3.6338,-1.1584 -5.5323,-1.1584 -1.8984,0 -3.7783,0.3936 -5.53225,1.1584 C 7.1703,41.4883 5.57663,42.6092 4.23422,44.0223 2.8918,45.4354 1.82694,47.1129 1.10044,48.9592 0.373929,50.8054 -1.6596794e-7,52.7842 0,54.7826 h 5.56051 c 0,-1.2297 0.2301,-2.4474 0.67717,-3.5835 0.44707,-1.1361 1.10234,-2.1684 1.92841,-3.038 0.82607,-0.8695 1.80676,-1.5593 2.88611,-2.0299 1.0793,-0.4706 2.2361,-0.7128 3.4043,-0.7128 1.1683,0 2.3251,0.2422 3.4044,0.7128 1.0793,0.4706 2.06,1.1604 2.8861,2.0299 0.826,0.8696 1.4813,1.9019 1.9284,3.038 0.447,1.1361 0.6771,2.3538 0.6771,3.5835 z"
     fill="#dfd9d0"
     id="path12" />
  <path
     style="fill:#eee4cb;fill-opacity:1"
     d="m 98.913,15.2174 c 0,-1.9984 -0.3739,-3.9772 -1.1004,-5.82345 C 97.0861,7.54769 96.0212,5.87014 94.6788,4.45707 93.3364,3.044 91.7427,1.9231 89.9888,1.15835 88.2348,0.393609 86.355,-8.7351785e-8 84.4565,0 82.5581,8.7351815e-8 80.6782,0.39361 78.9242,1.15836 77.1703,1.9231 75.5766,3.04401 74.2342,4.45707 72.8918,5.87014 71.8269,7.54769 71.1004,9.39395 70.3739,11.2402 70,13.219 70,15.2174 h 5.5605 c 0,-1.2297 0.2301,-2.4474 0.6772,-3.5835 0.447,-1.1362 1.1023,-2.16846 1.9284,-3.03801 0.8261,-0.86955 1.8068,-1.55932 2.8861,-2.02991 1.0793,-0.4706 2.2361,-0.71281 3.4043,-0.71281 1.1683,0 2.3251,0.24221 3.4044,0.71281 1.0793,0.47059 2.06,1.16036 2.8861,2.02991 0.826,0.86954 1.4813,1.90181 1.9284,3.03801 0.447,1.1361 0.6771,2.3538 0.6771,3.5835 z"
     fill="#dfd9d0"
     id="path14" />
</svg>
