<?xml version="1.0" encoding="UTF-8" standalone="no"?>
<svg
   xmlns:dc="http://purl.org/dc/elements/1.1/"
   xmlns:cc="http://creativecommons.org/ns#"
   xmlns:rdf="http://www.w3.org/1999/02/22-rdf-syntax-ns#"
   xmlns:svg="http://www.w3.org/2000/svg"
   xmlns="http://www.w3.org/2000/svg"
   xmlns:sodipodi="http://sodipodi.sourceforge.net/DTD/sodipodi-0.dtd"
   xmlns:inkscape="http://www.inkscape.org/namespaces/inkscape"
   inkscape:version="1.0 (4035a4fb49, 2020-05-01)"
   sodipodi:docname="mobile-pin.svg"
   id="svg6"
   version="1.1"
   fill="none"
   viewBox="0 0 86 86"
   height="86"
   width="86">
  <metadata
     id="metadata12">
    <rdf:RDF>
      <cc:Work
         rdf:about="">
        <dc:format>image/svg+xml</dc:format>
        <dc:type
           rdf:resource="http://purl.org/dc/dcmitype/StillImage" />
        <dc:title></dc:title>
      </cc:Work>
    </rdf:RDF>
  </metadata>
  <defs
     id="defs10" />
  <sodipodi:namedview
     inkscape:current-layer="svg6"
     inkscape:window-maximized="0"
     inkscape:window-y="334"
     inkscape:window-x="1108"
     inkscape:cy="40.587541"
     inkscape:cx="-97.954911"
     inkscape:zoom="3.0216482"
     inkscape:pagecheckerboard="false"
     showgrid="false"
     id="namedview8"
     inkscape:window-height="1318"
     inkscape:window-width="2504"
     inkscape:pageshadow="2"
     inkscape:pageopacity="0"
     guidetolerance="10"
     gridtolerance="10"
     objecttolerance="10"
     borderopacity="1"
     bordercolor="#666666"
     pagecolor="#ffffff"
     inkscape:document-rotation="0" />
  <path
     id="path2"
     fill="#DFD9D0"
     d="M63.0626 46.4444C64.9331 43.099 66 39.2382 66 35.127C66 22.3543 55.7025 12 43 12C30.2975 12 20 22.3543 20 35.127C20 39.2382 21.0669 43.099 22.9374 46.4444H22.9362L22.9436 46.4555C23.5743 47.582 24.2961 48.65 25.099 49.6494L40.4492 72.3956C41.1264 73.3991 42.2541 74 43.4602 74C44.6984 74 45.8515 73.3669 46.5211 72.3197L61.6023 48.7305C62.1282 48.0046 62.6131 47.2468 63.0536 46.4605L63.0638 46.4444H63.0626ZM42.5 43C46.6421 43 50 39.6421 50 35.5C50 31.3579 46.6421 28 42.5 28C38.3579 28 35 31.3579 35 35.5C35 39.6421 38.3579 43 42.5 43Z"
     clip-rule="evenodd"
     fill-rule="evenodd"
     style="stroke:none;stroke-opacity:1;fill:#eee4cb;fill-opacity:1" />
  <circle
     id="circle4"
     stroke-width="5"
     stroke="#DDDAD2"
     cy="43"
     cx="43"
     r="40.5"
     style="stroke:#eee4cb;stroke-opacity:1" />
</svg>
