<?xml version="1.0" encoding="UTF-8" standalone="no"?>
<svg
   xmlns:dc="http://purl.org/dc/elements/1.1/"
   xmlns:cc="http://creativecommons.org/ns#"
   xmlns:rdf="http://www.w3.org/1999/02/22-rdf-syntax-ns#"
   xmlns:svg="http://www.w3.org/2000/svg"
   xmlns="http://www.w3.org/2000/svg"
   xmlns:sodipodi="http://sodipodi.sourceforge.net/DTD/sodipodi-0.dtd"
   xmlns:inkscape="http://www.inkscape.org/namespaces/inkscape"
   inkscape:version="1.0 (4035a4fb49, 2020-05-01)"
   sodipodi:docname="mobile-cog.svg"
   id="svg20"
   version="1.1"
   fill="none"
   viewBox="0 0 70 69"
   height="69"
   width="70">
  <metadata
     id="metadata26">
    <rdf:RDF>
      <cc:Work
         rdf:about="">
        <dc:format>image/svg+xml</dc:format>
        <dc:type
           rdf:resource="http://purl.org/dc/dcmitype/StillImage" />
        <dc:title></dc:title>
      </cc:Work>
    </rdf:RDF>
  </metadata>
  <defs
     id="defs24" />
  <sodipodi:namedview
     inkscape:current-layer="svg20"
     inkscape:window-maximized="0"
     inkscape:window-y="316"
     inkscape:window-x="2367"
     inkscape:cy="76.734337"
     inkscape:cx="94.80032"
     inkscape:zoom="1.3315217"
     showgrid="false"
     id="namedview22"
     inkscape:window-height="1336"
     inkscape:window-width="1245"
     inkscape:pageshadow="2"
     inkscape:pageopacity="0"
     guidetolerance="10"
     gridtolerance="10"
     objecttolerance="10"
     borderopacity="1"
     bordercolor="#666666"
     pagecolor="#ffffff" />
  <path
     id="path2"
     fill="#EEE4CB"
     d="M28.6079 67.3719L26.3596 60.3944H42.873L40.6247 67.3719C40.2083 68.3567 39.6988 68.7344 38.1438 69L30.5461 68.845C29.3992 68.5845 29.0355 68.2128 28.6079 67.3719Z" />
  <path
     id="path4"
     fill="#EEE4CB"
     d="M7.0578 53.5166L10.3805 46.982L22.0955 58.6205L15.5828 61.9859C14.5933 62.391 13.9657 62.2998 12.6753 61.3924L7.39462 55.9276C6.76456 54.9345 6.76849 54.4145 7.0578 53.5166Z" />
  <path
     id="path6"
     fill="#EEE4CB"
     d="M1.62806 28.4528L8.60559 26.2045L8.60559 42.718L1.62806 40.4697C0.643312 40.0532 0.265642 39.5437 -2.67029e-05 37.9888L0.155029 30.391C0.415482 29.2441 0.787156 28.8804 1.62806 28.4528Z" />
  <path
     id="path8"
     fill="#EEE4CB"
     d="M53.6051 61.9751L47.0994 58.5962L58.8385 46.982L62.1476 53.5235C62.5442 54.5164 62.4476 55.1432 61.5291 56.4257L56.0189 61.6591C55.0204 62.2806 54.5005 62.2721 53.6051 61.9751Z" />
  <path
     id="path10"
     fill="#EEE4CB"
     d="M40.6247 1.62809L42.873 8.60562H26.3595L28.6078 1.62809C29.0243 0.643343 29.5338 0.265673 31.0887 3.8147e-06L38.6865 0.15506C39.8334 0.415512 40.1971 0.787186 40.6247 1.62809Z" />
  <path
     id="path12"
     fill="#EEE4CB"
     d="M62.1747 15.4834L58.8521 22.018L47.1371 10.3795L53.6497 7.0141C54.6392 6.609 55.2668 6.70016 56.5572 7.6076L61.8379 13.0724C62.468 14.0655 62.4641 14.5855 62.1747 15.4834Z" />
  <path
     id="path14"
     fill="#EEE4CB"
     d="M67.6045 40.5472L60.627 42.7955V26.282L67.6045 28.5303C68.5892 28.9468 68.9669 29.4563 69.2326 31.0112L69.0775 38.609C68.8171 39.7559 68.4454 40.1196 67.6045 40.5472Z" />
  <path
     id="path16"
     fill="#EEE4CB"
     d="M15.6275 7.0249L22.1331 10.4038L10.394 22.018L7.08492 15.4765C6.68838 14.4836 6.78495 13.8568 7.70348 12.5743L13.2136 7.34091C14.2121 6.71944 14.7321 6.72786 15.6275 7.0249Z" />
  <path
     id="path18"
     fill="#EEE4CB"
     d="M34.6551 61.7124C19.5833 61.7124 7.36517 49.4943 7.36517 34.4225C7.36517 19.3507 19.5833 7.1326 34.6551 7.1326C49.7268 7.1326 61.9449 19.3507 61.9449 34.4225C61.9449 49.4943 49.7268 61.7124 34.6551 61.7124ZM34.655 49.9281C26.0915 49.9281 19.1494 42.986 19.1494 34.4225C19.1494 25.859 26.0915 18.9169 34.655 18.9169C43.2185 18.9169 50.1606 25.859 50.1606 34.4225C50.1606 42.986 43.2185 49.9281 34.655 49.9281Z"
     clip-rule="evenodd"
     fill-rule="evenodd" />
</svg>
