<?xml version="1.0" encoding="UTF-8" standalone="no"?>
<svg
   xmlns:dc="http://purl.org/dc/elements/1.1/"
   xmlns:cc="http://creativecommons.org/ns#"
   xmlns:rdf="http://www.w3.org/1999/02/22-rdf-syntax-ns#"
   xmlns:svg="http://www.w3.org/2000/svg"
   xmlns="http://www.w3.org/2000/svg"
   xmlns:sodipodi="http://sodipodi.sourceforge.net/DTD/sodipodi-0.dtd"
   xmlns:inkscape="http://www.inkscape.org/namespaces/inkscape"
   inkscape:version="1.0 (4035a4fb49, 2020-05-01)"
   sodipodi:docname="bells-colour.svg"
   id="svg8"
   version="1.1"
   fill="none"
   viewBox="0 0 28.315498 31.313759"
   height="31.313759"
   width="28.315498">
  <metadata
     id="metadata14">
    <rdf:RDF>
      <cc:Work
         rdf:about="">
        <dc:format>image/svg+xml</dc:format>
        <dc:type
           rdf:resource="http://purl.org/dc/dcmitype/StillImage" />
        <dc:title></dc:title>
      </cc:Work>
    </rdf:RDF>
  </metadata>
  <defs
     id="defs12" />
  <sodipodi:namedview
     inkscape:current-layer="svg8"
     inkscape:window-maximized="0"
     inkscape:window-y="240"
     inkscape:window-x="1080"
     inkscape:cy="16"
     inkscape:cx="4.7476188"
     inkscape:zoom="22.96875"
     inkscape:pagecheckerboard="true"
     fit-margin-bottom="0"
     fit-margin-right="0"
     fit-margin-left="0"
     fit-margin-top="0"
     showgrid="false"
     id="namedview10"
     inkscape:window-height="1440"
     inkscape:window-width="2560"
     inkscape:pageshadow="2"
     inkscape:pageopacity="0"
     guidetolerance="10"
     gridtolerance="10"
     objecttolerance="10"
     borderopacity="1"
     bordercolor="#666666"
     pagecolor="#ffffff" />
  <path
     id="path2"
     fill="#f8bf87"
     d="M 23.9172,0.47101094 V 3.3568099 l 2.8702,1.32467 c 0.1114,0.42261 0.1827,0.84727 0.1827,1.23866 0,1.34273 -0.8392,1.67841 -1.2588,1.67841 -0.8392,-2e-5 -2.5176,0.50347 -2.5176,2.5175501 0.1399,1.2588 0.9231,4.4478 2.9372,7.1332 2.0141,2.6855 1.3987,7.5528 0.8392,9.6508 -1.1189,2.7974 -6.378,7.1333 -18.4624503,2.0981 -0.08118,-0.0406 -0.24876,-0.1008 -0.48258,-0.1849 C 5.8417797,28.0287 -2.1178303,25.168 0.53523373,16.8298 2.8849997,9.4447899 10.4658,7.5985499 13.9625,7.5985499 c 0.5594,0 1.8462,-0.33568 2.5176,-1.67841 0.1838,-0.36764 0.3475,-0.83595 0.5263,-1.34759 0.6376,-1.82415 1.4678,-4.19912696 4.0893,-4.52681696 1.156,-0.1444989 2.0943,0.068663 2.8215,0.425278 z"
     clip-rule="evenodd"
     fill-rule="evenodd" />
  <path
     id="path4"
     fill="#e35531"
     d="M 20.6678,12.3722 14.3222,8.5950699 c -0.4832,-0.28764 -0.6202,-0.92528 -0.2977,-1.38598 0.2122,-0.30313 0.5787,-0.45866 0.9442,-0.40066 l 2.0922,0.33211 c 0.0947,0.01503 0.1867,0.04358 0.2732,0.08478 l 4.5901,2.18574 0.9695,0.554 c 0.1215,0.06944 0.2272,0.1637401 0.31,0.2766401 l 4.9828,6.7897 c 0.1981,0.2699 0.1648,0.6448 -0.0776,0.8757 -0.2806,0.2673 -0.7294,0.2392 -0.9745,-0.061 l -1.0755,-1.3169 c -0.5947,-0.7282 -1.7745,-0.3077 -1.7745,0.6326 v 1.5876 c 0,0.305 -0.2472,0.5522 -0.5523,0.5522 -0.2346,0 -0.4437,-0.1483 -0.5212,-0.3698 l -2.1108,-6.0307 c -0.0775,-0.2216 -0.2306,-0.4088 -0.4323,-0.5289 z" />
  <path
     id="path6"
     fill="#4c3b33"
     d="m 14.2662,12.588 -2.5176,2.5176 H 7.1329797 l 2.098,3.7764 -2.5176,4.196 4.6156203,-0.8392 3.3568,3.3568 0.8392,-4.6156 4.196,-2.098 -4.6156,-2.5176 z" />
</svg>
