<svg width="845" height="501" viewBox="0 0 845 501" fill="none" xmlns="http://www.w3.org/2000/svg">
<path d="M456.972 26.2886C436.063 28.2766 417.334 22.7186 400.271 15.0577C382.458 11.7694 365.859 -3.72445 348.585 0.831872C318.121 8.86742 290.451 18.7756 257.354 21.4468C234.071 23.3259 215.594 18.2941 194.109 13.4105C179.491 10.0876 162.704 6.8022 147.149 6.67195C133.274 6.55576 121.661 18.1231 113.055 23.9925C102.863 30.9434 92.7019 38.292 81.1425 44.2082C77.9379 45.8483 74.3677 47.4744 70.2383 47.7022C63.3489 48.0824 57.716 45.659 50.6108 47.4527C36.4603 51.0248 30.1581 62.7461 23.8593 71.1624C17.7565 79.3167 9.18758 87.655 7.28499 96.9186C2.47849 120.321 13.6915 143.432 14.1909 166.75C14.5724 184.559 18.0386 205.442 7.57576 222.206C3.93252 228.043 -2.51761 233.151 1.03327 239.776C6.06101 249.156 15.1788 257.295 20.1519 266.73C30.2826 285.951 17.0029 307.315 14.0456 326.528C10.4437 349.928 49.2 359.555 64.4954 377.592C81.0674 397.134 75.2996 420.892 97.8622 438.338C120.918 456.167 154.506 457.975 187.131 458.854C201.511 459.241 210.138 459.122 221.443 465.193C238.755 474.49 256.11 477.53 277.926 477.971C305.995 478.538 337.071 479.121 364.505 474.277C380.695 471.419 397.185 464.905 414.301 465.293C421.615 465.458 426.546 469.409 433.71 469.685C446.961 470.195 460.156 470.723 473.401 471.432C488.431 472.236 500.389 471.53 514.91 469.785C531.714 467.766 550.235 469.02 566.741 471.582C606.691 477.784 640.249 499.303 681.598 500.932C695.842 501.493 707.983 498.631 717.073 490.849C727.526 481.901 725.207 473.084 725.941 462.497C726.513 454.254 735.181 449.278 744.478 444.877C759.051 437.98 775.473 432.685 788.895 424.662C806.888 413.905 796.913 393.099 796.746 378.939C796.62 368.3 796.378 357.554 797.691 346.944C799.16 335.072 804.767 325.081 810.267 313.95C814.436 305.512 814.769 297.265 815.864 288.493C816.905 280.158 818.915 271.921 818.99 263.535C819.15 245.682 799.734 227.58 806.487 210.026C808.514 204.756 812.481 198.934 817.827 194.902C827.071 187.93 841.478 180.766 844.288 170.893C846.377 163.552 830.677 157.021 827.205 150.577C822.422 141.702 829.111 131.813 832.075 123.174C835.32 113.716 836.979 104.062 839.999 94.5726C843.23 84.4191 845.592 74.6295 844.869 64.1742C844.046 52.2556 838.591 45.1091 823.352 38.9671C807.821 32.7076 790.504 27.8929 773.774 23.3436C749.588 16.7664 732.43 22.1056 709.803 28.7345C674.586 39.0521 639.53 37.3109 602.506 35.0238C584.449 33.9083 566.196 33.9537 548.495 30.9806C532.191 28.2424 516 23.3474 499.28 21.946C484.176 20.68 471.495 24.9079 456.972 26.2886Z" fill="#97D5BB"/>
<path d="M100.019 121.17L88.7288 106.544L685.561 105L745.794 108.54L742.613 129.01C755.112 148.848 752.807 156.066 741.112 165.761C744.023 186.854 750.62 196.682 765.885 212.802C767.421 225.664 753.347 241.135 738.109 263.273C741.231 266.043 746.773 273.28 746.367 275.524C738.876 278.598 729.754 287.104 732.104 288.754C745.933 315.41 745.836 321.426 741.112 326.975C745.759 339.042 742.025 345.795 738.109 357.845C756.191 398.112 745.347 408.791 709.075 418.238C700.745 428.239 695.966 433.251 687.813 437.227H605.236H569.203L569.165 437.238C556.66 441.07 550.228 443.041 529.416 436.247C512.02 445.859 500.573 446.558 476.868 438.207C453.632 438.962 437.528 436.003 416.812 421.547H318.471C308.21 423.097 302.706 427.818 292.948 437.227H193.856C148.655 437.249 133.689 429.291 120.288 404.886C99.3414 390.348 95.0635 382.485 104.524 369.115C96.5909 355.473 96.9025 349.232 104.524 340.205C92.3197 325.035 97.4595 313.747 112.781 292.184C102.025 274.298 99.3891 264.322 100.019 246.613L79 234.363V218.192C85.8983 212.15 88.2886 208.58 91.0109 202.022C90.5706 193.9 92.3898 190.477 100.019 186.832V175.561C106.371 170.905 108.725 165.695 112.03 154.491C101.639 141.215 100.996 134.011 100.019 121.17Z" fill="#F9E8AA"/>
<path d="M104.319 106.297C110.164 111.091 113.434 111.767 119.254 110.334L687.557 106.801H729.217C733.295 108.992 736.097 109.61 741.793 109.829C746.349 110.268 747.437 109.166 747.296 105.287C752.217 99.1562 750.291 97.234 742.579 95.1946C737.136 93.3309 738.479 92.041 742.579 89.6436V80.5602C739.819 77.1873 736.775 75.9465 729.217 75.0093C725.733 74.7852 724.069 75.8235 721.356 78.5417C720.034 83.8706 717.34 82.9684 711.138 78.5417H703.278C697.538 74.8855 694.425 74.8481 689.915 78.5417L674.194 88.6344C673.783 95.6629 673.07 98.8073 669.478 97.2131C665.848 97.8327 665.03 96.6969 664.762 93.1761C665.346 90.6824 664.413 89.6647 660.832 88.6344H653.757L642.753 93.1761L629.39 92.6714C620.692 100.626 614.309 97.9986 602.665 92.1668H593.233C576.966 96.0892 572.022 96.7274 564.935 97.2131C558.495 92.4998 552.011 91.9775 538.21 92.6714L516.201 92.1668C508.837 88.2342 505.35 87.8139 499.695 88.6344C493.034 88.607 492.285 90.0904 491.834 93.1761H478.472C472.683 96.491 466.85 97.3319 454.891 98.2224C446.481 97.1484 443.884 95.6485 439.956 92.6714C426.447 92.1461 423.082 90.9067 421.877 87.6251C409.896 87.7591 406.784 86.5877 405.37 83.0834H387.291C377.054 82.8171 373.516 84.2968 372.357 90.6529C372.481 95.6872 371.445 97.4601 366.069 97.2131H342.487C337.17 88.8191 336.534 83.5642 336.199 74H320.479L309.474 79.0463V87.6251L305.544 92.6714C300.476 91.5147 297.287 93.0544 291.395 97.2131H280.391C269.339 90.5925 263.146 89.0628 252.093 97.2131H236.373C217.246 95.4842 209.532 95.5622 207.289 99.7363H201.001C192.934 93.5772 187.118 91.9461 174.276 92.6714L170.346 94.69C164.659 89.0942 160.586 90.8307 152.267 99.7363H138.118V87.6251H105.891L101.961 90.6529L94.8864 87.6251C92.9092 81.1189 89.1601 79.292 78.3801 79.0463C62.3571 81.9687 60.5159 84.5357 68.9477 90.6529V94.69C74.067 99.3442 78.208 101.898 89.3846 106.297H104.319Z" fill="#707586"/>
<path d="M141.302 123.505V104.91C151.374 100.796 157.933 99.8566 170.859 100.017L696.664 103.442C697.251 108.091 699.429 109.388 705.997 109.803V119.101L717.665 124.483V130.845L724.665 134.27V149.929L717.665 150.908V157.269L705.997 172.438V183.204L726.998 197.884C727.057 205.588 725.455 210.637 717.665 221.861C711.442 231.158 705.997 232.431 705.997 233.605C704.899 243.68 705.6 249.35 711.442 259.54C721.948 263.211 721.696 266.809 715.331 274.709C703.202 278.725 704.066 281.526 711.442 286.942V306.026C711.442 307.201 707.812 308.799 705.997 309.452V317.771C714.286 323.963 715.768 327.771 705.997 335.876V344.195C704.613 349.101 705.426 351.274 711.442 353.492V371.597C705.411 382.846 699.659 387.221 691.219 392.639C667.842 392.409 654.952 392.309 653.884 395.085H621.215L590.103 392.639C578.04 391.777 572.647 392.056 567.546 395.085H556.656C548.778 394.62 546.068 395.771 542.656 399H503.765L500.653 395.085L496.764 397.043L488.986 392.639H238.529C219.389 396.195 208.665 395.971 189.526 392.639H166.969C150.939 393.175 146.224 390.027 139.746 382.852V371.108L132.746 367.683V354.471L139.746 350.067V343.705C131.021 337.186 130.998 330.707 132.746 320.217L139.746 316.302C129.696 302.471 132.139 295.389 139.746 283.028C124.089 272.016 124.339 266.456 125.745 256.604C142.919 252.65 147.01 248.448 128.079 231.556C115.98 223.067 116.774 219.302 125.745 214.032V199.352C142.151 184.754 145.938 177.54 131.19 168.524L133.524 149.44C120.958 134.716 124.566 129.598 141.302 123.505Z" fill="#407443"/>
<path d="M657.798 105H692.783C699.628 110.401 702.279 113.84 700.558 122.223V139.446L706 143.17L703.668 181.805L700.558 189.719L684.231 198.563H671.792C658.277 208.127 652.861 207.432 644.582 202.287H586.273C558.796 202.514 550.505 200.541 549.733 192.977C542.831 194.828 537.979 194.465 526.41 189.719C508.569 194.398 500.4 194.214 499.199 189.719C494.464 185.323 489.174 186.205 478.208 189.719C472.304 196.328 466.389 195.52 453.33 189.719C445.395 184.454 443.268 184.813 442.445 189.719H365.478C353.769 180.476 350.788 180.708 348.374 185.529H315.721L304.06 187.857C296.844 196.105 289.381 195.509 272.962 189.719C267.025 194.111 263.644 195.793 257.413 196.701C249.664 195.578 242.818 193.809 238.754 189.719H191.33V185.529C168.904 198.354 161.269 195.854 151.68 194.373C139.11 189.597 138.409 185.465 139.241 177.616V164.117V149.687C145.187 145.328 147.111 130.418 143.905 126.412C136.07 108.101 147.211 105.127 178.113 105H657.798Z" fill="#419E46"/>
<path d="M671.243 145.08C681.203 163.553 679.249 175.793 671.243 198.758C647.416 207.492 638.215 209.294 640.247 198.758V156.035C635.392 148.026 634.279 143.306 633.759 134.674L615.017 127.006H573.208C564.59 142.115 558.574 141.918 545.095 125.362H536.445V138.508H482.382C473.112 134.665 469.363 129.861 465.803 115.503C440.459 118.026 432.78 117.292 435.528 110.574C445.017 103.938 452.762 102.387 478.778 110.574H541.492C553.951 105.46 559.303 104.546 562.396 110.574C602.94 110.829 634.081 113.417 648.897 106.192C667.819 111.596 669.374 123.313 671.243 145.08Z" fill="#5CC350"/>
<path d="M245.452 261.929C245.452 282.324 229.009 298.857 208.726 298.857C188.443 298.857 172 282.324 172 261.929C172 241.533 188.443 225 208.726 225C229.009 225 245.452 241.533 245.452 261.929Z" fill="#EDF1C0"/>
<path d="M240.763 280L214.348 321.317C213.279 322.989 211.438 324 209.461 324C207.535 324 205.734 323.04 204.653 321.438L176.688 280H240.763Z" fill="#EDF1C0"/>
<path d="M240.661 262.55C240.661 280.642 226.363 295.309 208.726 295.309C191.088 295.309 176.79 280.642 176.79 262.55C176.79 244.457 191.088 229.79 208.726 229.79C226.363 229.79 240.661 244.457 240.661 262.55Z" fill="#F26935"/>
<path d="M236.584 278.581L213.615 315.233C212.685 316.716 211.084 317.613 209.365 317.613C207.69 317.613 206.124 316.762 205.184 315.34L180.867 278.581H236.584Z" fill="#F26935"/>
<circle cx="207.927" cy="262.524" r="11.9758" fill="#FFF4BE"/>
<path d="M401 131.554V115H346.33L334.329 120.058C316.137 119.516 310.496 120.833 312.328 127.416C316.496 134.406 321.023 133.437 330.996 127.416C341.112 135.354 345.432 136.821 350.33 132.934L401 131.554Z" fill="#5CC350"/>
<path d="M225.7 121.489C242.575 114.304 248.072 116.3 254.95 124.275L279 117.774L263.4 112.202L258.85 108.023C242.223 104.314 235.42 103.683 232.85 108.023L178.9 109.88C162.797 108.527 155.295 108.907 152.9 117.774V149.815L149 152.601V175.354L154.85 179.998C153.426 186.593 156.632 187.102 166.55 184.641C172.49 179.84 171.764 176.587 166.55 170.246V152.601C175.906 146.529 177.015 143.675 172.4 139.599V127.526H178.9L182.8 121.489H197.1L204.9 117.774H221.8L225.7 121.489Z" fill="#5CC350"/>
</svg>
