<?xml version="1.0" encoding="UTF-8" standalone="no"?>
<!-- Created with Inkscape (http://www.inkscape.org/) -->

<svg
   xmlns:dc="http://purl.org/dc/elements/1.1/"
   xmlns:cc="http://creativecommons.org/ns#"
   xmlns:rdf="http://www.w3.org/1999/02/22-rdf-syntax-ns#"
   xmlns:svg="http://www.w3.org/2000/svg"
   xmlns="http://www.w3.org/2000/svg"
   xmlns:sodipodi="http://sodipodi.sourceforge.net/DTD/sodipodi-0.dtd"
   xmlns:inkscape="http://www.inkscape.org/namespaces/inkscape"
   version="1.1"
   id="svg2"
   width="68.273468"
   height="55.898792"
   viewBox="0 0 68.273466 55.898792"
   sodipodi:docname="bug.svg"
   inkscape:version="0.92.4 5da689c313, 2019-01-14">
  <metadata
     id="metadata8">
    <rdf:RDF>
      <cc:Work
         rdf:about="">
        <dc:format>image/svg+xml</dc:format>
        <dc:type
           rdf:resource="http://purl.org/dc/dcmitype/StillImage" />
        <dc:title></dc:title>
      </cc:Work>
    </rdf:RDF>
  </metadata>
  <defs
     id="defs6" />
  <sodipodi:namedview
     pagecolor="#ffffff"
     bordercolor="#666666"
     borderopacity="1"
     objecttolerance="10"
     gridtolerance="10"
     guidetolerance="10"
     inkscape:pageopacity="0"
     inkscape:pageshadow="2"
     inkscape:window-width="2504"
     inkscape:window-height="1318"
     id="namedview4"
     showgrid="false"
     inkscape:pagecheckerboard="true"
     inkscape:zoom="4.9166667"
     inkscape:cx="24.417435"
     inkscape:cy="31.858465"
     inkscape:window-x="1108"
     inkscape:window-y="334"
     inkscape:window-maximized="0"
     inkscape:current-layer="svg2" />
  <path
     style="fill:#0d0000;fill-opacity:1;stroke-width:0.31999999"
     d="M 16.049253,55.66602 C 9.9272153,54.175616 8.7014933,46.973114 13.302872,39.527927 L 13.99564,38.407008 12.058655,37.091626 C 5.9945943,32.9736 1.6840033,27.048509 0.37052834,21.025796 c -0.459313,-2.1061 -0.47813,-2.719706 -0.130972,-4.27097 C 1.4552623,11.322484 5.5604913,8.5025165 12.178479,8.5537355 c 4.757296,0.03682 10.362342,1.8980055 14.77544,4.9062715 l 1.624668,1.107481 -0.565494,-1.941123 c -0.311021,-1.067616 -0.784842,-2.7371225 -1.052934,-3.7100125 -0.86697,-3.146186 -3.058509,-4.427449 -6.48842,-3.793396 -2.752265,0.508784 -4.386345,-0.785671 -3.823376,-3.028728 0.339546,-1.35285901 1.556365,-1.91088201 4.50424,-2.06560601 3.336442,-0.175118 5.61617,0.446999 7.478036,2.04068801 1.829888,1.566316 2.639792,3.286471 4.092636,8.6923475 0.673501,2.506029 1.323488,4.378029 1.444416,4.16 0.120928,-0.218029 0.717837,-2.27112 1.326464,-4.562429 1.270007,-4.7811905 1.999818,-6.3815905 3.633754,-7.9684505 1.820803,-1.76834201 4.194496,-2.51308101 7.520771,-2.35962001 3.016157,0.139153 4.247107,0.663565 4.766935,2.03082001 0.383558,1.008833 -0.06158,2.195018 -1.072224,2.857217 -0.627876,0.411401 -1.122327,0.452869 -2.612845,0.219133 -2.088397,-0.327493 -3.735043,-0.05128 -4.936528,0.82806 -0.800311,0.585731 -1.073923,1.269099 -2.850307,7.1188535 l -0.534458,1.76 2.069597,-1.389878 c 4.129917,-2.77352 8.160061,-4.3281915 12.469817,-4.8103645 8.076938,-0.903645 13.093559,2.2335255 14.265671,8.9211125 0.315801,1.801828 -0.661904,5.65888 -2.249754,8.87529 -1.718403,3.480864 -5.337174,7.528493 -9.201965,10.29248 l -2.382848,1.704144 1.086365,1.80361 c 2.844487,4.722496 3.130467,10.235673 0.675959,13.031206 -2.044596,2.328666 -4.943354,3.070429 -8.813578,2.255306 C 43.2742,54.67425 37.887349,51.232186 35.361547,47.881552 l -1.03328,-1.37071 -2.899507,2.893645 c -2.196419,2.191981 -3.529117,3.220301 -5.496,4.240765 -3.779536,1.960908 -7.230838,2.666556 -9.883507,2.020768 z"
     id="path823"
     inkscape:connector-curvature="0" />
  <path
     style="fill:#0d0000;fill-opacity:1;stroke-width:0.31999999"
     d="m 22.873531,54.324442 c 1.113354,-0.367146 3.07528,-1.37049 4.359834,-2.229651 2.212608,-1.479882 6.255888,-5.39737 6.255888,-6.061258 0,-0.816499 1.248685,-0.114217 2.361267,1.328016 2.774835,3.596999 7.932416,6.838698 12.145111,7.633575 6.581808,1.241897 10.543955,-3.324407 8.737555,-10.069882 -0.467485,-1.745686 -2.233098,-5.431926 -2.756771,-5.755574 -0.722384,-0.446458 -0.231658,-1.164989 1.672838,-2.449412 2.609104,-1.759619 6.347677,-5.369635 8.115456,-7.836393 1.753181,-2.446387 2.767968,-4.723165 3.453181,-7.747559 0.444297,-1.961024 0.470601,-2.661955 0.159283,-4.244348 C 65.808101,8.9165065 56.165749,6.7473035 45.451061,11.959319 c -1.605005,0.780733 -3.58625,1.929456 -4.402768,2.55272 -1.628842,1.243321 -2.587341,1.48088 -2.312771,0.573203 0.09317,-0.308 0.611875,-2.200794 1.152678,-4.206208 1.005203,-3.7275045 1.749203,-5.1865425 2.983306,-5.8504695 1.151267,-0.619362 2.968425,-0.828184 4.752563,-0.54615 2.081603,0.329057 3.145184,-0.210295 3.145184,-1.594953 0,-1.688649 -0.938474,-2.12221901 -4.593597,-2.12221901 -3.031584,0 -3.360595,0.06477 -4.97207,0.97885501 -2.709514,1.536924 -3.430314,2.821304 -5.145434,9.1685335 -1.045817,3.870307 -1.641747,5.560889 -1.983424,5.626729 -0.379238,0.07308 -0.796534,-1.071526 -1.866627,-5.12 C 31.450095,8.5515945 30.492402,5.6038435 30.079896,4.8688005 28.54749,2.1382045 25.634434,0.60337849 21.991173,0.60702749 c -3.493667,0.0035 -5.129763,0.96810501 -4.680192,2.75933801 0.25576,1.019032 1.264861,1.375599 3.103085,1.096478 1.484432,-0.2254 1.817933,-0.2138 3.655641,0.127152 1.12554,0.208823 2.754791,1.809825 3.271981,3.215247 0.318647,0.865904 1.987565,7.0698875 1.987565,7.3885215 0,0.435657 -1.169718,-0.02026 -2.495254,-0.972557 C 22.675119,11.233351 16.647295,9.2006375 11.889253,9.1815145 5.7939193,9.1570045 2.3249283,11.572429 0.96252134,16.789655 c -0.415919,1.592726 -0.4098,2.037289 0.05691,4.13504 1.021399,4.590995 3.545124,8.726646 7.68409,12.591984 1.3489087,1.259731 3.2254427,2.758003 4.1700727,3.329491 0.944634,0.571491 1.721597,1.209504 1.726589,1.417808 0.005,0.208307 -0.421575,1.072307 -0.947923,1.92 -3.183111,5.126467 -3.298936,10.759738 -0.274458,13.348579 2.226749,1.906013 5.331926,2.164967 9.495734,0.791885 z"
     id="path819"
     inkscape:connector-curvature="0" />
</svg>
