<?xml version="1.0" encoding="UTF-8" standalone="no"?>
<!-- Created with Inkscape (http://www.inkscape.org/) -->

<svg
   xmlns:dc="http://purl.org/dc/elements/1.1/"
   xmlns:cc="http://creativecommons.org/ns#"
   xmlns:rdf="http://www.w3.org/1999/02/22-rdf-syntax-ns#"
   xmlns:svg="http://www.w3.org/2000/svg"
   xmlns="http://www.w3.org/2000/svg"
   xmlns:sodipodi="http://sodipodi.sourceforge.net/DTD/sodipodi-0.dtd"
   xmlns:inkscape="http://www.inkscape.org/namespaces/inkscape"
   version="1.1"
   id="svg2"
   width="67.694603"
   height="39.085609"
   viewBox="0 0 67.694601 39.08561"
   sodipodi:docname="fish.svg"
   inkscape:version="0.92.4 5da689c313, 2019-01-14">
  <metadata
     id="metadata8">
    <rdf:RDF>
      <cc:Work
         rdf:about="">
        <dc:format>image/svg+xml</dc:format>
        <dc:type
           rdf:resource="http://purl.org/dc/dcmitype/StillImage" />
        <dc:title />
      </cc:Work>
    </rdf:RDF>
  </metadata>
  <defs
     id="defs6" />
  <sodipodi:namedview
     pagecolor="#ffffff"
     bordercolor="#666666"
     borderopacity="1"
     objecttolerance="10"
     gridtolerance="10"
     guidetolerance="10"
     inkscape:pageopacity="0"
     inkscape:pageshadow="2"
     inkscape:window-width="2504"
     inkscape:window-height="1318"
     id="namedview4"
     showgrid="false"
     inkscape:pagecheckerboard="true"
     fit-margin-top="0"
     fit-margin-left="0"
     fit-margin-right="0"
     fit-margin-bottom="0"
     inkscape:zoom="6.9532167"
     inkscape:cx="-25.3085"
     inkscape:cy="25.761856"
     inkscape:window-x="1108"
     inkscape:window-y="334"
     inkscape:window-maximized="0"
     inkscape:current-layer="svg2" />
  <path
     style="fill:#ffffff;stroke-width:0.31999999;fill-opacity:1"
     d="m 25.848984,0.00785504 c -0.809641,0.01818 -1.595281,0.06717 -2.351563,0.150391 C 10.639949,1.5730501 1.6644333,7.9691551 0.17906231,16.775432 -0.91446569,23.2586 3.0624633,30.09604 10.41539,34.375042 c 6.325626,3.681167 14.609181,5.351912 22.240234,4.486328 4.179213,-0.474048 7.567735,-1.442033 11.201172,-3.201172 3.886461,-1.881638 6.465871,-3.876766 8.253906,-6.384766 0.739504,-1.037267 1.490016,-1.895055 1.666016,-1.904297 0.176,-0.0092 1.505664,1.133197 2.955078,2.53711 2.719219,2.633866 5.201401,4.153908 7.886722,4.830078 1.25355,0.315648 1.59443,0.291882 2.27539,-0.154297 1.51758,-0.994356 0.87738,-3.448922 -1.91602,-7.337891 -1.44565,-2.012637 -1.88004,-3.601979 -1.89062,-6.93164 -0.0104,-3.265798 0.35621,-4.458164 2.4414,-7.939453 3.02947,-5.0577879 2.30829,-6.9563609 -2.28515,-6.0097649 -3.245305,0.668777 -6.452102,3.192905 -8.066409,6.3496079 -0.337517,0.66 -0.740786,1.199219 -0.896485,1.199219 -0.155699,0 -0.655138,-0.635061 -1.109375,-1.410156 C 51.274494,9.2673831 47.3206,5.7930891 43.216171,3.7559021 38.282667,1.3072141 31.516466,-0.11940296 25.848984,0.00785504 Z M 12.522812,7.8398861 c 2.658081,-0.07705 5.270062,1.774051 5.265625,4.8769519 -0.0026,1.786022 -0.776602,3.072165 -2.460938,4.091797 -2.13736,1.293878 -4.770644,0.844638 -6.6308587,-1.132812 -1.318539,-1.401635 -1.524307,-3.892967 -0.453125,-5.46875 1.074057,-1.5800099 2.6844477,-2.3209559 4.2792967,-2.3671869 z"
     id="path860"
     inkscape:connector-curvature="0" />
  <path
     style="fill:#fe0000;fill-opacity:0;stroke-width:0.14381833"
     d="M 27.645409,44.242485 C 20.591217,43.515059 14.667649,41.425719 10.027663,38.028418 7.7822223,36.384352 5.5063533,33.8911 4.1625233,31.60306 1.1100743,26.405881 1.5011483,20.291979 5.2022523,15.348317 9.0214963,10.246853 15.784281,6.8736491 24.697133,5.6244771 c 1.698816,-0.238095 6.20055,-0.23682 8.125735,0.0023 4.418265,0.548782 9.176976,1.902542 12.44479,3.540298 3.704437,1.8565809 7.447896,5.0874309 9.584586,8.2721209 1.45998,2.176071 1.495936,2.193345 2.150066,1.033006 2.443245,-4.333983 6.238854,-6.931801 10.127886,-6.931801 2.740339,0 2.847833,1.727387 0.378876,6.088419 -2.236444,3.950336 -2.400151,4.496334 -2.396492,7.992828 0.0038,3.654859 0.340691,4.806443 2.204577,7.536398 1.597092,2.339194 2.266894,3.845878 2.269972,5.106175 0.0047,1.909462 -1.404727,2.349383 -4.228401,1.319838 -2.331505,-0.850096 -4.522762,-2.41013 -7.871016,-5.603664 -0.830551,-0.792171 -1.574811,-1.437171 -1.653911,-1.433334 -0.144011,0.007 -0.695006,0.647995 -2.397679,2.789376 -1.602244,2.015074 -3.938732,3.746199 -7.310058,5.416086 -4.872144,2.413273 -9.105603,3.414032 -14.813288,3.501757 -1.700652,0.02614 -3.350967,0.02083 -3.667367,-0.01179 z M 14.504882,25.85892 c 1.978526,-0.41937 3.286,-1.393952 4.11191,-3.064992 0.507592,-1.026996 0.543335,-1.184958 0.543335,-2.401189 0,-1.165111 -0.04813,-1.403472 -0.458155,-2.269018 -0.568852,-1.20082 -1.481875,-2.108473 -2.747242,-2.731083 -0.901885,-0.443762 -1.052774,-0.472504 -2.480537,-0.472504 -1.467057,0 -1.558431,0.01888 -2.612052,0.539687 -0.778313,0.384723 -1.3193347,0.785437 -1.8841867,1.395544 -1.041949,1.125429 -1.325039,1.929945 -1.317985,3.745593 0.0047,1.204677 0.05214,1.456362 0.401284,2.127953 0.484258,0.931493 1.885561,2.339815 2.7394547,2.753178 1.180201,0.571325 2.265623,0.681746 3.704174,0.376831 z"
     id="path838"
     inkscape:connector-curvature="0" />
</svg>
