<?xml version="1.0" encoding="UTF-8" standalone="no"?>
<!-- Created with Inkscape (http://www.inkscape.org/) -->

<svg
   xmlns:dc="http://purl.org/dc/elements/1.1/"
   xmlns:cc="http://creativecommons.org/ns#"
   xmlns:rdf="http://www.w3.org/1999/02/22-rdf-syntax-ns#"
   xmlns:svg="http://www.w3.org/2000/svg"
   xmlns="http://www.w3.org/2000/svg"
   xmlns:sodipodi="http://sodipodi.sourceforge.net/DTD/sodipodi-0.dtd"
   xmlns:inkscape="http://www.inkscape.org/namespaces/inkscape"
   width="17.753666mm"
   height="14.524699mm"
   viewBox="0 0 17.753666 14.524699"
   version="1.1"
   id="svg4657"
   inkscape:version="0.92.4 5da689c313, 2019-01-14"
   sodipodi:docname="butterfly.svg">
  <defs
     id="defs4651" />
  <sodipodi:namedview
     id="base"
     pagecolor="#ffffff"
     bordercolor="#666666"
     borderopacity="1.0"
     inkscape:pageopacity="0.0"
     inkscape:pageshadow="2"
     inkscape:zoom="11.2"
     inkscape:cx="5.9109863"
     inkscape:cy="16.148253"
     inkscape:document-units="mm"
     inkscape:current-layer="layer1"
     showgrid="false"
     inkscape:window-width="2504"
     inkscape:window-height="1318"
     inkscape:window-x="1108"
     inkscape:window-y="334"
     inkscape:window-maximized="0"
     inkscape:pagecheckerboard="true" />
  <metadata
     id="metadata4654">
    <rdf:RDF>
      <cc:Work
         rdf:about="">
        <dc:format>image/svg+xml</dc:format>
        <dc:type
           rdf:resource="http://purl.org/dc/dcmitype/StillImage" />
        <dc:title></dc:title>
      </cc:Work>
    </rdf:RDF>
  </metadata>
  <g
     inkscape:label="Layer 1"
     inkscape:groupmode="layer"
     id="layer1"
     transform="translate(23233.813,5.4617553)">
    <path
       inkscape:connector-curvature="0"
       style="fill:#ffffff;stroke-width:0.08466666;fill-opacity:1"
       d="m -23228.135,-5.4610199 c -0.179,-6.62e-4 -0.357,0.01583 -0.524,0.05064 -0.617,0.128094 -0.779,0.252289 -0.779,0.59893 0,0.431042 0.184,0.512367 1.037,0.457854 0.836,-0.05341 1.189,0.07054 1.491,0.523999 0.192,0.287732 0.704,2.193046 0.613,2.283581 -0.03,0.031 -0.292,-0.100781 -0.58,-0.293005 -0.637,-0.42592 -1.364,-0.776742 -2.152,-1.039211 -0.503,-0.167772 -0.764,-0.197404 -1.735,-0.197404 -1.082,0 -1.169,0.01252 -1.628,0.237712 -0.266,0.130896 -0.617,0.393079 -0.779,0.582393 -0.283,0.329934 -0.642,1.220205 -0.642,1.59111698 0,0.230936 0.293,1.312253 0.47,1.73322802 0.4,0.955808 1.482,2.197011 2.6,2.98483 0.361,0.254234 0.656,0.495845 0.656,0.536918 0,0.04107 -0.115,0.255405 -0.254,0.47594 -0.548,0.862899 -0.795,1.992117 -0.598,2.721281 0.138,0.50702 0.61,1.004471 1.095,1.153935 0.486,0.149425 0.806,0.158362 1.383,0.03979 0.246,-0.05076 0.772,-0.24672 1.167,-0.435633 0.606,-0.289038 0.852,-0.475698 1.554,-1.177706 0.459,-0.458825 0.862,-0.834057 0.896,-0.834057 0.03,0 0.116,0.09978 0.181,0.221692 0.172,0.32093 1.251,1.298526 1.789,1.620572 0.757,0.453395 1.381,0.642521 2.143,0.649056 0.598,0.0051 0.725,-0.0228 1.088,-0.235644 0.327,-0.192391 0.454,-0.335972 0.625,-0.709517 0.188,-0.411797 0.209,-0.545874 0.169,-1.113111 -0.05,-0.697501 -0.242,-1.274543 -0.65,-1.936316 -0.142,-0.231361 -0.259,-0.444682 -0.259,-0.473872 0,-0.02919 0.162,-0.153735 0.36,-0.276986 1.624,-1.011056 2.895,-2.664494 3.24,-4.21421202 0.167,-0.749983 0.128,-1.17062398 -0.163,-1.78748798 -0.247,-0.524179 -0.641,-0.90674 -1.193,-1.155485 -0.586,-0.264374 -2.001,-0.321547 -2.865,-0.115755 -0.712,0.169731 -2.02,0.765551 -2.607,1.187008 -0.389,0.279771 -0.666,0.376464 -0.666,0.232544 0,-0.03529 0.128,-0.532266 0.285,-1.104326 0.416,-1.520735 0.699,-1.767871 1.922,-1.681034 0.812,0.05764 1.01,-0.03374 1.01,-0.467155 0,-0.300345 -0.219,-0.459909 -0.793,-0.577226 -0.575,-0.117403 -1.117,-0.05892 -1.662,0.179834 -0.77,0.337168 -1.123,0.871327 -1.48,2.241724 -0.12,0.460328 -0.268,1.027555 -0.33,1.260388 -0.198,0.73965598 -0.32,0.601325 -0.687,-0.780314 -0.413,-1.55985 -0.708,-2.15633 -1.247,-2.526978 -0.4,-0.274665 -0.962,-0.43053 -1.501,-0.432531 z"
       id="path3830" />
  </g>
</svg>
