<?xml version="1.0" encoding="UTF-8" standalone="no"?>
<svg
   xmlns:dc="http://purl.org/dc/elements/1.1/"
   xmlns:cc="http://creativecommons.org/ns#"
   xmlns:rdf="http://www.w3.org/1999/02/22-rdf-syntax-ns#"
   xmlns:svg="http://www.w3.org/2000/svg"
   xmlns="http://www.w3.org/2000/svg"
   xmlns:sodipodi="http://sodipodi.sourceforge.net/DTD/sodipodi-0.dtd"
   xmlns:inkscape="http://www.inkscape.org/namespaces/inkscape"
   inkscape:version="1.0 (4035a4fb49, 2020-05-01)"
   sodipodi:docname="checklist.svg"
   id="svg34"
   version="1.1"
   fill="none"
   viewBox="0 0 266 266"
   height="266"
   width="266">
  <metadata
     id="metadata40">
    <rdf:RDF>
      <cc:Work
         rdf:about="">
        <dc:format>image/svg+xml</dc:format>
        <dc:type
           rdf:resource="http://purl.org/dc/dcmitype/StillImage" />
        <dc:title></dc:title>
      </cc:Work>
    </rdf:RDF>
  </metadata>
  <defs
     id="defs38" />
  <sodipodi:namedview
     inkscape:current-layer="svg34"
     inkscape:window-maximized="0"
     inkscape:window-y="316"
     inkscape:window-x="2367"
     inkscape:cy="140.4532"
     inkscape:cx="92.130827"
     inkscape:zoom="2.7631579"
     showgrid="false"
     id="namedview36"
     inkscape:window-height="1336"
     inkscape:window-width="1245"
     inkscape:pageshadow="2"
     inkscape:pageopacity="0"
     guidetolerance="10"
     gridtolerance="10"
     objecttolerance="10"
     borderopacity="1"
     bordercolor="#666666"
     pagecolor="#ffffff" />
  <rect
     id="rect2"
     fill="#BE90F6"
     rx="78"
     height="266"
     width="266" />
  <rect
     id="rect4"
     fill="#8E67D6"
     transform="rotate(-14.6538 32 56.4647)"
     rx="22"
     height="199"
     width="156"
     y="56.4647"
     x="32" />
  <rect
     id="rect6"
     fill="#F5F2E6"
     transform="rotate(-14.6538 53 69.2238)"
     rx="10"
     height="164.138"
     width="123.424"
     y="69.2238"
     x="53" />
  <path
     id="path8"
     fill="#4B3D33"
     d="M68.8617 54.6764C67.4542 49.2728 70.6457 43.7638 75.9902 42.3717L137.924 26.2392C143.268 24.8471 148.742 28.099 150.149 33.5026C151.557 38.9062 148.365 44.4152 143.021 45.8074L81.0873 61.9398C75.7428 63.3319 70.2692 60.08 68.8617 54.6764Z" />
  <path
     id="path10"
     fill="#4B3D33"
     d="M87.1927 25.8714L121.063 17.0489L124.58 30.5509L90.7097 39.3733L87.1927 25.8714Z" />
  <rect
     id="rect12"
     fill="#4B3D33"
     transform="rotate(-14.954 75 89.277)"
     rx="3"
     height="6"
     width="63"
     y="89.277"
     x="75" />
  <rect
     id="rect14"
     fill="#4B3D33"
     transform="rotate(-14.954 84.2896 124.058)"
     rx="3"
     height="6"
     width="63"
     y="124.058"
     x="84.2896" />
  <rect
     id="rect16"
     fill="#4B3D33"
     transform="rotate(-14.954 93.063 156.906)"
     rx="3"
     height="6"
     width="63"
     y="156.906"
     x="93.063" />
  <rect
     id="rect18"
     fill="#4B3D33"
     transform="rotate(-14.954 101.836 189.755)"
     rx="3"
     height="6"
     width="63"
     y="189.755"
     x="101.836" />
  <rect
     id="rect20"
     stroke-width="4"
     stroke="#4B3D33"
     transform="rotate(-14.5431 174.179 165.685)"
     rx="3"
     height="18"
     width="18"
     y="165.685"
     x="174.179" />
  <rect
     id="rect22"
     stroke-width="4"
     stroke="#4B3D33"
     transform="rotate(-14.5431 165.391 131.807)"
     rx="3"
     height="18"
     width="18"
     y="131.807"
     x="165.391" />
  <rect
     id="rect24"
     stroke-width="4"
     stroke="#4B3D33"
     transform="rotate(-14.5431 157.104 99.8643)"
     rx="3"
     height="18"
     width="18"
     y="99.8643"
     x="157.104" />
  <rect
     id="rect26"
     stroke-width="4"
     stroke="#4B3D33"
     transform="rotate(-14.5431 147.562 63.0818)"
     rx="3"
     height="18"
     width="18"
     y="63.0818"
     x="147.562" />
  <path
     id="path28"
     fill="#DE72A5"
     d="M178.599 140.202L184.907 121.278C184.968 121.097 184.976 120.9 184.924 120.716C184.489 119.164 183.939 118.561 182.745 118.092C182.586 118.029 182.41 118.013 182.243 118.05C180.76 118.369 180.299 119.114 180 121L176.5 133C176.077 134.196 175.746 134.733 175.334 134.92C175.13 135.013 174.899 134.93 174.714 134.805C172.925 133.6 172.12 133.361 171.089 133.488C171.03 133.496 170.971 133.509 170.914 133.529C169.54 133.998 168.88 134.606 168.147 136.175C168.049 136.384 168.033 136.622 168.099 136.843C168.678 138.788 169.346 139.719 171.402 140.465C171.466 140.488 171.531 140.519 171.59 140.554C174.587 142.348 176.073 142.235 178.246 140.686C178.412 140.567 178.535 140.396 178.599 140.202Z" />
  <path
     id="path30"
     fill="#DE72A5"
     d="M170.599 108.202L176.907 89.2784C176.968 89.0966 176.976 88.9002 176.924 88.7158C176.489 87.1642 175.939 86.5612 174.745 86.0915C174.586 86.0288 174.41 86.0135 174.243 86.0496C172.76 86.3695 172.299 87.1143 172 89L168.5 101C168.077 102.196 167.746 102.733 167.334 102.92C167.13 103.013 166.899 102.93 166.714 102.805C164.925 101.6 164.12 101.361 163.089 101.488C163.03 101.496 162.971 101.509 162.914 101.529C161.54 101.998 160.88 102.606 160.147 104.175C160.049 104.384 160.033 104.622 160.099 104.843C160.678 106.788 161.346 107.719 163.402 108.465C163.466 108.488 163.531 108.519 163.59 108.554C166.587 110.348 168.073 110.235 170.246 108.686C170.412 108.567 170.535 108.396 170.599 108.202Z" />
  <path
     id="path32"
     fill="#DE72A5"
     d="M160.599 71.2018L166.907 52.2784C166.968 52.0966 166.976 51.9002 166.924 51.7158C166.489 50.1642 165.939 49.5612 164.745 49.0915C164.586 49.0288 164.41 49.0135 164.243 49.0496C162.76 49.3695 162.299 50.1143 162 52L158.5 64C158.077 65.1965 157.746 65.7333 157.334 65.9202C157.13 66.0126 156.899 65.9298 156.714 65.8048C154.925 64.6003 154.12 64.3611 153.089 64.4882C153.03 64.4955 152.971 64.5095 152.914 64.5288C151.54 64.9984 150.88 65.6056 150.147 67.1751C150.049 67.384 150.033 67.6223 150.099 67.8432C150.678 69.788 151.346 70.7195 153.402 71.465C153.466 71.4883 153.531 71.5187 153.59 71.5539C156.587 73.3477 158.073 73.2346 160.246 71.6856C160.412 71.5668 160.535 71.3959 160.599 71.2018Z" />
</svg>
