<?xml version="1.0" encoding="UTF-8" standalone="no"?>
<svg
   xmlns:dc="http://purl.org/dc/elements/1.1/"
   xmlns:cc="http://creativecommons.org/ns#"
   xmlns:rdf="http://www.w3.org/1999/02/22-rdf-syntax-ns#"
   xmlns:svg="http://www.w3.org/2000/svg"
   xmlns="http://www.w3.org/2000/svg"
   xmlns:sodipodi="http://sodipodi.sourceforge.net/DTD/sodipodi-0.dtd"
   xmlns:inkscape="http://www.inkscape.org/namespaces/inkscape"
   inkscape:version="1.0 (4035a4fb49, 2020-05-01)"
   sodipodi:docname="fish.svg"
   id="svg24"
   version="1.1"
   fill="none"
   viewBox="0 0 266 266"
   height="266"
   width="266">
  <metadata
     id="metadata30">
    <rdf:RDF>
      <cc:Work
         rdf:about="">
        <dc:format>image/svg+xml</dc:format>
        <dc:type
           rdf:resource="http://purl.org/dc/dcmitype/StillImage" />
        <dc:title></dc:title>
      </cc:Work>
    </rdf:RDF>
  </metadata>
  <defs
     id="defs28" />
  <sodipodi:namedview
     inkscape:current-layer="svg24"
     inkscape:window-maximized="0"
     inkscape:window-y="316"
     inkscape:window-x="2367"
     inkscape:cy="-23.608661"
     inkscape:cx="127.8463"
     inkscape:zoom="0.97692384"
     inkscape:pagecheckerboard="true"
     showgrid="false"
     id="namedview26"
     inkscape:window-height="1336"
     inkscape:window-width="1245"
     inkscape:pageshadow="2"
     inkscape:pageopacity="0"
     guidetolerance="10"
     gridtolerance="10"
     objecttolerance="10"
     borderopacity="1"
     bordercolor="#666666"
     pagecolor="#ffffff" />
  <rect
     id="rect2"
     fill="#B3ECEB"
     rx="78"
     height="266"
     width="266" />
  <path
     id="path4"
     fill="#60ABB6"
     d="M264.936 198.525C259.797 236.626 227.149 266 187.64 266H77.6401C37.1059 266 3.79325 235.081 0 195.541C0.219818 195.408 0.452195 195.29 0.695909 195.191C17.774 188.254 28.4678 187.255 47.297 197.762C47.5344 197.895 47.7895 198.013 48.0456 198.104C56.8769 201.252 63.4514 201.116 77.2621 197.965L77.8199 197.774C90.3368 193.485 97.5254 191.022 106.355 190.461C115.485 189.621 121.281 190.068 132.327 192.345C132.702 192.422 133.074 192.546 133.422 192.706C144.118 197.655 149.978 199.805 158.013 199.484C158.28 199.473 158.549 199.481 158.814 199.509C169.591 200.626 179.069 198.547 200.853 190.62C201.138 190.516 201.444 190.435 201.744 190.385C216.904 187.868 224.437 188.912 237.016 192.462C246.57 195.543 252.305 196.819 262.92 197.901C263.341 197.944 263.758 198.039 264.154 198.184L264.289 198.234C264.513 198.317 264.73 198.414 264.936 198.525Z"
     clip-rule="evenodd"
     fill-rule="evenodd" />
  <path
     id="path6"
     fill="#5FAAB5"
     d="M119 155.5C108.592 148.291 103.939 141.619 97.8226 130.944C97.4482 130.29 97.905 129.473 98.6576 129.45L129.795 128.506C129.93 128.502 130.065 128.526 130.191 128.575L160.23 140.394C160.406 140.463 160.561 140.581 160.669 140.737C162.82 143.848 162.782 147.232 162.509 153.307C162.503 153.433 162.475 153.557 162.42 153.671C160.702 157.248 154.797 163.067 153.081 163.484C153.025 163.498 152.972 163.509 152.917 163.528C149.706 164.598 147.562 165.114 142.103 165.493C142.035 165.498 141.966 165.495 141.899 165.486C135.414 164.605 130.495 162.838 119 155.5Z" />
  <path
     id="path8"
     fill="#5FAAB5"
     d="M179.779 69.0079C169.004 62.7748 161.275 61.4398 149.555 60.5166C148.792 60.4565 148.248 61.2434 148.574 61.9359L161.936 90.2958C161.973 90.3747 162.02 90.4484 162.077 90.5151L181.273 113.231C181.42 113.405 181.621 113.526 181.847 113.557C185.667 114.084 192.618 111.82 197.678 108.981C197.795 108.916 197.895 108.83 197.973 108.722C200.209 105.638 202.431 97.8666 201.999 96.1618C201.985 96.1087 201.972 96.0588 201.963 96.0048C201.407 92.663 200.869 90.5194 198.705 85.4538C198.68 85.3956 198.649 85.338 198.614 85.2856C194.922 79.8417 191.198 76.1849 179.779 69.0079Z" />
  <ellipse
     id="ellipse10"
     fill="#493D32"
     transform="rotate(-54.2253 120.048 88.1448)"
     ry="69.2664"
     rx="47.6405"
     cy="88.1448"
     cx="120.048" />
  <path
     id="path12"
     fill="#5FAAB5"
     d="M104.107 120.437C89.1622 118.025 85.0306 113.75 80.9536 106.585C79.7791 104.52 80.31 101.914 82.1377 100.397C87.2262 96.174 93.8598 90.6617 97.4427 87.6634C98.9983 86.3616 101.218 86.0149 103.117 86.7273C108.269 88.6598 115.097 90.8428 118.67 91.6793C120.128 92.0206 121.761 92.4259 123.013 93.2474C127.065 95.9053 128.393 97.8792 128.852 100.735C128.985 101.56 128.825 102.403 128.47 103.16C123.541 113.67 118.269 116.964 107.721 120.276C107.246 120.425 106.747 120.5 106.249 120.5H104.891C104.631 120.5 104.364 120.479 104.107 120.437Z" />
  <path
     id="path14"
     fill="#493D32"
     d="M192.5 124C186.625 123.471 184.288 121.499 182 115H180L158 140L160 141C166.303 139.878 169.279 140.995 173 148C175.333 154.5 180 167.6 180 168C184.102 175.421 186.492 179.096 192 179C198.571 179.307 201.841 175.228 208 160L210 157C223.153 149.043 229.133 144.712 229 138C227.848 133.19 226.501 131.232 222.906 128.974C211.747 125.828 204.973 124.907 192.5 124Z" />
  <circle
     id="circle16"
     fill="#5FAAB5"
     r="10.5"
     cy="63.5"
     cx="91.5" />
  <ellipse
     id="ellipse18"
     fill="#60ABB6"
     transform="rotate(16.6159 65.2422 150.611)"
     ry="6.48304"
     rx="11.8845"
     cy="150.611"
     cx="65.2422" />
  <ellipse
     id="ellipse20"
     fill="#60ABB6"
     ry="3"
     rx="7"
     cy="179"
     cx="66" />
  <ellipse
     id="ellipse22"
     fill="#60ABB6"
     transform="rotate(-35.5281 230.35 161.068)"
     ry="4.92277"
     rx="10.432"
     cy="161.068"
     cx="230.35" />
</svg>
