<?xml version="1.0" encoding="UTF-8" standalone="no"?>
<svg
   xmlns:dc="http://purl.org/dc/elements/1.1/"
   xmlns:cc="http://creativecommons.org/ns#"
   xmlns:rdf="http://www.w3.org/1999/02/22-rdf-syntax-ns#"
   xmlns:svg="http://www.w3.org/2000/svg"
   xmlns="http://www.w3.org/2000/svg"
   xmlns:sodipodi="http://sodipodi.sourceforge.net/DTD/sodipodi-0.dtd"
   xmlns:inkscape="http://www.inkscape.org/namespaces/inkscape"
   inkscape:version="1.0 (4035a4fb49, 2020-05-01)"
   sodipodi:docname="villagers.svg"
   id="svg14"
   version="1.1"
   fill="none"
   viewBox="0 0 266 266"
   height="266"
   width="266">
  <metadata
     id="metadata20">
    <rdf:RDF>
      <cc:Work
         rdf:about="">
        <dc:format>image/svg+xml</dc:format>
        <dc:type
           rdf:resource="http://purl.org/dc/dcmitype/StillImage" />
        <dc:title></dc:title>
      </cc:Work>
    </rdf:RDF>
  </metadata>
  <defs
     id="defs18" />
  <sodipodi:namedview
     inkscape:current-layer="svg14"
     inkscape:window-maximized="0"
     inkscape:window-y="316"
     inkscape:window-x="2367"
     inkscape:cy="-229.80372"
     inkscape:cx="221.90732"
     inkscape:zoom="0.69078947"
     inkscape:pagecheckerboard="true"
     showgrid="false"
     id="namedview16"
     inkscape:window-height="1336"
     inkscape:window-width="1245"
     inkscape:pageshadow="2"
     inkscape:pageopacity="0"
     guidetolerance="10"
     gridtolerance="10"
     objecttolerance="10"
     borderopacity="1"
     bordercolor="#666666"
     pagecolor="#ffffff" />
  <rect
     id="rect2"
     fill="#F1CB4E"
     rx="78"
     height="266"
     width="266" />
  <path
     id="path4"
     fill="#E27E68"
     d="M250.51 235C236.27 253.832 213.684 266 188.255 266H78.2549C52.8262 266 30.2395 253.832 16 235H250.51Z"
     clip-rule="evenodd"
     fill-rule="evenodd" />
  <path
     id="path6"
     fill="#F5F2E6"
     d="M47 137.5L68 234.5H202.5L218.5 134.5L130.5 74L47 137.5Z" />
  <path
     id="path8"
     fill="#F1CB4E"
     d="M107 162V234.5H159V162H107Z" />
  <path
     id="path10"
     fill="#4C371D"
     d="M113 168V235H154V168H113Z" />
  <path
     id="path12"
     fill="#E27E68"
     d="M226.5 132L131 66L41 134.5L26 116.5L65 86.5V39H88.5V67.5L131 38L239 109.5L226.5 132Z" />
</svg>
