<svg xmlns="http://www.w3.org/2000/svg" viewBox="0 0 32 40" x="0px" y="0px"><title>Adventure, Recreation, journey, pin, map, marker, Location</title><g><path d="M23.22,9.38A7.93,7.93,0,0,0,16.82,5a9,9,0,0,0-1.64,0,7.93,7.93,0,0,0-6.4,4.34A8.63,8.63,0,0,0,9,17.71l6.21,8.86a1,1,0,0,0,1.64,0l6.26-8.94A8.6,8.6,0,0,0,23.22,9.38ZM16,16a3,3,0,1,1,3-3A3,3,0,0,1,16,16Z"/></g><text x="0" y="47" fill="#000000" font-size="5px" font-weight="bold" font-family="'Helvetica Neue', Helvetica, Arial-Unicode, Arial, Sans-serif">Created by Kmg Design</text><text x="0" y="52" fill="#000000" font-size="5px" font-weight="bold" font-family="'Helvetica Neue', Helvetica, Arial-Unicode, Arial, Sans-serif">from the Noun Project</text></svg>